{
.appVersion = "1342";
classes = (
{
automatic = 1;

glyphs = (
{
glyphname = A;
layers = (
{
anchors = (
{
name = bottom;
position = "{234, 0}";
},
{
name = ogonek;
position = "{502, 0}";
},
{
name = top;
position = "{339, 611}";
}
);
background = {
paths = (
{
closed = 1;
nodes = (
"379 48 LINE",
"317 36 LINE",
"312 0 LINE",
"516 0 LINE",
"522 35 LINE",
"460 52 LINE",
"381 626 LINE",
"328 615 LINE",
"45 48 LINE",
"-27 35 LINE",
"-32 0 LINE",
"158 0 LINE",
"167 37 LINE",
"102 47 LINE",
"189 223 LINE",
"356 223 LINE"
);
},
{
closed = 1;
nodes = (
"321 489 LINE",
"350 266 LINE",
"210 266 LINE"
);
}
);
};
layerId = "27799D80-F866-457E-9382-0097DC0AFC53";
paths = (
{
closed = 1;
nodes = (
"146 0 LINE",
"155 37 LINE",
"88 47 LINE",
"175 223 LINE",
"342 223 LINE",
"365 48 LINE",
"303 36 LINE",
"298 0 LINE",
"502 0 LINE",
"508 35 LINE",
"446 52 LINE",
"367 626 LINE",
"314 615 LINE",
"31 48 LINE",
"-41 35 LINE",
"-46 0 LINE"
);
},
{
closed = 1;
nodes = (
"307 489 LINE",
"336 266 LINE",
"196 266 LINE"
);
}
);
width = 550;
},
{
anchors = (
{
name = bottom;
position = "{212, 0}";
},
{
name = ogonek;
position = "{527, 0}";
},
{
name = top;
position = "{339, 614}";
}
);
background = {
paths = (
{
closed = 1;
nodes = (
"345 65 LINE",
"279 45 LINE",
"270 0 LINE",
"537 0 LINE",
"546 45 LINE",
"483 69 LINE",
"391 627 LINE",
"314 614 LINE",
"26 69 LINE",
"-43 44 LINE",
"-52 0 LINE",
"154 0 LINE",
"163 45 LINE",
"103 68 LINE",
"148 153 LINE",
"331 153 LINE"
);
},
{
closed = 1;
nodes = (
"290 423 LINE",
"322 212 LINE",
"179 212 LINE"
);
}
);
};
layerId = "91FB354D-039B-406A-8F87-4ABC8510003D";
paths = (
{
closed = 1;
nodes = (
"144 0 LINE",
"153 45 LINE",
"93 68 LINE",
"138 153 LINE",
"321 153 LINE",
"335 65 LINE",
"269 45 LINE",
"260 0 LINE",
"527 0 LINE",
"536 45 LINE",
"473 69 LINE",
"381 627 LINE",
"304 614 LINE",
"16 69 LINE",
"-53 44 LINE",
"-62 0 LINE"
);
},
{
closed = 1;
nodes = (
"280 423 LINE",
"312 212 LINE",
"169 212 LINE"
);
}
);
width = 560;
},
{
anchors = (
{
name = bottom;
position = "{226, 0}";
},
{
name = ogonek;
position = "{495, 0}";
},
{
name = top;
position = "{340, 610}";
}
);
layerId = "44981724-2b4e-42be-8f7f-300520b6a406";
paths = (
{
closed = 1;
nodes = (
"144 0 LINE",
"153 35 LINE",
"84 41 LINE",
"175 225 LINE",
"350 225 LINE",
"375 43 LINE",
"312 34 LINE",
"308 0 LINE",
"495 0 LINE",
"501 32 LINE",
"441 47 LINE",
"361 626 LINE",
"318 615 LINE",
"32 42 LINE",
"-38 33 LINE",
"-42 0 LINE"
);
},
{
closed = 1;
nodes = (
"314 506 LINE",
"345 264 LINE",
"194 264 LINE"
);
}
);
width = 547;
},
{
anchors = (
{
name = bottom;
position = "{208, 0}";
},
{
name = ogonek;
position = "{535, 0}";
},
{
name = top;
position = "{343, 615}";
}
);
layerId = "8454c77d-11ac-4429-aa94-301a0d22d44f";
paths = (
{
closed = 1;
nodes = (
"144 0 LINE",
"153 48 LINE",
"97 75 LINE",
"135 148 LINE",
"310 148 LINE",
"322 71 LINE",
"257 48 LINE",
"246 0 LINE",
"535 0 LINE",
"544 49 LINE",
"480 75 LINE",
"388 627 LINE",
"299 614 LINE",
"13 76 LINE",
"-58 47 LINE",
"-66 0 LINE"
);
},
{
closed = 1;
nodes = (
"271 405 LINE",
"300 213 LINE",
"170 213 LINE"
);
}
);
width = 564;
}
);
leftKerningGroup = A;
rightKerningGroup = A;
unicode = 0041;
},
{
glyphname = Aacute;
layers = (
{
components = (
{
name = A;
},
{
name = acutecomb.case;
transform = "{1, 0, 0, 1, 179, 0}";
}
);
layerId = "27799D80-F866-457E-9382-0097DC0AFC53";
width = 550;
},
{
components = (
{
name = A;
},
{
name = acutecomb.case;
transform = "{1, 0, 0, 1, 167, 0}";
}
);
layerId = "91FB354D-039B-406A-8F87-4ABC8510003D";
width = 560;
},
{
background = {
paths = (
{
closed = 1;
nodes = (
"288 656 LINE",
"498 757 LINE",
"498 774 LINE",
"429 800 LINE",
"275 670 LINE"
);
},
{
closed = 1;
nodes = (
"-27 0 LINE",
"159 0 LINE",
"168 35 LINE",
"99 41 LINE",
"190 225 LINE",
"365 225 LINE",
"390 43 LINE",
"327 34 LINE",
"323 0 LINE",
"510 0 LINE",
"516 32 LINE",
"456 47 LINE",
"376 626 LINE",
"333 615 LINE",
"47 42 LINE",
"-23 33 LINE"
);
},
{
closed = 1;
nodes = (
"209 264 LINE",
"329 506 LINE",
"360 264 LINE"
);
}
);
};
components = (
{
name = A;
},
{
name = acutecomb.case;
transform = "{1, 0, 0, 1, 189, 0}";
}
);
layerId = "44981724-2b4e-42be-8f7f-300520b6a406";
width = 547;
},
{
background = {
paths = (
{
closed = 1;
nodes = (
"264 628 LINE",
"497 739 LINE",
"497 764 LINE",
"390 800 LINE",
"233 669 LINE"
);
},
{
closed = 1;
nodes = (
"319 148 LINE",
"331 71 LINE",
"266 48 LINE",
"255 0 LINE",
"544 0 LINE",
"555 49 LINE",
"489 75 LINE",
"397 627 LINE",
"308 614 LINE",
"22 76 LINE",
"-49 47 LINE",
"-59 0 LINE",
"153 0 LINE",
"162 48 LINE",
"106 75 LINE",
"144 148 LINE"
);
},
{
closed = 1;
nodes = (
"179 213 LINE",
"280 405 LINE",
"309 213 LINE"
);
}
);
};
components = (
{
name = A;
},
{
name = acutecomb.case;
transform = "{1, 0, 0, 1, 160, 0}";
}
);
layerId = "8454c77d-11ac-4429-aa94-301a0d22d44f";
width = 564;
}
);
leftKerningGroup = A;
rightKerningGroup = A;
unicode = 00C1;
},
{
glyphname = Acircumflex;
layers = (
{
background = {
paths = (
{
closed = 1;
nodes = (
"157 0 LINE",
"166 37 LINE",
"101 47 LINE",
"188 223 LINE",
"355 223 LINE",
"378 48 LINE",
"316 36 LINE",
"311 0 LINE",
"515 0 LINE",
"521 35 LINE",
"459 52 LINE",
"380 626 LINE",
"327 615 LINE",
"44 48 LINE",
"-28 35 LINE",
"-33 0 LINE"
);
},
{
closed = 1;
nodes = (
"320 489 LINE",
"349 266 LINE",
"209 266 LINE"
);
},
{
closed = 1;
nodes = (
"387 733 LINE",
"480 650 LINE",
"506 669 LINE",
"427 804 LINE",
"367 804 LINE",
"228 669 LINE",
"248 650 LINE"
);
}
);
};
components = (
{
name = A;
},
{
name = circumflexcomb.case;
transform = "{1, 0, 0, 1, 130, 0}";
}
);
layerId = "27799D80-F866-457E-9382-0097DC0AFC53";
width = 550;
},
{
background = {
paths = (
{
closed = 1;
nodes = (
"154 0 LINE",
"163 45 LINE",
"103 68 LINE",
"148 153 LINE",
"331 153 LINE",
"345 65 LINE",
"279 45 LINE",
"270 0 LINE",
"537 0 LINE",
"546 45 LINE",
"483 69 LINE",
"391 627 LINE",
"314 614 LINE",
"26 69 LINE",
"-43 44 LINE",
"-52 0 LINE"
);
},
{
closed = 1;
nodes = (
"290 423 LINE",
"322 212 LINE",
"179 212 LINE"
);
},
{
closed = 1;
nodes = (
"359 707 LINE",
"467 639 LINE",
"497 665 LINE",
"415 795 LINE",
"330 795 LINE",
"202 669 LINE",
"225 639 LINE"
);
}
);
};
components = (
{
name = A;
},
{
name = circumflexcomb.case;
transform = "{1, 0, 0, 1, 138, 0}";
}
);
layerId = "91FB354D-039B-406A-8F87-4ABC8510003D";
width = 560;
},
{
components = (
{
name = A;
},
{
name = circumflexcomb.case;
transform = "{1, 0, 0, 1, 132, 0}";
}
);
layerId = "44981724-2b4e-42be-8f7f-300520b6a406";
width = 547;
},
{
components = (
{
name = A;
},
{
name = circumflexcomb.case;
transform = "{1, 0, 0, 1, 141, 0}";
}
);
layerId = "8454c77d-11ac-4429-aa94-301a0d22d44f";
width = 564;
}
);
leftKerningGroup = A;
rightKerningGroup = A;
unicode = 00C2;
},
{
glyphname = Adieresis;
layers = (
{
background = {
paths = (
{
closed = 1;
nodes = (
"157 0 LINE",
"166 37 LINE",
"101 47 LINE",
"188 223 LINE",
"355 223 LINE",
"378 48 LINE",
"316 36 LINE",
"311 0 LINE",
"515 0 LINE",
"521 35 LINE",
"459 52 LINE",
"380 626 LINE",
"327 615 LINE",
"44 48 LINE",
"-28 35 LINE",
"-33 0 LINE"
);
},
{
closed = 1;
nodes = (
"320 489 LINE",
"349 266 LINE",
"209 266 LINE"
);
},
{
closed = 1;
nodes = (
"313 671 OFFCURVE",
"340 696 OFFCURVE",
"340 726 CURVE SMOOTH",
"340 758 OFFCURVE",
"313 784 OFFCURVE",
"283 784 CURVE SMOOTH",
"253 784 OFFCURVE",
"226 758 OFFCURVE",
"226 726 CURVE SMOOTH",
"226 696 OFFCURVE",
"253 671 OFFCURVE",
"283 671 CURVE SMOOTH"
);
},
{
closed = 1;
nodes = (
"507 671 OFFCURVE",
"535 696 OFFCURVE",
"535 726 CURVE SMOOTH",
"535 758 OFFCURVE",
"507 784 OFFCURVE",
"477 784 CURVE SMOOTH",
"447 784 OFFCURVE",
"420 758 OFFCURVE",
"420 726 CURVE SMOOTH",
"420 696 OFFCURVE",
"447 671 OFFCURVE",
"477 671 CURVE SMOOTH"
);
}
);
};
components = (
{
name = A;
},
{
name = dieresiscomb.case;
transform = "{1, 0, 0, 1, 106, 0}";
}
);
layerId = "27799D80-F866-457E-9382-0097DC0AFC53";
width = 550;
},
{
background = {
paths = (
{
closed = 1;
nodes = (
"154 0 LINE",
"163 45 LINE",
"103 68 LINE",
"148 153 LINE",
"331 153 LINE",
"345 65 LINE",
"279 45 LINE",
"270 0 LINE",
"537 0 LINE",
"546 45 LINE",
"483 69 LINE",
"391 627 LINE",
"314 614 LINE",
"26 69 LINE",
"-43 44 LINE",
"-52 0 LINE"
);
},
{
closed = 1;
nodes = (
"290 423 LINE",
"322 212 LINE",
"179 212 LINE"
);
},
{
closed = 1;
nodes = (
"286 647 OFFCURVE",
"320 677 OFFCURVE",
"320 719 CURVE SMOOTH",
"320 760 OFFCURVE",
"286 792 OFFCURVE",
"246 792 CURVE SMOOTH",
"205 792 OFFCURVE",
"168 760 OFFCURVE",
"168 719 CURVE SMOOTH",
"168 677 OFFCURVE",
"205 647 OFFCURVE",
"246 647 CURVE SMOOTH"
);
},
{
closed = 1;
nodes = (
"516 647 OFFCURVE",
"551 677 OFFCURVE",
"551 719 CURVE SMOOTH",
"551 760 OFFCURVE",
"516 792 OFFCURVE",
"478 792 CURVE SMOOTH",
"436 792 OFFCURVE",
"401 760 OFFCURVE",
"401 719 CURVE SMOOTH",
"401 677 OFFCURVE",
"436 647 OFFCURVE",
"478 647 CURVE SMOOTH"
);
}
);
};
components = (
{
name = A;
},
{
name = dieresiscomb.case;
transform = "{1, 0, 0, 1, 67, 0}";
}
);
layerId = "91FB354D-039B-406A-8F87-4ABC8510003D";
width = 560;
},
{
background = {
paths = (
{
closed = 1;
nodes = (
"159 0 LINE",
"168 35 LINE",
"99 41 LINE",
"190 225 LINE",
"365 225 LINE",
"390 43 LINE",
"327 34 LINE",
"323 0 LINE",
"510 0 LINE",
"516 32 LINE",
"456 47 LINE",
"376 626 LINE",
"333 615 LINE",
"47 42 LINE",
"-23 33 LINE",
"-27 0 LINE"
);
},
{
closed = 1;
nodes = (
"329 506 LINE",
"360 264 LINE",
"209 264 LINE"
);
},
{
closed = 1;
nodes = (
"320 678 OFFCURVE",
"345 701 OFFCURVE",
"345 728 CURVE SMOOTH",
"345 757 OFFCURVE",
"320 782 OFFCURVE",
"293 782 CURVE SMOOTH",
"266 782 OFFCURVE",
"242 757 OFFCURVE",
"242 728 CURVE SMOOTH",
"242 701 OFFCURVE",
"266 678 OFFCURVE",
"293 678 CURVE SMOOTH"
);
},
{
closed = 1;
nodes = (
"505 678 OFFCURVE",
"531 701 OFFCURVE",
"531 728 CURVE SMOOTH",
"531 757 OFFCURVE",
"505 782 OFFCURVE",
"477 782 CURVE SMOOTH",
"450 782 OFFCURVE",
"425 757 OFFCURVE",
"425 728 CURVE SMOOTH",
"425 701 OFFCURVE",
"450 678 OFFCURVE",
"477 678 CURVE SMOOTH"
);
}
);
};
components = (
{
name = A;
},
{
name = dieresiscomb.case;
transform = "{1, 0, 0, 1, 116, 0}";
}
);
layerId = "44981724-2b4e-42be-8f7f-300520b6a406";
width = 547;
},
{
background = {
paths = (
{
closed = 1;
nodes = (
"153 0 LINE",
"162 48 LINE",
"106 75 LINE",
"144 148 LINE",
"319 148 LINE",
"331 71 LINE",
"266 48 LINE",
"255 0 LINE",
"544 0 LINE",
"555 49 LINE",
"489 75 LINE",
"397 627 LINE",
"308 614 LINE",
"22 76 LINE",
"-49 47 LINE",
"-59 0 LINE"
);
},
{
closed = 1;
nodes = (
"280 405 LINE",
"309 213 LINE",
"179 213 LINE"
);
},
{
closed = 1;
nodes = (
"276 639 OFFCURVE",
"313 670 OFFCURVE",
"313 717 CURVE SMOOTH",
"313 761 OFFCURVE",
"276 795 OFFCURVE",
"233 795 CURVE SMOOTH",
"188 795 OFFCURVE",
"147 761 OFFCURVE",
"147 717 CURVE SMOOTH",
"147 670 OFFCURVE",
"188 639 OFFCURVE",
"233 639 CURVE SMOOTH"
);
},
{
closed = 1;
nodes = (
"519 639 OFFCURVE",
"557 670 OFFCURVE",
"557 717 CURVE SMOOTH",
"557 761 OFFCURVE",
"519 795 OFFCURVE",
"478 795 CURVE SMOOTH",
"432 795 OFFCURVE",
"394 761 OFFCURVE",
"394 717 CURVE SMOOTH",
"394 670 OFFCURVE",
"432 639 OFFCURVE",
"478 639 CURVE SMOOTH"
);
}
);
};
components = (
{
name = A;
},
{
name = dieresiscomb.case;
transform = "{1, 0, 0, 1, 57, 0}";
}
);
layerId = "8454c77d-11ac-4429-aa94-301a0d22d44f";
width = 564;
}
);
leftKerningGroup = A;
rightKerningGroup = A;
unicode = 00C4;
},
{
glyphname = Agrave;
layers = (
{
background = {
paths = (
{
closed = 1;
nodes = (
"157 0 LINE",
"166 37 LINE",
"101 47 LINE",
"188 223 LINE",
"355 223 LINE",
"378 48 LINE",
"316 36 LINE",
"311 0 LINE",
"515 0 LINE",
"521 35 LINE",
"459 52 LINE",
"380 626 LINE",
"327 615 LINE",
"44 48 LINE",
"-28 35 LINE",
"-33 0 LINE"
);
},
{
closed = 1;
nodes = (
"320 489 LINE",
"349 266 LINE",
"209 266 LINE"
);
},
{
closed = 1;
nodes = (
"462 670 LINE",
"308 800 LINE",
"232 772 LINE",
"232 754 LINE",
"446 651 LINE"
);
}
);
};
components = (
{
name = A;
},
{
name = gravecomb.case;
transform = "{1, 0, 0, 1, 118, 0}";
}
);
layerId = "27799D80-F866-457E-9382-0097DC0AFC53";
width = 550;
},
{
background = {
paths = (
{
closed = 1;
nodes = (
"154 0 LINE",
"163 45 LINE",
"103 68 LINE",
"148 153 LINE",
"331 153 LINE",
"345 65 LINE",
"279 45 LINE",
"270 0 LINE",
"537 0 LINE",
"546 45 LINE",
"483 69 LINE",
"391 627 LINE",
"314 614 LINE",
"26 69 LINE",
"-43 44 LINE",
"-52 0 LINE"
);
},
{
closed = 1;
nodes = (
"290 423 LINE",
"322 212 LINE",
"179 212 LINE"
);
},
{
closed = 1;
nodes = (
"457 669 LINE",
"303 800 LINE",
"206 766 LINE",
"202 743 LINE",
"434 634 LINE"
);
}
);
};
components = (
{
name = A;
},
{
name = gravecomb.case;
transform = "{1, 0, 0, 1, 92, 0}";
}
);
layerId = "91FB354D-039B-406A-8F87-4ABC8510003D";
width = 560;
},
{
background = {
paths = (
{
closed = 1;
nodes = (
"159 0 LINE",
"168 35 LINE",
"99 41 LINE",
"190 225 LINE",
"365 225 LINE",
"390 43 LINE",
"327 34 LINE",
"323 0 LINE",
"510 0 LINE",
"516 32 LINE",
"456 47 LINE",
"376 626 LINE",
"333 615 LINE",
"47 42 LINE",
"-23 33 LINE",
"-27 0 LINE"
);
},
{
closed = 1;
nodes = (
"329 506 LINE",
"360 264 LINE",
"209 264 LINE"
);
},
{
closed = 1;
nodes = (
"463 670 LINE",
"309 800 LINE",
"239 774 LINE",
"240 757 LINE",
"449 656 LINE"
);
}
);
};
components = (
{
name = A;
},
{
name = gravecomb.case;
transform = "{1, 0, 0, 1, 122, 0}";
}
);
layerId = "44981724-2b4e-42be-8f7f-300520b6a406";
width = 547;
},
{
background = {
paths = (
{
closed = 1;
nodes = (
"153 0 LINE",
"162 48 LINE",
"106 75 LINE",
"144 148 LINE",
"319 148 LINE",
"331 71 LINE",
"266 48 LINE",
"255 0 LINE",
"544 0 LINE",
"555 49 LINE",
"489 75 LINE",
"397 627 LINE",
"308 614 LINE",
"22 76 LINE",
"-49 47 LINE",
"-59 0 LINE"
);
},
{
closed = 1;
nodes = (
"280 405 LINE",
"309 213 LINE",
"179 213 LINE"
);
},
{
closed = 1;
nodes = (
"455 669 LINE",
"301 800 LINE",
"197 764 LINE",
"191 739 LINE",
"430 628 LINE"
);
}
);
};
components = (
{
name = A;
},
{
name = gravecomb.case;
transform = "{1, 0, 0, 1, 99, 0}";
}
);
layerId = "8454c77d-11ac-4429-aa94-301a0d22d44f";
width = 564;
}
);
leftKerningGroup = A;
rightKerningGroup = A;
unicode = 00C0;
},
{
glyphname = Amacron;
layers = (
{
background = {
paths = (
{
closed = 1;
nodes = (
"157 0 LINE",
"166 37 LINE",
"101 47 LINE",
"188 223 LINE",
"355 223 LINE",
"378 48 LINE",
"316 36 LINE",
"311 0 LINE",
"515 0 LINE",
"521 35 LINE",
"459 52 LINE",
"380 626 LINE",
"327 615 LINE",
"44 48 LINE",
"-28 35 LINE",
"-33 0 LINE"
);
},
{
closed = 1;
nodes = (
"320 489 LINE",
"349 266 LINE",
"209 266 LINE"
);
},
{
closed = 1;
nodes = (
"482 689 LINE",
"490 743 LINE",
"253 743 LINE",
"245 689 LINE"
);
}
);
};
components = (
{
name = A;
},
{
name = macroncomb.case;
transform = "{1, 0, 0, 1, 146, 0}";
}
);
layerId = "27799D80-F866-457E-9382-0097DC0AFC53";
width = 550;
},
{
background = {
paths = (
{
closed = 1;
nodes = (
"154 0 LINE",
"163 45 LINE",
"103 68 LINE",
"148 153 LINE",
"331 153 LINE",
"345 65 LINE",
"279 45 LINE",
"270 0 LINE",
"537 0 LINE",
"546 45 LINE",
"483 69 LINE",
"391 627 LINE",
"314 614 LINE",
"26 69 LINE",
"-43 44 LINE",
"-52 0 LINE"
);
},
{
closed = 1;
nodes = (
"290 423 LINE",
"322 212 LINE",
"179 212 LINE"
);
},
{
closed = 1;
nodes = (
"480 679 LINE",
"491 758 LINE",
"230 758 LINE",
"219 679 LINE"
);
}
);
};
components = (
{
name = A;
},
{
name = macroncomb.case;
transform = "{1, 0, 0, 1, 132, 0}";
}
);
layerId = "91FB354D-039B-406A-8F87-4ABC8510003D";
width = 560;
},
{
background = {
paths = (
{
closed = 1;
nodes = (
"159 0 LINE",
"168 35 LINE",
"99 41 LINE",
"190 225 LINE",
"365 225 LINE",
"390 43 LINE",
"327 34 LINE",
"323 0 LINE",
"510 0 LINE",
"516 32 LINE",
"456 47 LINE",
"376 626 LINE",
"333 615 LINE",
"47 42 LINE",
"-23 33 LINE",
"-27 0 LINE"
);
},
{
closed = 1;
nodes = (
"329 506 LINE",
"360 264 LINE",
"209 264 LINE"
);
},
{
closed = 1;
nodes = (
"483 692 LINE",
"490 739 LINE",
"259 739 LINE",
"252 692 LINE"
);
}
);
};
components = (
{
name = A;
},
{
name = macroncomb.case;
transform = "{1, 0, 0, 1, 152, 0}";
}
);
layerId = "44981724-2b4e-42be-8f7f-300520b6a406";
width = 547;
},
{
background = {
paths = (
{
closed = 1;
nodes = (
"153 0 LINE",
"162 48 LINE",
"106 75 LINE",
"144 148 LINE",
"319 148 LINE",
"331 71 LINE",
"266 48 LINE",
"255 0 LINE",
"544 0 LINE",
"555 49 LINE",
"489 75 LINE",
"397 627 LINE",
"308 614 LINE",
"22 76 LINE",
"-49 47 LINE",
"-59 0 LINE"
);
},
{
closed = 1;
nodes = (
"280 405 LINE",
"309 213 LINE",
"179 213 LINE"
);
},
{
closed = 1;
nodes = (
"479 675 LINE",
"491 763 LINE",
"222 763 LINE",
"210 675 LINE"
);
}
);
};
components = (
{
name = A;
},
{
name = macroncomb.case;
transform = "{1, 0, 0, 1, 130, 0}";
}
);
layerId = "8454c77d-11ac-4429-aa94-301a0d22d44f";
width = 564;
}
);
leftKerningGroup = A;
rightKerningGroup = A;
unicode = 0100;
},
{
glyphname = Aogonek;
layers = (
{
background = {
paths = (
{
closed = 1;
nodes = (
"364 56 LINE SMOOTH",
"365 44 OFFCURVE",
"366 42 OFFCURVE",
"366 35 CURVE SMOOTH",
"366 4 OFFCURVE",
"225 -60 OFFCURVE",
"225 -165 CURVE SMOOTH",
"225 -203 OFFCURVE",
"248 -236 OFFCURVE",
"308 -236 CURVE SMOOTH",
"372 -236 OFFCURVE",
"409 -186 OFFCURVE",
"409 -186 CURVE",
"395 -170 LINE",
"377 -186 OFFCURVE",
"358 -192 OFFCURVE",
"342 -192 CURVE SMOOTH",
"312 -192 OFFCURVE",
"294 -176 OFFCURVE",
"294 -145 CURVE SMOOTH",
"294 -83 OFFCURVE",
"357 0 OFFCURVE",
"406 0 CURVE SMOOTH",
"506 0 LINE",
"512 35 LINE",
"450 50 LINE",
"383 624 LINE",
"325 611 LINE",
"31 48 LINE",
"-41 35 LINE",
"-46 0 LINE",
"144 0 LINE",
"153 37 LINE",
"88 47 LINE",
"182 227 LINE",
"345 227 LINE"
);
},
{
closed = 1;
nodes = (
"318 488 LINE",
"341 271 LINE",
"205 271 LINE"
);
}
);
};
layerId = "27799D80-F866-457E-9382-0097DC0AFC53";
paths = (
{
closed = 1;
nodes = (
"355 -236 OFFCURVE",
"393 -208 OFFCURVE",
"409 -186 CURVE",
"395 -170 LINE",
"377 -186 OFFCURVE",
"358 -192 OFFCURVE",
"342 -192 CURVE SMOOTH",
"312 -192 OFFCURVE",
"294 -176 OFFCURVE",
"294 -145 CURVE SMOOTH",
"294 -83 OFFCURVE",
"357 0 OFFCURVE",
"406 0 CURVE SMOOTH",
"506 0 LINE",
"512 35 LINE",
"450 50 LINE",
"383 624 LINE",
"325 611 LINE",
"31 48 LINE",
"-41 35 LINE",
"-46 0 LINE",
"144 0 LINE",
"153 37 LINE",
"88 47 LINE",
"182 227 LINE",
"345 227 LINE",
"364 59 LINE SMOOTH",
"365 49 OFFCURVE",
"366 42 OFFCURVE",
"366 35 CURVE SMOOTH",
"366 4 OFFCURVE",
"225 -60 OFFCURVE",
"225 -165 CURVE SMOOTH",
"225 -203 OFFCURVE",
"248 -236 OFFCURVE",
"308 -236 CURVE SMOOTH"
);
},
{
closed = 1;
nodes = (
"318 488 LINE",
"341 271 LINE",
"205 271 LINE"
);
}
);
width = 554;
},
{
background = {
paths = (
{
closed = 1;
nodes = (
"138 153 LINE",
"322 153 LINE",
"335 65 LINE",
"335 58 LINE SMOOTH",
"335 4 OFFCURVE",
"190 -49 OFFCURVE",
"190 -160 CURVE SMOOTH",
"190 -198 OFFCURVE",
"211 -236 OFFCURVE",
"282 -236 CURVE SMOOTH",
"358 -236 OFFCURVE",
"400 -174 OFFCURVE",
"400 -174 CURVE",
"380 -152 LINE",
"358 -166 OFFCURVE",
"338 -174 OFFCURVE",
"316 -174 CURVE SMOOTH",
"289 -174 OFFCURVE",
"278 -159 OFFCURVE",
"278 -128 CURVE SMOOTH",
"278 -81 OFFCURVE",
"330 0 OFFCURVE",
"390 0 CURVE SMOOTH",
"527 0 LINE",
"536 45 LINE",
"473 69 LINE",
"381 627 LINE",
"304 614 LINE",
"16 69 LINE",
"-53 44 LINE",
"-62 0 LINE",
"144 0 LINE",
"153 45 LINE",
"93 68 LINE"
);
},
{
closed = 1;
nodes = (
"312 212 LINE",
"169 212 LINE",
"280 423 LINE"
);
}
);
};
layerId = "91FB354D-039B-406A-8F87-4ABC8510003D";
paths = (
{
closed = 1;
nodes = (
"337 -236 OFFCURVE",
"382 -201 OFFCURVE",
"400 -174 CURVE",
"380 -152 LINE",
"358 -166 OFFCURVE",
"338 -174 OFFCURVE",
"316 -174 CURVE SMOOTH",
"289 -174 OFFCURVE",
"278 -159 OFFCURVE",
"278 -128 CURVE SMOOTH",
"278 -81 OFFCURVE",
"330 0 OFFCURVE",
"390 0 CURVE SMOOTH",
"527 0 LINE",
"536 45 LINE",
"473 69 LINE",
"381 627 LINE",
"304 614 LINE",
"16 69 LINE",
"-53 44 LINE",
"-62 0 LINE",
"144 0 LINE",
"153 45 LINE",
"93 68 LINE",
"138 153 LINE",
"322 153 LINE",
"333 77 LINE",
"334 71 OFFCURVE",
"335 63 OFFCURVE",
"335 58 CURVE SMOOTH",
"335 4 OFFCURVE",
"190 -49 OFFCURVE",
"190 -160 CURVE SMOOTH",
"190 -198 OFFCURVE",
"211 -236 OFFCURVE",
"282 -236 CURVE SMOOTH"
);
},
{
closed = 1;
nodes = (
"280 423 LINE",
"312 212 LINE",
"169 212 LINE"
);
}
);
width = 560;
},
{
layerId = "44981724-2b4e-42be-8f7f-300520b6a406";
paths = (
{
closed = 1;
nodes = (
"376 -236 OFFCURVE",
"408 -194 OFFCURVE",
"411 -189 CURVE",
"399 -175 LINE",
"381 -191 OFFCURVE",
"361 -197 OFFCURVE",
"347 -197 CURVE SMOOTH",
"314 -197 OFFCURVE",
"293 -181 OFFCURVE",
"293 -150 CURVE SMOOTH",
"293 -84 OFFCURVE",
"361 0 OFFCURVE",
"408 0 CURVE SMOOTH",
"496 0 LINE",
"501 32 LINE",
"443 46 LINE",
"362 627 LINE",
"319 615 LINE",
"33 42 LINE",
"-38 33 LINE",
"-42 0 LINE",
"144 0 LINE",
"153 35 LINE",
"86 41 LINE",
"176 225 LINE",
"351 225 LINE",
"373 54 LINE SMOOTH",
"374 43 OFFCURVE",
"375 36 OFFCURVE",
"375 29 CURVE SMOOTH",
"375 4 OFFCURVE",
"234 -63 OFFCURVE",
"234 -166 CURVE SMOOTH",
"234 -204 OFFCURVE",
"258 -236 OFFCURVE",
"315 -236 CURVE SMOOTH"
);
},
{
closed = 1;
nodes = (
"315 506 LINE",
"346 264 LINE",
"195 264 LINE"
);
}
);
width = 548;
},
{
layerId = "8454c77d-11ac-4429-aa94-301a0d22d44f";
paths = (
{
closed = 1;
nodes = (
"332 -236 OFFCURVE",
"379 -198 OFFCURVE",
"398 -170 CURVE",
"376 -146 LINE",
"352 -159 OFFCURVE",
"332 -168 OFFCURVE",
"308 -168 CURVE SMOOTH",
"282 -168 OFFCURVE",
"273 -153 OFFCURVE",
"273 -122 CURVE SMOOTH",
"273 -80 OFFCURVE",
"321 0 OFFCURVE",
"385 0 CURVE SMOOTH",
"535 0 LINE",
"545 49 LINE",
"482 76 LINE",
"388 628 LINE",
"299 615 LINE",
"12 76 LINE",
"-56 47 LINE",
"-67 0 LINE",
"145 0 LINE",
"154 48 LINE",
"96 75 LINE",
"135 148 LINE",
"311 148 LINE",
"321 83 LINE SMOOTH",
"322 79 OFFCURVE",
"323 70 OFFCURVE",
"323 66 CURVE SMOOTH",
"323 4 OFFCURVE",
"179 -45 OFFCURVE",
"179 -158 CURVE SMOOTH",
"179 -196 OFFCURVE",
"199 -236 OFFCURVE",
"274 -236 CURVE SMOOTH"
);
},
{
closed = 1;
nodes = (
"271 404 LINE",
"299 213 LINE",
"170 213 LINE"
);
}
);
width = 564;
}
);
leftKerningGroup = A;
leftMetricsKey = A;
rightKerningGroup = A;
rightMetricsKey = A;
unicode = 0104;
},
{
glyphname = Aring;
layers = (
{
background = {
paths = (
{
closed = 1;
nodes = (
"157 0 LINE",
"166 37 LINE",
"101 47 LINE",
"188 223 LINE",
"355 223 LINE",
"378 48 LINE",
"316 36 LINE",
"311 0 LINE",
"515 0 LINE",
"521 35 LINE",
"459 52 LINE",
"380 626 LINE",
"327 615 LINE",
"44 48 LINE",
"-28 35 LINE",
"-33 0 LINE"
);
},
{
closed = 1;
nodes = (
"320 489 LINE",
"349 266 LINE",
"209 266 LINE"
);
},
{
closed = 1;
nodes = (
"443 639 OFFCURVE",
"487 690 OFFCURVE",
"487 749 CURVE SMOOTH",
"487 790 OFFCURVE",
"460 820 OFFCURVE",
"403 820 CURVE SMOOTH",
"329 820 OFFCURVE",
"286 770 OFFCURVE",
"286 709 CURVE SMOOTH",
"286 669 OFFCURVE",
"313 639 OFFCURVE",
"371 639 CURVE SMOOTH"
);
},
{
closed = 1;
nodes = (
"352 674 OFFCURVE",
"340 687 OFFCURVE",
"340 711 CURVE SMOOTH",
"340 747 OFFCURVE",
"354 785 OFFCURVE",
"397 785 CURVE SMOOTH",
"421 785 OFFCURVE",
"433 772 OFFCURVE",
"433 746 CURVE SMOOTH",
"433 712 OFFCURVE",
"420 674 OFFCURVE",
"377 674 CURVE SMOOTH"
);
}
);
};
components = (
{
name = A;
},
{
name = ringcomb.case;
transform = "{1, 0, 0, 1, 168, 0}";
}
);
layerId = "27799D80-F866-457E-9382-0097DC0AFC53";
width = 550;
},
{
background = {
paths = (
{
closed = 1;
nodes = (
"154 0 LINE",
"163 45 LINE",
"103 68 LINE",
"148 153 LINE",
"331 153 LINE",
"345 65 LINE",
"279 45 LINE",
"270 0 LINE",
"537 0 LINE",
"546 45 LINE",
"483 69 LINE",
"391 627 LINE",
"314 614 LINE",
"26 69 LINE",
"-43 44 LINE",
"-52 0 LINE"
);
},
{
closed = 1;
nodes = (
"290 423 LINE",
"322 212 LINE",
"179 212 LINE"
);
},
{
closed = 1;
nodes = (
"423 627 OFFCURVE",
"478 672 OFFCURVE",
"478 739 CURVE SMOOTH",
"477 783 OFFCURVE",
"451 819 OFFCURVE",
"385 819 CURVE SMOOTH",
"289 819 OFFCURVE",
"250 762 OFFCURVE",
"250 698 CURVE SMOOTH",
"250 653 OFFCURVE",
"286 627 OFFCURVE",
"347 627 CURVE SMOOTH"
);
},
{
closed = 1;
nodes = (
"326 674 OFFCURVE",
"323 688 OFFCURVE",
"323 706 CURVE SMOOTH",
"323 735 OFFCURVE",
"331 771 OFFCURVE",
"370 771 CURVE SMOOTH",
"394 771 OFFCURVE",
"405 757 OFFCURVE",
"405 740 CURVE SMOOTH",
"405 711 OFFCURVE",
"396 674 OFFCURVE",
"355 674 CURVE SMOOTH"
);
}
);
};
components = (
{
name = A;
},
{
name = ringcomb.case;
transform = "{1, 0, 0, 1, 151, 0}";
}
);
layerId = "91FB354D-039B-406A-8F87-4ABC8510003D";
width = 560;
},
{
background = {
paths = (
{
closed = 1;
nodes = (
"159 0 LINE",
"168 35 LINE",
"99 41 LINE",
"190 225 LINE",
"365 225 LINE",
"390 43 LINE",
"327 34 LINE",
"323 0 LINE",
"510 0 LINE",
"516 32 LINE",
"456 47 LINE",
"376 626 LINE",
"333 615 LINE",
"47 42 LINE",
"-23 33 LINE",
"-27 0 LINE"
);
},
{
closed = 1;
nodes = (
"329 506 LINE",
"360 264 LINE",
"209 264 LINE"
);
},
{
closed = 1;
nodes = (
"448 642 OFFCURVE",
"489 695 OFFCURVE",
"489 752 CURVE",
"490 792 OFFCURVE",
"462 820 OFFCURVE",
"408 820 CURVE SMOOTH",
"340 820 OFFCURVE",
"296 772 OFFCURVE",
"296 712 CURVE SMOOTH",
"296 673 OFFCURVE",
"320 642 OFFCURVE",
"378 642 CURVE SMOOTH"
);
},
{
closed = 1;
nodes = (
"359 674 OFFCURVE",
"345 687 OFFCURVE",
"345 712 CURVE SMOOTH",
"345 750 OFFCURVE",
"360 789 OFFCURVE",
"404 789 CURVE SMOOTH",
"428 789 OFFCURVE",
"441 776 OFFCURVE",
"441 748 CURVE SMOOTH",
"441 712 OFFCURVE",
"427 674 OFFCURVE",
"383 674 CURVE SMOOTH"
);
}
);
};
components = (
{
name = A;
},
{
name = ringcomb.case;
transform = "{1, 0, 0, 1, 142, 0}";
}
);
layerId = "44981724-2b4e-42be-8f7f-300520b6a406";
width = 547;
},
{
background = {
paths = (
{
closed = 1;
nodes = (
"153 0 LINE",
"162 48 LINE",
"106 75 LINE",
"144 148 LINE",
"319 148 LINE",
"331 71 LINE",
"266 48 LINE",
"255 0 LINE",
"544 0 LINE",
"555 49 LINE",
"489 75 LINE",
"397 627 LINE",
"308 614 LINE",
"22 76 LINE",
"-49 47 LINE",
"-59 0 LINE"
);
},
{
closed = 1;
nodes = (
"280 405 LINE",
"309 213 LINE",
"179 213 LINE"
);
},
{
closed = 1;
nodes = (
"416 623 OFFCURVE",
"475 666 OFFCURVE",
"475 735 CURVE",
"473 781 OFFCURVE",
"448 819 OFFCURVE",
"379 819 CURVE SMOOTH",
"275 819 OFFCURVE",
"237 759 OFFCURVE",
"237 694 CURVE SMOOTH",
"237 647 OFFCURVE",
"276 623 OFFCURVE",
"339 623 CURVE SMOOTH"
);
},
{
closed = 1;
nodes = (
"317 674 OFFCURVE",
"317 688 OFFCURVE",
"317 704 CURVE SMOOTH",
"317 731 OFFCURVE",
"323 766 OFFCURVE",
"360 766 CURVE SMOOTH",
"384 766 OFFCURVE",
"395 752 OFFCURVE",
"395 738 CURVE SMOOTH",
"395 711 OFFCURVE",
"388 674 OFFCURVE",
"347 674 CURVE SMOOTH"
);
}
);
};
components = (
{
name = A;
},
{
name = ringcomb.case;
transform = "{1, 0, 0, 1, 155, 0}";
}
);
layerId = "8454c77d-11ac-4429-aa94-301a0d22d44f";
width = 564;
}
);
leftKerningGroup = A;
rightKerningGroup = A;
unicode = 00C5;
},
{
glyphname = Atilde;
layers = (
{
background = {
paths = (
{
closed = 1;
nodes = (
"157 0 LINE",
"166 37 LINE",
"101 47 LINE",
"188 223 LINE",
"355 223 LINE",
"378 48 LINE",
"316 36 LINE",
"311 0 LINE",
"515 0 LINE",
"521 35 LINE",
"459 52 LINE",
"380 626 LINE",
"327 615 LINE",
"44 48 LINE",
"-28 35 LINE",
"-33 0 LINE"
);
},
{
closed = 1;
nodes = (
"320 489 LINE",
"349 266 LINE",
"209 266 LINE"
);
},
{
closed = 1;
nodes = (
"487 670 OFFCURVE",
"509 714 OFFCURVE",
"530 765 CURVE",
"499 777 LINE",
"499 777 OFFCURVE",
"479 742 OFFCURVE",
"456 742 CURVE SMOOTH",
"421 742 OFFCURVE",
"338 782 OFFCURVE",
"304 782 CURVE SMOOTH",
"271 782 OFFCURVE",
"249 738 OFFCURVE",
"228 686 CURVE",
"258 674 LINE",
"258 674 OFFCURVE",
"281 710 OFFCURVE",
"303 710 CURVE SMOOTH",
"336 710 OFFCURVE",
"421 670 OFFCURVE",
"455 670 CURVE SMOOTH"
);
}
);
};
components = (
{
name = A;
},
{
name = tildecomb.case;
transform = "{1, 0, 0, 1, 123, 0}";
}
);
layerId = "27799D80-F866-457E-9382-0097DC0AFC53";
width = 550;
},
{
background = {
paths = (
{
closed = 1;
nodes = (
"154 0 LINE",
"163 45 LINE",
"103 68 LINE",
"148 153 LINE",
"331 153 LINE",
"345 65 LINE",
"279 45 LINE",
"270 0 LINE",
"537 0 LINE",
"546 45 LINE",
"483 69 LINE",
"391 627 LINE",
"314 614 LINE",
"26 69 LINE",
"-43 44 LINE",
"-52 0 LINE"
);
},
{
closed = 1;
nodes = (
"290 423 LINE",
"322 212 LINE",
"179 212 LINE"
);
},
{
closed = 1;
nodes = (
"485 654 OFFCURVE",
"513 700 OFFCURVE",
"537 758 CURVE",
"493 777 LINE",
"493 777 OFFCURVE",
"476 746 OFFCURVE",
"451 746 CURVE SMOOTH",
"412 746 OFFCURVE",
"324 783 OFFCURVE",
"275 783 CURVE SMOOTH",
"242 783 OFFCURVE",
"208 737 OFFCURVE",
"188 679 CURVE",
"235 660 LINE",
"235 660 OFFCURVE",
"251 691 OFFCURVE",
"275 691 CURVE SMOOTH",
"313 691 OFFCURVE",
"402 654 OFFCURVE",
"451 654 CURVE SMOOTH"
);
}
);
};
components = (
{
name = A;
},
{
name = tildecomb.case;
transform = "{1, 0, 0, 1, 98, 0}";
}
);
layerId = "91FB354D-039B-406A-8F87-4ABC8510003D";
width = 560;
},
{
background = {
paths = (
{
closed = 1;
nodes = (
"159 0 LINE",
"168 35 LINE",
"99 41 LINE",
"190 225 LINE",
"365 225 LINE",
"390 43 LINE",
"327 34 LINE",
"323 0 LINE",
"510 0 LINE",
"516 32 LINE",
"456 47 LINE",
"376 626 LINE",
"333 615 LINE",
"47 42 LINE",
"-23 33 LINE",
"-27 0 LINE"
);
},
{
closed = 1;
nodes = (
"329 506 LINE",
"360 264 LINE",
"209 264 LINE"
);
},
{
closed = 1;
nodes = (
"488 674 OFFCURVE",
"508 718 OFFCURVE",
"528 767 CURVE",
"501 777 LINE",
"499 773 OFFCURVE",
"480 741 OFFCURVE",
"457 741 CURVE SMOOTH",
"423 741 OFFCURVE",
"342 782 OFFCURVE",
"312 782 CURVE SMOOTH",
"279 782 OFFCURVE",
"260 738 OFFCURVE",
"239 688 CURVE",
"264 678 LINE",
"266 682 OFFCURVE",
"289 715 OFFCURVE",
"311 715 CURVE SMOOTH",
"342 715 OFFCURVE",
"426 674 OFFCURVE",
"456 674 CURVE SMOOTH"
);
}
);
};
components = (
{
name = A;
},
{
name = tildecomb.case;
transform = "{1, 0, 0, 1, 130, 0}";
}
);
layerId = "44981724-2b4e-42be-8f7f-300520b6a406";
width = 547;
},
{
background = {
paths = (
{
closed = 1;
nodes = (
"153 0 LINE",
"162 48 LINE",
"106 75 LINE",
"144 148 LINE",
"319 148 LINE",
"331 71 LINE",
"266 48 LINE",
"255 0 LINE",
"544 0 LINE",
"555 49 LINE",
"489 75 LINE",
"397 627 LINE",
"308 614 LINE",
"22 76 LINE",
"-49 47 LINE",
"-59 0 LINE"
);
},
{
closed = 1;
nodes = (
"280 405 LINE",
"309 213 LINE",
"179 213 LINE"
);
},
{
closed = 1;
nodes = (
"484 648 OFFCURVE",
"514 695 OFFCURVE",
"539 756 CURVE",
"491 777 LINE",
"489 772 OFFCURVE",
"475 747 OFFCURVE",
"449 747 CURVE SMOOTH",
"409 747 OFFCURVE",
"319 783 OFFCURVE",
"265 783 CURVE SMOOTH",
"232 783 OFFCURVE",
"193 737 OFFCURVE",
"174 677 CURVE",
"227 655 LINE",
"228 658 OFFCURVE",
"240 684 OFFCURVE",
"265 684 CURVE SMOOTH",
"305 684 OFFCURVE",
"395 648 OFFCURVE",
"450 648 CURVE SMOOTH"
);
}
);
};
components = (
{
name = A;
},
{
name = tildecomb.case;
transform = "{1, 0, 0, 1, 93, 0}";
}
);
layerId = "8454c77d-11ac-4429-aa94-301a0d22d44f";
width = 564;
}
);
leftKerningGroup = A;
rightKerningGroup = A;
unicode = 00C3;
},
{
glyphname = AE;
layers = (
{
anchors = (
{
name = top;
position = "{481, 611}";
}
);
background = {
paths = (
{
closed = 1;
nodes = (
"450 559 LINE",
"618 559 LINE",
"618 479 LINE",
"656 479 LINE",
"681 611 LINE",
"292 611 LINE",
"286 578 LINE",
"346 564 LINE",
"-24 48 LINE",
"-96 35 LINE",
"-101 0 LINE",
"89 0 LINE",
"98 37 LINE",
"33 47 LINE",
"189 263 LINE",
"333 263 LINE",
"306 53 LINE",
"213 33 LINE",
"207 0 LINE",
"609 0 LINE",
"637 147 LINE",
"600 147 LINE",
"558 56 LINE",
"385 56 LINE",
"411 263 LINE",
"521 263 LINE",
"531 194 LINE",
"565 194 LINE",
"600 375 LINE",
"566 375 LINE",
"533 309 LINE",
"417 309 LINE"
);
},
{
closed = 1;
nodes = (
"222 309 LINE",
"364 505 LINE",
"339 309 LINE"
);
}
);
};
layerId = "27799D80-F866-457E-9382-0097DC0AFC53";
paths = (
{
closed = 1;
nodes = (
"99 0 LINE",
"108 37 LINE",
"43 47 LINE",
"199 263 LINE",
"343 263 LINE",
"316 53 LINE",
"223 33 LINE",
"217 0 LINE",
"619 0 LINE",
"647 147 LINE",
"610 147 LINE",
"568 56 LINE",
"393 56 LINE",
"419 263 LINE",
"531 263 LINE",
"541 194 LINE",
"575 194 LINE",
"610 375 LINE",
"576 375 LINE",
"543 309 LINE",
"425 309 LINE",
"458 559 LINE",
"628 559 LINE",
"628 479 LINE",
"666 479 LINE",
"691 611 LINE",
"302 611 LINE",
"296 578 LINE",
"356 564 LINE",
"-14 48 LINE",
"-86 35 LINE",
"-91 0 LINE"
);
},
{
closed = 1;
nodes = (
"374 505 LINE",
"349 309 LINE",
"232 309 LINE"
);
}
);
width = 712;
},
{
anchors = (
{
name = top;
position = "{511, 614}";
}
);
background = {
paths = (
{
closed = 1;
nodes = (
"447 546 LINE",
"582 546 LINE",
"587 468 LINE",
"640 468 LINE",
"668 614 LINE",
"240 614 LINE",
"231 569 LINE",
"287 552 LINE",
"-65 69 LINE",
"-134 44 LINE",
"-143 0 LINE",
"70 0 LINE",
"79 45 LINE",
"19 68 LINE",
"155 259 LINE",
"269 259 LINE",
"244 69 LINE",
"160 45 LINE",
"152 0 LINE",
"598 0 LINE",
"629 162 LINE",
"576 162 LINE",
"534 69 LINE",
"384 69 LINE",
"409 259 LINE",
"492 259 LINE",
"501 190 LINE",
"547 190 LINE",
"584 381 LINE",
"538 381 LINE",
"505 315 LINE",
"416 315 LINE"
);
},
{
closed = 1;
nodes = (
"195 315 LINE",
"295 454 LINE",
"276 315 LINE"
);
}
);
};
layerId = "91FB354D-039B-406A-8F87-4ABC8510003D";
paths = (
{
closed = 1;
nodes = (
"130 0 LINE",
"139 45 LINE",
"79 68 LINE",
"215 259 LINE",
"329 259 LINE",
"304 69 LINE",
"220 45 LINE",
"212 0 LINE",
"658 0 LINE",
"689 162 LINE",
"636 162 LINE",
"594 69 LINE",
"439 69 LINE",
"464 259 LINE",
"552 259 LINE",
"561 190 LINE",
"607 190 LINE",
"644 381 LINE",
"598 381 LINE",
"565 315 LINE",
"471 315 LINE",
"502 546 LINE",
"642 546 LINE",
"647 468 LINE",
"700 468 LINE",
"728 614 LINE",
"300 614 LINE",
"291 569 LINE",
"347 552 LINE",
"-5 69 LINE",
"-74 44 LINE",
"-83 0 LINE"
);
},
{
closed = 1;
nodes = (
"355 454 LINE",
"336 315 LINE",
"255 315 LINE"
);
}
);
width = 733;
},
{
anchors = (
{
name = top;
position = "{470, 610}";
}
);
layerId = "44981724-2b4e-42be-8f7f-300520b6a406";
paths = (
{
closed = 1;
nodes = (
"93 0 LINE",
"102 35 LINE",
"35 41 LINE",
"197 264 LINE",
"349 264 LINE",
"321 49 LINE",
"226 30 LINE",
"220 0 LINE",
"610 0 LINE",
"638 143 LINE",
"605 143 LINE",
"563 52 LINE",
"384 52 LINE",
"410 264 LINE",
"527 264 LINE",
"538 195 LINE",
"568 195 LINE",
"603 373 LINE",
"572 373 LINE",
"539 307 LINE",
"416 307 LINE",
"449 563 LINE",
"626 563 LINE",
"625 482 LINE",
"659 482 LINE",
"683 610 LINE",
"305 610 LINE",
"299 580 LINE",
"357 567 LINE",
"-17 42 LINE",
"-87 33 LINE",
"-91 0 LINE"
);
},
{
closed = 1;
nodes = (
"381 519 LINE",
"355 307 LINE",
"228 307 LINE"
);
}
);
width = 708;
},
{
anchors = (
{
name = top;
position = "{474, 615}";
}
);
layerId = "8454c77d-11ac-4429-aa94-301a0d22d44f";
paths = (
{
closed = 1;
nodes = (
"108 0 LINE",
"117 48 LINE",
"59 75 LINE",
"188 258 LINE",
"291 258 LINE",
"267 75 LINE",
"186 49 LINE",
"177 0 LINE",
"639 0 LINE",
"671 167 LINE",
"612 167 LINE",
"570 74 LINE",
"423 74 LINE",
"448 258 LINE",
"526 258 LINE",
"535 189 LINE",
"585 189 LINE",
"623 383 LINE",
"573 383 LINE",
"540 317 LINE",
"455 317 LINE",
"486 541 LINE",
"614 541 LINE",
"621 464 LINE",
"679 464 LINE",
"708 615 LINE",
"266 615 LINE",
"256 566 LINE",
"306 548 LINE",
"-35 76 LINE",
"-103 47 LINE",
"-113 0 LINE"
);
},
{
closed = 1;
nodes = (
"315 436 LINE",
"298 317 LINE",
"230 317 LINE"
);
}
);
width = 707;
}
);
rightKerningGroup = E;
rightMetricsKey = E;
unicode = 00C6;
},
{
glyphname = B;
layers = (
{
anchors = (
{
name = bottom;
position = "{225, 0}";
},
{
name = top;
position = "{344, 611}";
}
);
background = {
paths = (
{
closed = 1;
nodes = (
"435 340 OFFCURVE",
"503 400 OFFCURVE",
"503 496 CURVE SMOOTH",
"503 562 OFFCURVE",
"452 611 OFFCURVE",
"334 611 CURVE SMOOTH",
"110 611 LINE",
"104 578 LINE",
"183 558 LINE",
"85 53 LINE",
"-2 33 LINE",
"-8 0 LINE",
"222 0 LINE SMOOTH",
"364 0 OFFCURVE",
"467 85 OFFCURVE",
"467 194 CURVE SMOOTH",
"467 262 OFFCURVE",
"428 304 OFFCURVE",
"347 323 CURVE"
);
},
{
closed = 1;
nodes = (
"219 337 LINE",
"262 561 LINE",
"283 566 OFFCURVE",
"299 568 OFFCURVE",
"323 568 CURVE SMOOTH",
"382 568 OFFCURVE",
"419 542 OFFCURVE",
"419 485 CURVE SMOOTH",
"419 386 OFFCURVE",
"347 337 OFFCURVE",
"264 337 CURVE SMOOTH"
);
},
{
closed = 1;
nodes = (
"211 299 LINE",
"250 299 LINE SMOOTH",
"335 299 OFFCURVE",
"381 265 OFFCURVE",
"381 201 CURVE SMOOTH",
"381 84 OFFCURVE",
"290 41 OFFCURVE",
"218 41 CURVE SMOOTH",
"200 41 OFFCURVE",
"180 43 OFFCURVE",
"162 49 CURVE"
);
}
);
};
layerId = "27799D80-F866-457E-9382-0097DC0AFC53";
paths = (
{
closed = 1;
nodes = (
"222 0 LINE SMOOTH",
"367 0 OFFCURVE",
"473 85 OFFCURVE",
"473 194 CURVE SMOOTH",
"473 262 OFFCURVE",
"432 304 OFFCURVE",
"347 323 CURVE",
"434 340 OFFCURVE",
"501 400 OFFCURVE",
"501 496 CURVE SMOOTH",
"501 562 OFFCURVE",
"451 611 OFFCURVE",
"334 611 CURVE SMOOTH",
"110 611 LINE",
"104 578 LINE",
"183 558 LINE",
"85 53 LINE",
"-2 33 LINE",
"-8 0 LINE"
);
},
{
closed = 1;
nodes = (
"200 41 OFFCURVE",
"180 43 OFFCURVE",
"162 49 CURVE",
"211 299 LINE",
"250 299 LINE SMOOTH",
"339 299 OFFCURVE",
"387 265 OFFCURVE",
"387 201 CURVE SMOOTH",
"387 84 OFFCURVE",
"293 41 OFFCURVE",
"218 41 CURVE SMOOTH"
);
},
{
closed = 1;
nodes = (
"262 561 LINE",
"283 566 OFFCURVE",
"299 568 OFFCURVE",
"323 568 CURVE SMOOTH",
"381 568 OFFCURVE",
"417 542 OFFCURVE",
"417 485 CURVE SMOOTH",
"417 386 OFFCURVE",
"346 337 OFFCURVE",
"264 337 CURVE SMOOTH",
"219 337 LINE"
);
}
);
width = 515;
},
{
anchors = (
{
name = bottom;
position = "{231, 0}";
},
{
name = top;
position = "{351, 614}";
}
);
background = {
paths = (
{
closed = 1;
nodes = (
"476 340 OFFCURVE",
"552 402 OFFCURVE",
"552 498 CURVE SMOOTH",
"552 568 OFFCURVE",
"498 614 OFFCURVE",
"368 614 CURVE SMOOTH",
"102 614 LINE",
"93 569 LINE",
"169 546 LINE",
"76 69 LINE",
"-8 45 LINE",
"-16 0 LINE",
"237 0 LINE SMOOTH",
"408 0 OFFCURVE",
"510 84 OFFCURVE",
"510 203 CURVE SMOOTH",
"510 266 OFFCURVE",
"471 310 OFFCURVE",
"386 324 CURVE"
);
},
{
closed = 1;
nodes = (
"265 343 LINE",
"306 549 LINE",
"306 549 OFFCURVE",
"325 553 OFFCURVE",
"347 553 CURVE SMOOTH",
"390 553 OFFCURVE",
"414 534 OFFCURVE",
"414 490 CURVE SMOOTH",
"414 370 OFFCURVE",
"335 343 OFFCURVE",
"292 343 CURVE SMOOTH"
);
},
{
closed = 1;
nodes = (
"255 289 LINE",
"280 289 LINE SMOOTH",
"331 289 OFFCURVE",
"371 262 OFFCURVE",
"371 203 CURVE SMOOTH",
"371 106 OFFCURVE",
"319 61 OFFCURVE",
"257 61 CURVE SMOOTH",
"241 61 OFFCURVE",
"223 65 OFFCURVE",
"212 69 CURVE"
);
}
);
};
layerId = "91FB354D-039B-406A-8F87-4ABC8510003D";
paths = (
{
closed = 1;
nodes = (
"237 0 LINE SMOOTH",
"414 0 OFFCURVE",
"520 84 OFFCURVE",
"520 203 CURVE SMOOTH",
"520 266 OFFCURVE",
"478 310 OFFCURVE",
"386 324 CURVE",
"474 340 OFFCURVE",
"549 402 OFFCURVE",
"549 498 CURVE SMOOTH",
"549 568 OFFCURVE",
"496 614 OFFCURVE",
"368 614 CURVE SMOOTH",
"102 614 LINE",
"93 569 LINE",
"169 546 LINE",
"76 69 LINE",
"-8 45 LINE",
"-16 0 LINE"
);
},
{
closed = 1;
nodes = (
"241 61 OFFCURVE",
"223 65 OFFCURVE",
"212 69 CURVE",
"255 289 LINE",
"280 289 LINE SMOOTH",
"337 289 OFFCURVE",
"381 262 OFFCURVE",
"381 203 CURVE SMOOTH",
"381 106 OFFCURVE",
"324 61 OFFCURVE",
"257 61 CURVE SMOOTH"
);
},
{
closed = 1;
nodes = (
"306 549 LINE",
"314 551 OFFCURVE",
"331 553 OFFCURVE",
"347 553 CURVE SMOOTH",
"388 553 OFFCURVE",
"411 534 OFFCURVE",
"411 490 CURVE SMOOTH",
"411 370 OFFCURVE",
"334 343 OFFCURVE",
"292 343 CURVE SMOOTH",
"265 343 LINE"
);
}
);
width = 552;
},
{
anchors = (
{
name = bottom;
position = "{223, 0}";
},
{
name = top;
position = "{342, 610}";
}
);
layerId = "44981724-2b4e-42be-8f7f-300520b6a406";
paths = (
{
closed = 1;
nodes = (
"218 0 LINE SMOOTH",
"355 0 OFFCURVE",
"460 85 OFFCURVE",
"460 192 CURVE SMOOTH",
"460 261 OFFCURVE",
"419 302 OFFCURVE",
"336 323 CURVE",
"423 340 OFFCURVE",
"488 399 OFFCURVE",
"488 495 CURVE SMOOTH",
"488 560 OFFCURVE",
"439 610 OFFCURVE",
"325 610 CURVE SMOOTH",
"112 610 LINE",
"107 580 LINE",
"187 561 LINE",
"87 49 LINE",
"0 30 LINE",
"-6 0 LINE"
);
},
{
closed = 1;
nodes = (
"189 36 OFFCURVE",
"168 37 OFFCURVE",
"148 44 CURVE",
"199 302 LINE",
"242 302 LINE SMOOTH",
"339 302 OFFCURVE",
"389 266 OFFCURVE",
"389 200 CURVE SMOOTH",
"389 78 OFFCURVE",
"284 36 OFFCURVE",
"207 36 CURVE SMOOTH"
);
},
{
closed = 1;
nodes = (
"250 564 LINE",
"277 571 OFFCURVE",
"292 572 OFFCURVE",
"317 572 CURVE SMOOTH",
"379 572 OFFCURVE",
"418 548 OFFCURVE",
"418 484 CURVE SMOOTH",
"418 390 OFFCURVE",
"349 335 OFFCURVE",
"256 335 CURVE SMOOTH",
"207 335 LINE"
);
}
);
width = 499;
},
{
anchors = (
{
name = bottom;
position = "{233, 0}";
},
{
name = top;
position = "{353, 615}";
}
);
layerId = "8454c77d-11ac-4429-aa94-301a0d22d44f";
paths = (
{
closed = 1;
nodes = (
"242 0 LINE SMOOTH",
"429 0 OFFCURVE",
"535 84 OFFCURVE",
"535 206 CURVE SMOOTH",
"535 267 OFFCURVE",
"493 312 OFFCURVE",
"400 324 CURVE",
"488 340 OFFCURVE",
"566 403 OFFCURVE",
"566 499 CURVE SMOOTH",
"566 570 OFFCURVE",
"512 615 OFFCURVE",
"380 615 CURVE SMOOTH",
"99 615 LINE",
"89 566 LINE",
"164 542 LINE",
"73 75 LINE",
"-10 49 LINE",
"-19 0 LINE"
);
},
{
closed = 1;
nodes = (
"253 67 OFFCURVE",
"236 72 OFFCURVE",
"228 75 CURVE",
"271 285 LINE",
"291 285 LINE SMOOTH",
"334 285 OFFCURVE",
"377 261 OFFCURVE",
"377 204 CURVE SMOOTH",
"377 113 OFFCURVE",
"333 67 OFFCURVE",
"269 67 CURVE SMOOTH"
);
},
{
closed = 1;
nodes = (
"322 544 LINE",
"328 546 OFFCURVE",
"340 548 OFFCURVE",
"355 548 CURVE SMOOTH",
"396 548 OFFCURVE",
"416 531 OFFCURVE",
"416 492 CURVE SMOOTH",
"416 364 OFFCURVE",
"332 345 OFFCURVE",
"302 345 CURVE SMOOTH",
"281 345 LINE"
);
}
);
width = 562;
}
);
leftKerningGroup = H;
leftMetricsKey = H;
rightKerningGroup = B;
unicode = 0042;
},
{
glyphname = C;
layers = (
{
anchors = (
{
name = bottom;
position = "{257, 0}";
},
{
name = top;
position = "{387, 611}";
}
);
background = {
paths = (
{
closed = 1;
nodes = (
"450 138 LINE",
"416 138 LINE",
"376 54 LINE",
"340 43 OFFCURVE",
"309 39 OFFCURVE",
"284 39 CURVE SMOOTH",
"170 39 OFFCURVE",
"132 110 OFFCURVE",
"132 217 CURVE SMOOTH",
"132 388 OFFCURVE",
"210 578 OFFCURVE",
"383 578 CURVE SMOOTH",
"428 578 OFFCURVE",
"455 574 OFFCURVE",
"481 566 CURVE",
"481 469 LINE",
"514 469 LINE",
"549 599 LINE",
"512 614 OFFCURVE",
"465 626 OFFCURVE",
"386 626 CURVE SMOOTH",
"174 626 OFFCURVE",
"42 430 OFFCURVE",
"42 211 CURVE SMOOTH",
"42 83 OFFCURVE",
"105 -9 OFFCURVE",
"262 -9 CURVE SMOOTH",
"333 -9 OFFCURVE",
"382 3 OFFCURVE",
"436 23 CURVE"
);
}
);
};
layerId = "27799D80-F866-457E-9382-0097DC0AFC53";
paths = (
{
closed = 1;
nodes = (
"333 -9 OFFCURVE",
"382 3 OFFCURVE",
"436 23 CURVE",
"450 138 LINE",
"416 138 LINE",
"376 54 LINE",
"340 43 OFFCURVE",
"309 39 OFFCURVE",
"284 39 CURVE SMOOTH",
"170 39 OFFCURVE",
"132 110 OFFCURVE",
"132 217 CURVE SMOOTH",
"132 388 OFFCURVE",
"210 578 OFFCURVE",
"383 578 CURVE SMOOTH",
"428 578 OFFCURVE",
"455 574 OFFCURVE",
"481 566 CURVE",
"481 469 LINE",
"514 469 LINE",
"549 599 LINE",
"512 614 OFFCURVE",
"465 626 OFFCURVE",
"386 626 CURVE SMOOTH",
"174 626 OFFCURVE",
"42 430 OFFCURVE",
"42 211 CURVE SMOOTH",
"42 83 OFFCURVE",
"105 -9 OFFCURVE",
"262 -9 CURVE SMOOTH"
);
}
);
width = 524;
},
{
anchors = (
{
name = bottom;
position = "{263, 0}";
},
{
name = top;
position = "{387, 614}";
}
);
background = {
paths = (
{
closed = 1;
nodes = (
"477 157 LINE",
"421 157 LINE",
"384 70 LINE",
"353 61 OFFCURVE",
"329 59 OFFCURVE",
"303 59 CURVE SMOOTH",
"218 59 OFFCURVE",
"187 102 OFFCURVE",
"187 208 CURVE SMOOTH",
"187 368 OFFCURVE",
"231 560 OFFCURVE",
"383 560 CURVE SMOOTH",
"418 560 OFFCURVE",
"444 556 OFFCURVE",
"470 548 CURVE",
"474 446 LINE",
"528 446 LINE",
"568 603 LINE",
"525 617 OFFCURVE",
"469 628 OFFCURVE",
"396 628 CURVE SMOOTH",
"154 628 OFFCURVE",
"39 426 OFFCURVE",
"39 216 CURVE SMOOTH",
"39 68 OFFCURVE",
"103 -10 OFFCURVE",
"271 -10 CURVE SMOOTH",
"345 -10 OFFCURVE",
"397 1 OFFCURVE",
"455 21 CURVE"
);
}
);
};
layerId = "91FB354D-039B-406A-8F87-4ABC8510003D";
paths = (
{
closed = 1;
nodes = (
"345 -10 OFFCURVE",
"397 1 OFFCURVE",
"455 21 CURVE",
"477 157 LINE",
"421 157 LINE",
"384 70 LINE",
"353 61 OFFCURVE",
"329 59 OFFCURVE",
"303 59 CURVE SMOOTH",
"218 59 OFFCURVE",
"187 102 OFFCURVE",
"187 208 CURVE SMOOTH",
"187 368 OFFCURVE",
"231 560 OFFCURVE",
"383 560 CURVE SMOOTH",
"418 560 OFFCURVE",
"444 556 OFFCURVE",
"470 548 CURVE",
"474 446 LINE",
"528 446 LINE",
"568 603 LINE",
"525 617 OFFCURVE",
"469 628 OFFCURVE",
"396 628 CURVE SMOOTH",
"154 628 OFFCURVE",
"39 426 OFFCURVE",
"39 216 CURVE SMOOTH",
"39 68 OFFCURVE",
"103 -10 OFFCURVE",
"271 -10 CURVE SMOOTH"
);
}
);
width = 526;
},
{
anchors = (
{
name = bottom;
position = "{257, 0}";
},
{
name = top;
position = "{378, 610}";
}
);
layerId = "44981724-2b4e-42be-8f7f-300520b6a406";
paths = (
{
closed = 1;
nodes = (
"331 -9 OFFCURVE",
"379 4 OFFCURVE",
"432 24 CURVE",
"444 133 LINE",
"416 133 LINE",
"378 50 LINE",
"340 38 OFFCURVE",
"305 34 OFFCURVE",
"280 34 CURVE SMOOTH",
"158 34 OFFCURVE",
"118 112 OFFCURVE",
"118 219 CURVE SMOOTH",
"118 393 OFFCURVE",
"205 583 OFFCURVE",
"384 583 CURVE SMOOTH",
"432 583 OFFCURVE",
"459 579 OFFCURVE",
"485 571 CURVE",
"482 475 LINE",
"511 475 LINE",
"545 598 LINE",
"509 613 OFFCURVE",
"465 625 OFFCURVE",
"384 625 CURVE SMOOTH",
"175 625 OFFCURVE",
"44 431 OFFCURVE",
"44 210 CURVE SMOOTH",
"44 87 OFFCURVE",
"106 -9 OFFCURVE",
"260 -9 CURVE SMOOTH"
);
}
);
width = 524;
},
{
anchors = (
{
name = bottom;
position = "{265, 0}";
},
{
name = top;
position = "{386, 615}";
}
);
layerId = "8454c77d-11ac-4429-aa94-301a0d22d44f";
paths = (
{
closed = 1;
nodes = (
"349 -10 OFFCURVE",
"402 0 OFFCURVE",
"461 20 CURVE",
"486 164 LINE",
"422 164 LINE",
"386 76 LINE",
"357 67 OFFCURVE",
"336 65 OFFCURVE",
"309 65 CURVE SMOOTH",
"234 65 OFFCURVE",
"206 99 OFFCURVE",
"206 205 CURVE SMOOTH",
"206 361 OFFCURVE",
"244 554 OFFCURVE",
"382 554 CURVE SMOOTH",
"414 554 OFFCURVE",
"440 550 OFFCURVE",
"466 542 CURVE",
"471 438 LINE",
"532 438 LINE",
"574 604 LINE",
"529 618 OFFCURVE",
"470 629 OFFCURVE",
"399 629 CURVE SMOOTH",
"146 629 OFFCURVE",
"37 425 OFFCURVE",
"37 218 CURVE SMOOTH",
"37 63 OFFCURVE",
"102 -10 OFFCURVE",
"274 -10 CURVE SMOOTH"
);
}
);
width = 526;
}
);
leftKerningGroup = O;
leftMetricsKey = O;
rightKerningGroup = C;
unicode = 0043;
},
{
glyphname = Cacute;
layers = (
{
background = {
paths = (
{
closed = 1;
nodes = (
"313 -9 OFFCURVE",
"362 3 OFFCURVE",
"416 23 CURVE",
"430 138 LINE",
"396 138 LINE",
"356 54 LINE",
"320 43 OFFCURVE",
"289 39 OFFCURVE",
"264 39 CURVE SMOOTH",
"150 39 OFFCURVE",
"112 110 OFFCURVE",
"112 217 CURVE SMOOTH",
"112 388 OFFCURVE",
"190 578 OFFCURVE",
"363 578 CURVE SMOOTH",
"408 578 OFFCURVE",
"435 574 OFFCURVE",
"461 566 CURVE",
"461 469 LINE",
"494 469 LINE",
"529 599 LINE",
"492 614 OFFCURVE",
"445 626 OFFCURVE",
"366 626 CURVE SMOOTH",
"154 626 OFFCURVE",
"22 430 OFFCURVE",
"22 211 CURVE SMOOTH",
"22 83 OFFCURVE",
"85 -9 OFFCURVE",
"242 -9 CURVE SMOOTH"
);
},
{
closed = 1;
nodes = (
"513 754 LINE",
"513 772 LINE",
"437 800 LINE",
"283 670 LINE",
"299 651 LINE"
);
}
);
};
components = (
{
name = C;
},
{
name = acutecomb.case;
transform = "{1, 0, 0, 1, 226, 0}";
}
);
layerId = "27799D80-F866-457E-9382-0097DC0AFC53";
width = 524;
},
{
background = {
paths = (
{
closed = 1;
nodes = (
"342 -10 OFFCURVE",
"394 1 OFFCURVE",
"452 21 CURVE",
"474 157 LINE",
"418 157 LINE",
"381 70 LINE",
"350 61 OFFCURVE",
"326 59 OFFCURVE",
"300 59 CURVE SMOOTH",
"215 59 OFFCURVE",
"184 102 OFFCURVE",
"184 208 CURVE SMOOTH",
"184 368 OFFCURVE",
"228 560 OFFCURVE",
"380 560 CURVE SMOOTH",
"415 560 OFFCURVE",
"441 556 OFFCURVE",
"467 548 CURVE",
"471 446 LINE",
"525 446 LINE",
"565 603 LINE",
"522 617 OFFCURVE",
"466 628 OFFCURVE",
"393 628 CURVE SMOOTH",
"151 628 OFFCURVE",
"36 426 OFFCURVE",
"36 216 CURVE SMOOTH",
"36 68 OFFCURVE",
"100 -10 OFFCURVE",
"268 -10 CURVE SMOOTH"
);
},
{
closed = 1;
nodes = (
"529 743 LINE",
"529 766 LINE",
"430 800 LINE",
"274 669 LINE",
"301 634 LINE"
);
}
);
};
components = (
{
name = C;
},
{
name = acutecomb.case;
transform = "{1, 0, 0, 1, 214, 0}";
}
);
layerId = "91FB354D-039B-406A-8F87-4ABC8510003D";
width = 526;
},
{
background = {
paths = (
{
closed = 1;
nodes = (
"305 -9 OFFCURVE",
"353 4 OFFCURVE",
"406 24 CURVE",
"418 133 LINE",
"390 133 LINE",
"352 50 LINE",
"314 38 OFFCURVE",
"279 34 OFFCURVE",
"254 34 CURVE SMOOTH",
"132 34 OFFCURVE",
"92 112 OFFCURVE",
"92 219 CURVE SMOOTH",
"92 393 OFFCURVE",
"179 583 OFFCURVE",
"358 583 CURVE SMOOTH",
"406 583 OFFCURVE",
"433 579 OFFCURVE",
"459 571 CURVE",
"456 475 LINE",
"485 475 LINE",
"519 598 LINE",
"483 613 OFFCURVE",
"439 625 OFFCURVE",
"358 625 CURVE SMOOTH",
"149 625 OFFCURVE",
"18 431 OFFCURVE",
"18 210 CURVE SMOOTH",
"18 87 OFFCURVE",
"80 -9 OFFCURVE",
"234 -9 CURVE SMOOTH"
);
},
{
closed = 1;
nodes = (
"509 757 LINE",
"509 774 LINE",
"439 800 LINE",
"285 670 LINE",
"298 656 LINE"
);
}
);
};
components = (
{
name = C;
},
{
name = acutecomb.case;
transform = "{1, 0, 0, 1, 226, 0}";
}
);
layerId = "44981724-2b4e-42be-8f7f-300520b6a406";
width = 524;
},
{
background = {
paths = (
{
closed = 1;
nodes = (
"353 -10 OFFCURVE",
"406 0 OFFCURVE",
"465 20 CURVE",
"490 164 LINE",
"426 164 LINE",
"390 76 LINE",
"361 67 OFFCURVE",
"340 65 OFFCURVE",
"313 65 CURVE SMOOTH",
"238 65 OFFCURVE",
"210 99 OFFCURVE",
"210 205 CURVE SMOOTH",
"210 361 OFFCURVE",
"248 554 OFFCURVE",
"386 554 CURVE SMOOTH",
"418 554 OFFCURVE",
"444 550 OFFCURVE",
"470 542 CURVE",
"475 438 LINE",
"536 438 LINE",
"578 604 LINE",
"533 618 OFFCURVE",
"474 629 OFFCURVE",
"403 629 CURVE SMOOTH",
"150 629 OFFCURVE",
"41 425 OFFCURVE",
"41 218 CURVE SMOOTH",
"41 63 OFFCURVE",
"106 -10 OFFCURVE",
"278 -10 CURVE SMOOTH"
);
},
{
closed = 1;
nodes = (
"535 739 LINE",
"535 764 LINE",
"428 800 LINE",
"271 669 LINE",
"302 628 LINE"
);
}
);
};
components = (
{
name = C;
},
{
name = acutecomb.case;
transform = "{1, 0, 0, 1, 202, 0}";
}
);
layerId = "8454c77d-11ac-4429-aa94-301a0d22d44f";
width = 526;
}
);
leftKerningGroup = O;
rightKerningGroup = C;
unicode = 0106;
},
{
glyphname = Ccaron;
layers = (
{
background = {
paths = (
{
closed = 1;
nodes = (
"313 -9 OFFCURVE",
"362 3 OFFCURVE",
"416 23 CURVE",
"430 138 LINE",
"396 138 LINE",
"356 54 LINE",
"320 43 OFFCURVE",
"289 39 OFFCURVE",
"264 39 CURVE SMOOTH",
"150 39 OFFCURVE",
"112 110 OFFCURVE",
"112 217 CURVE SMOOTH",
"112 388 OFFCURVE",
"190 578 OFFCURVE",
"363 578 CURVE SMOOTH",
"408 578 OFFCURVE",
"435 574 OFFCURVE",
"461 566 CURVE",
"461 469 LINE",
"494 469 LINE",
"529 599 LINE",
"492 614 OFFCURVE",
"445 626 OFFCURVE",
"366 626 CURVE SMOOTH",
"154 626 OFFCURVE",
"22 430 OFFCURVE",
"22 211 CURVE SMOOTH",
"22 83 OFFCURVE",
"85 -9 OFFCURVE",
"242 -9 CURVE SMOOTH"
);
},
{
closed = 1;
nodes = (
"392 651 LINE",
"522 786 LINE",
"502 805 LINE",
"372 722 LINE",
"270 804 LINE",
"243 786 LINE",
"332 651 LINE"
);
}
);
};
components = (
{
name = C;
},
{
name = caroncomb.case;
transform = "{1, 0, 0, 1, 164, 0}";
}
);
layerId = "27799D80-F866-457E-9382-0097DC0AFC53";
width = 524;
},
{
background = {
paths = (
{
closed = 1;
nodes = (
"342 -10 OFFCURVE",
"394 1 OFFCURVE",
"452 21 CURVE",
"474 157 LINE",
"418 157 LINE",
"381 70 LINE",
"350 61 OFFCURVE",
"326 59 OFFCURVE",
"300 59 CURVE SMOOTH",
"215 59 OFFCURVE",
"184 102 OFFCURVE",
"184 208 CURVE SMOOTH",
"184 368 OFFCURVE",
"228 560 OFFCURVE",
"380 560 CURVE SMOOTH",
"415 560 OFFCURVE",
"441 556 OFFCURVE",
"467 548 CURVE",
"471 446 LINE",
"525 446 LINE",
"565 603 LINE",
"522 617 OFFCURVE",
"466 628 OFFCURVE",
"393 628 CURVE SMOOTH",
"151 628 OFFCURVE",
"36 426 OFFCURVE",
"36 216 CURVE SMOOTH",
"36 68 OFFCURVE",
"100 -10 OFFCURVE",
"268 -10 CURVE SMOOTH"
);
},
{
closed = 1;
nodes = (
"427 639 LINE",
"555 765 LINE",
"532 795 LINE",
"398 727 LINE",
"290 795 LINE",
"260 769 LINE",
"342 639 LINE"
);
}
);
};
components = (
{
name = C;
},
{
name = caroncomb.case;
transform = "{1, 0, 0, 1, 166, 0}";
}
);
layerId = "91FB354D-039B-406A-8F87-4ABC8510003D";
width = 526;
},
{
background = {
paths = (
{
closed = 1;
nodes = (
"305 -9 OFFCURVE",
"353 4 OFFCURVE",
"406 24 CURVE",
"418 133 LINE",
"390 133 LINE",
"352 50 LINE",
"314 38 OFFCURVE",
"279 34 OFFCURVE",
"254 34 CURVE SMOOTH",
"132 34 OFFCURVE",
"92 112 OFFCURVE",
"92 219 CURVE SMOOTH",
"92 393 OFFCURVE",
"179 583 OFFCURVE",
"358 583 CURVE SMOOTH",
"406 583 OFFCURVE",
"433 579 OFFCURVE",
"459 571 CURVE",
"456 475 LINE",
"485 475 LINE",
"519 598 LINE",
"483 613 OFFCURVE",
"439 625 OFFCURVE",
"358 625 CURVE SMOOTH",
"149 625 OFFCURVE",
"18 431 OFFCURVE",
"18 210 CURVE SMOOTH",
"18 87 OFFCURVE",
"80 -9 OFFCURVE",
"234 -9 CURVE SMOOTH"
);
},
{
closed = 1;
nodes = (
"383 654 LINE",
"513 792 LINE",
"494 808 LINE",
"365 721 LINE",
"265 806 LINE",
"238 791 LINE",
"329 654 LINE"
);
}
);
};
components = (
{
name = C;
},
{
name = caroncomb.case;
transform = "{1, 0, 0, 1, 161, 0}";
}
);
layerId = "44981724-2b4e-42be-8f7f-300520b6a406";
width = 524;
},
{
background = {
paths = (
{
closed = 1;
nodes = (
"352 -10 OFFCURVE",
"405 0 OFFCURVE",
"464 20 CURVE",
"489 164 LINE",
"425 164 LINE",
"389 76 LINE",
"360 67 OFFCURVE",
"339 65 OFFCURVE",
"312 65 CURVE SMOOTH",
"237 65 OFFCURVE",
"209 99 OFFCURVE",
"209 205 CURVE SMOOTH",
"209 361 OFFCURVE",
"247 554 OFFCURVE",
"385 554 CURVE SMOOTH",
"417 554 OFFCURVE",
"443 550 OFFCURVE",
"469 542 CURVE",
"474 438 LINE",
"535 438 LINE",
"577 604 LINE",
"532 618 OFFCURVE",
"473 629 OFFCURVE",
"402 629 CURVE SMOOTH",
"149 629 OFFCURVE",
"40 425 OFFCURVE",
"40 218 CURVE SMOOTH",
"40 63 OFFCURVE",
"105 -10 OFFCURVE",
"277 -10 CURVE SMOOTH"
);
},
{
closed = 1;
nodes = (
"439 635 LINE",
"567 758 LINE",
"543 791 LINE",
"407 729 LINE",
"297 792 LINE",
"266 763 LINE",
"346 635 LINE"
);
}
);
};
components = (
{
name = C;
},
{
name = caroncomb.case;
transform = "{1, 0, 0, 1, 155, 0}";
}
);
layerId = "8454c77d-11ac-4429-aa94-301a0d22d44f";
width = 526;
}
);
leftKerningGroup = O;
rightKerningGroup = C;
unicode = 010C;
},
{
glyphname = Ccedilla;
layers = (
{
background = {
paths = (
{
closed = 1;
nodes = (
"264 -219 OFFCURVE",
"339 -167 OFFCURVE",
"339 -103 CURVE SMOOTH",
"339 -70 OFFCURVE",
"312 -44 OFFCURVE",
"247 -44 CURVE",
"266 -9 LINE",
"334 -8 OFFCURVE",
"382 3 OFFCURVE",
"435 23 CURVE",
"449 138 LINE",
"415 138 LINE",
"375 54 LINE",
"339 43 OFFCURVE",
"308 39 OFFCURVE",
"283 39 CURVE SMOOTH",
"169 39 OFFCURVE",
"131 110 OFFCURVE",
"131 217 CURVE SMOOTH",
"131 388 OFFCURVE",
"209 578 OFFCURVE",
"382 578 CURVE SMOOTH",
"427 578 OFFCURVE",
"454 574 OFFCURVE",
"480 566 CURVE",
"480 469 LINE",
"513 469 LINE",
"548 599 LINE",
"511 614 OFFCURVE",
"464 626 OFFCURVE",
"385 626 CURVE SMOOTH",
"173 626 OFFCURVE",
"41 430 OFFCURVE",
"41 211 CURVE SMOOTH",
"41 90 OFFCURVE",
"97 1 OFFCURVE",
"235 -8 CURVE",
"205 -66 LINE",
"206 -75 LINE",
"259 -75 OFFCURVE",
"274 -96 OFFCURVE",
"274 -118 CURVE SMOOTH",
"274 -158 OFFCURVE",
"235 -191 OFFCURVE",
"185 -191 CURVE SMOOTH",
"173 -191 OFFCURVE",
"160 -190 OFFCURVE",
"147 -185 CURVE",
"133 -212 LINE",
"149 -217 OFFCURVE",
"166 -219 OFFCURVE",
"188 -219 CURVE SMOOTH"
);
}
);
};
components = (
{
name = C;
},
{
name = cedillacomb.case;
transform = "{1, 0, 0, 1, 212, 0}";
}
);
layerId = "27799D80-F866-457E-9382-0097DC0AFC53";
width = 524;
},
{
background = {
paths = (
{
closed = 1;
nodes = (
"266 -220 OFFCURVE",
"346 -182 OFFCURVE",
"346 -107 CURVE SMOOTH",
"346 -72 OFFCURVE",
"319 -46 OFFCURVE",
"258 -46 CURVE",
"275 -10 LINE",
"346 -9 OFFCURVE",
"397 1 OFFCURVE",
"454 21 CURVE",
"476 157 LINE",
"420 157 LINE",
"383 70 LINE",
"352 61 OFFCURVE",
"328 59 OFFCURVE",
"302 59 CURVE SMOOTH",
"217 59 OFFCURVE",
"186 102 OFFCURVE",
"186 208 CURVE SMOOTH",
"186 368 OFFCURVE",
"230 560 OFFCURVE",
"382 560 CURVE SMOOTH",
"417 560 OFFCURVE",
"443 556 OFFCURVE",
"469 548 CURVE",
"473 446 LINE",
"527 446 LINE",
"567 603 LINE",
"524 617 OFFCURVE",
"468 628 OFFCURVE",
"395 628 CURVE SMOOTH",
"153 628 OFFCURVE",
"38 426 OFFCURVE",
"38 216 CURVE SMOOTH",
"38 80 OFFCURVE",
"91 4 OFFCURVE",
"229 -8 CURVE",
"194 -73 LINE",
"198 -92 LINE",
"235 -93 OFFCURVE",
"247 -108 OFFCURVE",
"247 -125 CURVE SMOOTH",
"247 -158 OFFCURVE",
"213 -176 OFFCURVE",
"188 -176 CURVE SMOOTH",
"171 -176 OFFCURVE",
"162 -174 OFFCURVE",
"154 -169 CURVE",
"138 -204 LINE",
"154 -212 OFFCURVE",
"172 -220 OFFCURVE",
"215 -220 CURVE SMOOTH"
);
}
);
};
components = (
{
name = C;
},
{
name = cedillacomb.case;
transform = "{1, 0, 0, 1, 216, 0}";
}
);
layerId = "91FB354D-039B-406A-8F87-4ABC8510003D";
width = 526;
},
{
background = {
paths = (
{
closed = 1;
nodes = (
"265 -219 OFFCURVE",
"339 -163 OFFCURVE",
"339 -102 CURVE SMOOTH",
"339 -69 OFFCURVE",
"312 -43 OFFCURVE",
"245 -43 CURVE",
"265 -9 LINE",
"332 -8 OFFCURVE",
"379 4 OFFCURVE",
"431 24 CURVE",
"443 133 LINE",
"415 133 LINE",
"374 50 LINE",
"337 38 OFFCURVE",
"304 34 OFFCURVE",
"279 34 CURVE SMOOTH",
"157 34 OFFCURVE",
"117 112 OFFCURVE",
"117 219 CURVE SMOOTH",
"117 393 OFFCURVE",
"205 583 OFFCURVE",
"383 583 CURVE SMOOTH",
"431 583 OFFCURVE",
"458 579 OFFCURVE",
"484 571 CURVE",
"483 475 LINE",
"511 475 LINE",
"544 598 LINE",
"509 613 OFFCURVE",
"464 625 OFFCURVE",
"384 625 CURVE SMOOTH",
"180 625 OFFCURVE",
"43 431 OFFCURVE",
"43 210 CURVE SMOOTH",
"43 93 OFFCURVE",
"100 0 OFFCURVE",
"238 -8 CURVE",
"209 -64 LINE",
"210 -70 LINE",
"267 -70 OFFCURVE",
"283 -93 OFFCURVE",
"283 -116 CURVE SMOOTH",
"283 -158 OFFCURVE",
"242 -195 OFFCURVE",
"186 -195 CURVE SMOOTH",
"175 -195 OFFCURVE",
"161 -194 OFFCURVE",
"147 -189 CURVE",
"133 -214 LINE",
"149 -218 OFFCURVE",
"166 -219 OFFCURVE",
"182 -219 CURVE SMOOTH"
);
}
);
};
components = (
{
name = C;
},
{
name = cedillacomb.case;
transform = "{1, 0, 0, 1, 212, 0}";
}
);
layerId = "44981724-2b4e-42be-8f7f-300520b6a406";
width = 524;
},
{
background = {
paths = (
{
closed = 1;
nodes = (
"266 -220 OFFCURVE",
"348 -187 OFFCURVE",
"348 -108 CURVE SMOOTH",
"348 -73 OFFCURVE",
"321 -47 OFFCURVE",
"261 -47 CURVE",
"277 -10 LINE",
"349 -9 OFFCURVE",
"401 0 OFFCURVE",
"460 20 CURVE",
"485 164 LINE",
"421 164 LINE",
"385 76 LINE",
"356 67 OFFCURVE",
"334 66 OFFCURVE",
"308 66 CURVE SMOOTH",
"233 66 OFFCURVE",
"205 99 OFFCURVE",
"205 205 CURVE SMOOTH",
"205 361 OFFCURVE",
"242 554 OFFCURVE",
"381 554 CURVE SMOOTH",
"412 554 OFFCURVE",
"438 550 OFFCURVE",
"464 542 CURVE",
"470 438 LINE",
"531 438 LINE",
"573 604 LINE",
"528 618 OFFCURVE",
"468 629 OFFCURVE",
"398 629 CURVE SMOOTH",
"145 629 OFFCURVE",
"36 425 OFFCURVE",
"36 218 CURVE SMOOTH",
"36 76 OFFCURVE",
"88 5 OFFCURVE",
"226 -8 CURVE",
"189 -75 LINE",
"194 -98 LINE",
"226 -98 OFFCURVE",
"236 -112 OFFCURVE",
"236 -127 CURVE SMOOTH",
"236 -158 OFFCURVE",
"204 -171 OFFCURVE",
"188 -171 CURVE SMOOTH",
"169 -171 OFFCURVE",
"162 -168 OFFCURVE",
"156 -163 CURVE",
"139 -201 LINE",
"155 -210 OFFCURVE",
"173 -220 OFFCURVE",
"224 -220 CURVE SMOOTH"
);
}
);
};
components = (
{
name = C;
},
{
name = cedillacomb.case;
transform = "{1, 0, 0, 1, 218, 0}";
}
);
layerId = "8454c77d-11ac-4429-aa94-301a0d22d44f";
width = 526;
}
);
leftKerningGroup = O;
rightKerningGroup = C;
unicode = 00C7;
},
{
glyphname = D;
layers = (
{
anchors = (
{
name = bottom;
position = "{266, 0}";
},
{
name = center;
position = "{350, 306}";
},
{
name = top;
position = "{365, 611}";
}
);
background = {
paths = (
{
closed = 1;
nodes = (
"110 611 LINE",
"104 578 LINE",
"184 558 LINE",
"86 53 LINE",
"-2 33 LINE",
"-8 0 LINE",
"254 0 LINE SMOOTH",
"472 0 OFFCURVE",
"590 204 OFFCURVE",
"590 402 CURVE SMOOTH",
"590 531 OFFCURVE",
"520 611 OFFCURVE",
"362 611 CURVE SMOOTH"
);
},
{
closed = 1;
nodes = (
"454 564 OFFCURVE",
"502 506 OFFCURVE",
"502 401 CURVE SMOOTH",
"502 255 OFFCURVE",
"439 41 OFFCURVE",
"256 41 CURVE SMOOTH",
"223 41 OFFCURVE",
"187 49 OFFCURVE",
"165 58 CURVE",
"262 558 LINE",
"279 561 OFFCURVE",
"308 564 OFFCURVE",
"347 564 CURVE SMOOTH"
);
}
);
};
layerId = "27799D80-F866-457E-9382-0097DC0AFC53";
paths = (
{
closed = 1;
nodes = (
"254 0 LINE SMOOTH",
"472 0 OFFCURVE",
"590 204 OFFCURVE",
"590 402 CURVE SMOOTH",
"590 531 OFFCURVE",
"520 611 OFFCURVE",
"362 611 CURVE SMOOTH",
"110 611 LINE",
"104 578 LINE",
"184 558 LINE",
"86 53 LINE",
"-2 33 LINE",
"-8 0 LINE"
);
},
{
closed = 1;
nodes = (
"223 41 OFFCURVE",
"187 49 OFFCURVE",
"165 58 CURVE",
"262 558 LINE",
"279 561 OFFCURVE",
"308 564 OFFCURVE",
"347 564 CURVE SMOOTH",
"454 564 OFFCURVE",
"502 506 OFFCURVE",
"502 401 CURVE SMOOTH",
"502 255 OFFCURVE",
"439 41 OFFCURVE",
"256 41 CURVE SMOOTH"
);
}
);
width = 608;
},
{
anchors = (
{
name = bottom;
position = "{270, 0}";
},
{
name = center;
position = "{354, 307}";
},
{
name = top;
position = "{375, 614}";
}
);
background = {
paths = (
{
closed = 1;
nodes = (
"102 614 LINE",
"93 569 LINE",
"169 546 LINE",
"76 69 LINE",
"-8 45 LINE",
"-16 0 LINE",
"266 0 LINE SMOOTH",
"505 0 OFFCURVE",
"626 193 OFFCURVE",
"626 403 CURVE SMOOTH",
"626 531 OFFCURVE",
"548 614 OFFCURVE",
"373 614 CURVE SMOOTH"
);
},
{
closed = 1;
nodes = (
"305 547 LINE",
"316 550 OFFCURVE",
"331 553 OFFCURVE",
"356 553 CURVE SMOOTH",
"438 553 OFFCURVE",
"478 511 OFFCURVE",
"478 405 CURVE SMOOTH",
"478 246 OFFCURVE",
"416 61 OFFCURVE",
"283 61 CURVE SMOOTH",
"258 61 OFFCURVE",
"231 63 OFFCURVE",
"212 70 CURVE"
);
}
);
};
layerId = "91FB354D-039B-406A-8F87-4ABC8510003D";
paths = (
{
closed = 1;
nodes = (
"266 0 LINE SMOOTH",
"505 0 OFFCURVE",
"626 193 OFFCURVE",
"626 403 CURVE SMOOTH",
"626 531 OFFCURVE",
"548 614 OFFCURVE",
"373 614 CURVE SMOOTH",
"102 614 LINE",
"93 569 LINE",
"169 546 LINE",
"76 69 LINE",
"-8 45 LINE",
"-16 0 LINE"
);
},
{
closed = 1;
nodes = (
"258 61 OFFCURVE",
"231 63 OFFCURVE",
"212 70 CURVE",
"305 547 LINE",
"316 550 OFFCURVE",
"331 553 OFFCURVE",
"356 553 CURVE SMOOTH",
"438 553 OFFCURVE",
"478 511 OFFCURVE",
"478 405 CURVE SMOOTH",
"478 246 OFFCURVE",
"416 61 OFFCURVE",
"283 61 CURVE SMOOTH"
);
}
);
width = 639;
},
{
anchors = (
{
name = bottom;
position = "{264, 0}";
},
{
name = center;
position = "{348, 306}";
},
{
name = top;
position = "{363, 610}";
}
);
layerId = "44981724-2b4e-42be-8f7f-300520b6a406";
paths = (
{
closed = 1;
nodes = (
"250 0 LINE SMOOTH",
"462 0 OFFCURVE",
"580 207 OFFCURVE",
"580 402 CURVE SMOOTH",
"580 531 OFFCURVE",
"512 610 OFFCURVE",
"358 610 CURVE SMOOTH",
"112 610 LINE",
"106 580 LINE",
"187 561 LINE",
"88 49 LINE",
"-1 30 LINE",
"-6 0 LINE"
);
},
{
closed = 1;
nodes = (
"213 36 OFFCURVE",
"174 45 OFFCURVE",
"152 55 CURVE",
"250 561 LINE",
"268 564 OFFCURVE",
"301 567 OFFCURVE",
"344 567 CURVE SMOOTH",
"458 567 OFFCURVE",
"508 505 OFFCURVE",
"508 400 CURVE SMOOTH",
"508 257 OFFCURVE",
"445 36 OFFCURVE",
"248 36 CURVE SMOOTH"
);
}
);
width = 600;
},
{
anchors = (
{
name = bottom;
position = "{272, 0}";
},
{
name = center;
position = "{356, 307}";
},
{
name = top;
position = "{387, 615}";
}
);
layerId = "8454c77d-11ac-4429-aa94-301a0d22d44f";
paths = (
{
closed = 1;
nodes = (
"270 0 LINE SMOOTH",
"517 0 OFFCURVE",
"639 189 OFFCURVE",
"639 403 CURVE SMOOTH",
"639 531 OFFCURVE",
"558 615 OFFCURVE",
"377 615 CURVE SMOOTH",
"99 615 LINE",
"89 566 LINE",
"164 542 LINE",
"73 75 LINE",
"-10 49 LINE",
"-19 0 LINE"
);
},
{
closed = 1;
nodes = (
"271 67 OFFCURVE",
"246 67 OFFCURVE",
"228 73 CURVE",
"320 543 LINE",
"329 546 OFFCURVE",
"339 549 OFFCURVE",
"359 549 CURVE SMOOTH",
"432 549 OFFCURVE",
"470 513 OFFCURVE",
"470 406 CURVE SMOOTH",
"470 242 OFFCURVE",
"408 67 OFFCURVE",
"293 67 CURVE SMOOTH"
);
}
);
width = 651;
}
);
leftKerningGroup = H;
leftMetricsKey = H;
rightKerningGroup = O;
rightMetricsKey = O;
unicode = 0044;
},
{
glyphname = Eth;
layers = (
{
background = {
paths = (
{
closed = 1;
nodes = (
"46 277 LINE",
"127 277 LINE",
"84 53 LINE",
"-4 33 LINE",
"-10 0 LINE",
"252 0 LINE SMOOTH",
"470 0 OFFCURVE",
"588 204 OFFCURVE",
"588 402 CURVE SMOOTH",
"588 531 OFFCURVE",
"518 611 OFFCURVE",
"360 611 CURVE SMOOTH",
"108 611 LINE",
"102 578 LINE",
"182 558 LINE",
"136 323 LINE",
"55 323 LINE"
);
},
{
closed = 1;
nodes = (
"452 564 OFFCURVE",
"500 506 OFFCURVE",
"500 401 CURVE SMOOTH",
"500 255 OFFCURVE",
"437 41 OFFCURVE",
"254 41 CURVE SMOOTH",
"221 41 OFFCURVE",
"185 49 OFFCURVE",
"163 58 CURVE",
"205 277 LINE",
"317 277 LINE",
"326 323 LINE",
"214 323 LINE",
"260 558 LINE",
"277 561 OFFCURVE",
"306 564 OFFCURVE",
"345 564 CURVE SMOOTH"
);
}
);
};
layerId = "27799D80-F866-457E-9382-0097DC0AFC53";
paths = (
{
closed = 1;
nodes = (
"252 0 LINE SMOOTH",
"470 0 OFFCURVE",
"588 204 OFFCURVE",
"588 402 CURVE SMOOTH",
"588 531 OFFCURVE",
"518 611 OFFCURVE",
"360 611 CURVE SMOOTH",
"108 611 LINE",
"102 578 LINE",
"182 558 LINE",
"136 323 LINE",
"55 323 LINE",
"46 277 LINE",
"127 277 LINE",
"84 53 LINE",
"-4 33 LINE",
"-10 0 LINE"
);
},
{
closed = 1;
nodes = (
"221 41 OFFCURVE",
"185 49 OFFCURVE",
"163 58 CURVE",
"205 277 LINE",
"317 277 LINE",
"326 323 LINE",
"214 323 LINE",
"260 558 LINE",
"277 561 OFFCURVE",
"306 564 OFFCURVE",
"345 564 CURVE SMOOTH",
"452 564 OFFCURVE",
"500 506 OFFCURVE",
"500 401 CURVE SMOOTH",
"500 255 OFFCURVE",
"437 41 OFFCURVE",
"254 41 CURVE SMOOTH"
);
}
);
width = 606;
},
{
background = {
paths = (
{
closed = 1;
nodes = (
"61 274 LINE",
"122 274 LINE",
"82 69 LINE",
"-2 45 LINE",
"-10 0 LINE",
"272 0 LINE SMOOTH",
"511 0 OFFCURVE",
"632 193 OFFCURVE",
"632 403 CURVE SMOOTH",
"632 531 OFFCURVE",
"554 614 OFFCURVE",
"379 614 CURVE SMOOTH",
"108 614 LINE",
"99 569 LINE",
"175 546 LINE",
"133 330 LINE",
"72 330 LINE"
);
},
{
closed = 1;
nodes = (
"258 274 LINE",
"342 274 LINE",
"353 330 LINE",
"269 330 LINE",
"311 547 LINE",
"322 550 OFFCURVE",
"337 553 OFFCURVE",
"362 553 CURVE SMOOTH",
"444 553 OFFCURVE",
"484 511 OFFCURVE",
"484 405 CURVE SMOOTH",
"484 246 OFFCURVE",
"422 61 OFFCURVE",
"289 61 CURVE SMOOTH",
"264 61 OFFCURVE",
"237 63 OFFCURVE",
"218 70 CURVE"
);
}
);
};
layerId = "91FB354D-039B-406A-8F87-4ABC8510003D";
paths = (
{
closed = 1;
nodes = (
"272 0 LINE SMOOTH",
"511 0 OFFCURVE",
"632 193 OFFCURVE",
"632 403 CURVE SMOOTH",
"632 531 OFFCURVE",
"554 614 OFFCURVE",
"379 614 CURVE SMOOTH",
"108 614 LINE",
"99 569 LINE",
"175 546 LINE",
"133 330 LINE",
"72 330 LINE",
"61 274 LINE",
"122 274 LINE",
"82 69 LINE",
"-2 45 LINE",
"-10 0 LINE"
);
},
{
closed = 1;
nodes = (
"264 61 OFFCURVE",
"237 63 OFFCURVE",
"218 70 CURVE",
"258 274 LINE",
"342 274 LINE",
"353 330 LINE",
"269 330 LINE",
"311 547 LINE",
"322 550 OFFCURVE",
"337 553 OFFCURVE",
"362 553 CURVE SMOOTH",
"444 553 OFFCURVE",
"484 511 OFFCURVE",
"484 405 CURVE SMOOTH",
"484 246 OFFCURVE",
"422 61 OFFCURVE",
"289 61 CURVE SMOOTH"
);
}
);
width = 645;
},
{
layerId = "44981724-2b4e-42be-8f7f-300520b6a406";
paths = (
{
closed = 1;
nodes = (
"247 0 LINE SMOOTH",
"459 0 OFFCURVE",
"576 207 OFFCURVE",
"576 402 CURVE SMOOTH",
"576 531 OFFCURVE",
"508 610 OFFCURVE",
"355 610 CURVE SMOOTH",
"108 610 LINE",
"103 580 LINE",
"184 561 LINE",
"137 321 LINE",
"50 321 LINE",
"42 278 LINE",
"128 278 LINE",
"85 49 LINE",
"-5 30 LINE",
"-10 0 LINE"
);
},
{
closed = 1;
nodes = (
"209 36 OFFCURVE",
"171 45 OFFCURVE",
"148 55 CURVE",
"191 278 LINE",
"310 278 LINE",
"319 321 LINE",
"199 321 LINE",
"246 561 LINE",
"265 564 OFFCURVE",
"298 567 OFFCURVE",
"340 567 CURVE SMOOTH",
"454 567 OFFCURVE",
"504 505 OFFCURVE",
"504 400 CURVE SMOOTH",
"504 257 OFFCURVE",
"441 36 OFFCURVE",
"245 36 CURVE SMOOTH"
);
}
);
width = 596;
},
{
layerId = "8454c77d-11ac-4429-aa94-301a0d22d44f";
paths = (
{
closed = 1;
nodes = (
"279 0 LINE SMOOTH",
"526 0 OFFCURVE",
"648 189 OFFCURVE",
"648 403 CURVE SMOOTH",
"648 531 OFFCURVE",
"567 615 OFFCURVE",
"386 615 CURVE SMOOTH",
"108 615 LINE",
"98 566 LINE",
"173 542 LINE",
"132 332 LINE",
"78 332 LINE",
"66 273 LINE",
"120 273 LINE",
"81 75 LINE",
"-1 49 LINE",
"-10 0 LINE"
);
},
{
closed = 1;
nodes = (
"279 68 OFFCURVE",
"255 68 OFFCURVE",
"237 74 CURVE",
"277 273 LINE",
"351 273 LINE",
"363 332 LINE",
"288 332 LINE",
"329 543 LINE",
"338 546 OFFCURVE",
"348 549 OFFCURVE",
"368 549 CURVE SMOOTH",
"441 549 OFFCURVE",
"478 513 OFFCURVE",
"478 406 CURVE SMOOTH",
"478 243 OFFCURVE",
"417 68 OFFCURVE",
"301 68 CURVE SMOOTH"
);
}
);
width = 660;
}
);
leftKerningGroup = H;
rightKerningGroup = O;
rightMetricsKey = O;
unicode = 00D0;
},
{
glyphname = Dcaron;
layers = (
{
background = {
paths = (
{
closed = 1;
nodes = (
"258 0 LINE SMOOTH",
"476 0 OFFCURVE",
"594 204 OFFCURVE",
"594 402 CURVE SMOOTH",
"594 531 OFFCURVE",
"524 611 OFFCURVE",
"366 611 CURVE SMOOTH",
"114 611 LINE",
"108 578 LINE",
"188 558 LINE",
"90 53 LINE",
"2 33 LINE",
"-4 0 LINE"
);
},
{
closed = 1;
nodes = (
"227 41 OFFCURVE",
"191 49 OFFCURVE",
"169 58 CURVE",
"266 558 LINE",
"283 561 OFFCURVE",
"312 564 OFFCURVE",
"351 564 CURVE SMOOTH",
"458 564 OFFCURVE",
"506 506 OFFCURVE",
"506 401 CURVE SMOOTH",
"506 255 OFFCURVE",
"443 41 OFFCURVE",
"260 41 CURVE SMOOTH"
);
},
{
closed = 1;
nodes = (
"384 651 LINE",
"514 786 LINE",
"494 805 LINE",
"364 722 LINE",
"262 804 LINE",
"235 786 LINE",
"324 651 LINE"
);
}
);
};
components = (
{
name = D;
},
{
name = caroncomb.case;
transform = "{1, 0, 0, 1, 142, 0}";
}
);
layerId = "27799D80-F866-457E-9382-0097DC0AFC53";
width = 608;
},
{
background = {
paths = (
{
closed = 1;
nodes = (
"269 0 LINE SMOOTH",
"508 0 OFFCURVE",
"629 193 OFFCURVE",
"629 403 CURVE SMOOTH",
"629 531 OFFCURVE",
"551 614 OFFCURVE",
"376 614 CURVE SMOOTH",
"105 614 LINE",
"96 569 LINE",
"172 546 LINE",
"79 69 LINE",
"-5 45 LINE",
"-13 0 LINE"
);
},
{
closed = 1;
nodes = (
"261 61 OFFCURVE",
"234 63 OFFCURVE",
"215 70 CURVE",
"308 547 LINE",
"319 550 OFFCURVE",
"334 553 OFFCURVE",
"359 553 CURVE SMOOTH",
"441 553 OFFCURVE",
"481 511 OFFCURVE",
"481 405 CURVE SMOOTH",
"481 246 OFFCURVE",
"419 61 OFFCURVE",
"286 61 CURVE SMOOTH"
);
},
{
closed = 1;
nodes = (
"417 639 LINE",
"545 765 LINE",
"522 795 LINE",
"388 727 LINE",
"280 795 LINE",
"250 769 LINE",
"332 639 LINE"
);
}
);
};
components = (
{
name = D;
},
{
name = caroncomb.case;
transform = "{1, 0, 0, 1, 154, 0}";
}
);
layerId = "91FB354D-039B-406A-8F87-4ABC8510003D";
width = 639;
},
{
background = {
paths = (
{
closed = 1;
nodes = (
"255 0 LINE SMOOTH",
"467 0 OFFCURVE",
"585 207 OFFCURVE",
"585 402 CURVE SMOOTH",
"585 531 OFFCURVE",
"517 610 OFFCURVE",
"363 610 CURVE SMOOTH",
"116 610 LINE",
"111 580 LINE",
"192 561 LINE",
"93 49 LINE",
"4 30 LINE",
"-2 0 LINE"
);
},
{
closed = 1;
nodes = (
"218 36 OFFCURVE",
"179 45 OFFCURVE",
"157 55 CURVE",
"255 561 LINE",
"273 564 OFFCURVE",
"306 567 OFFCURVE",
"349 567 CURVE SMOOTH",
"463 567 OFFCURVE",
"513 505 OFFCURVE",
"513 400 CURVE SMOOTH",
"513 257 OFFCURVE",
"450 36 OFFCURVE",
"253 36 CURVE SMOOTH"
);
},
{
closed = 1;
nodes = (
"375 654 LINE",
"506 792 LINE",
"486 808 LINE",
"358 721 LINE",
"257 806 LINE",
"231 791 LINE",
"322 654 LINE"
);
}
);
};
components = (
{
name = D;
},
{
name = caroncomb.case;
transform = "{1, 0, 0, 1, 146, 0}";
}
);
layerId = "44981724-2b4e-42be-8f7f-300520b6a406";
width = 600;
},
{
background = {
paths = (
{
closed = 1;
nodes = (
"273 0 LINE SMOOTH",
"519 0 OFFCURVE",
"641 189 OFFCURVE",
"641 403 CURVE SMOOTH",
"641 531 OFFCURVE",
"561 615 OFFCURVE",
"380 615 CURVE SMOOTH",
"102 615 LINE",
"92 566 LINE",
"166 542 LINE",
"75 75 LINE",
"-7 49 LINE",
"-16 0 LINE"
);
},
{
closed = 1;
nodes = (
"273 68 OFFCURVE",
"249 68 OFFCURVE",
"231 74 CURVE",
"323 543 LINE",
"332 546 OFFCURVE",
"342 549 OFFCURVE",
"362 549 CURVE SMOOTH",
"435 549 OFFCURVE",
"472 513 OFFCURVE",
"472 406 CURVE SMOOTH",
"472 243 OFFCURVE",
"411 68 OFFCURVE",
"295 68 CURVE SMOOTH"
);
},
{
closed = 1;
nodes = (
"429 635 LINE",
"556 758 LINE",
"532 791 LINE",
"397 729 LINE",
"286 792 LINE",
"255 763 LINE",
"335 635 LINE"
);
}
);
};
components = (
{
name = D;
},
{
name = caroncomb.case;
transform = "{1, 0, 0, 1, 156, 0}";
}
);
layerId = "8454c77d-11ac-4429-aa94-301a0d22d44f";
width = 651;
}
);
leftKerningGroup = H;
rightKerningGroup = O;
unicode = 010E;
},
{
glyphname = Dcroat;
layers = (
{
background = {
paths = (
{
closed = 1;
nodes = (
"258 0 LINE SMOOTH",
"476 0 OFFCURVE",
"594 204 OFFCURVE",
"594 402 CURVE SMOOTH",
"594 531 OFFCURVE",
"524 611 OFFCURVE",
"366 611 CURVE SMOOTH",
"114 611 LINE",
"108 578 LINE",
"188 558 LINE",
"142 323 LINE",
"61 323 LINE",
"52 277 LINE",
"133 277 LINE",
"90 53 LINE",
"2 33 LINE",
"-4 0 LINE"
);
},
{
closed = 1;
nodes = (
"227 41 OFFCURVE",
"191 49 OFFCURVE",
"169 58 CURVE",
"211 277 LINE",
"322 277 LINE",
"331 323 LINE",
"220 323 LINE",
"266 558 LINE",
"283 561 OFFCURVE",
"312 564 OFFCURVE",
"351 564 CURVE SMOOTH",
"458 564 OFFCURVE",
"506 506 OFFCURVE",
"506 401 CURVE SMOOTH",
"506 255 OFFCURVE",
"443 41 OFFCURVE",
"260 41 CURVE SMOOTH"
);
}
);
};
components = (
{
name = Eth;
}
);
layerId = "27799D80-F866-457E-9382-0097DC0AFC53";
width = 606;
},
{
background = {
paths = (
{
closed = 1;
nodes = (
"272 0 LINE SMOOTH",
"511 0 OFFCURVE",
"632 193 OFFCURVE",
"632 403 CURVE SMOOTH",
"632 531 OFFCURVE",
"554 614 OFFCURVE",
"379 614 CURVE SMOOTH",
"108 614 LINE",
"99 569 LINE",
"175 546 LINE",
"133 330 LINE",
"72 330 LINE",
"61 274 LINE",
"122 274 LINE",
"82 69 LINE",
"-2 45 LINE",
"-10 0 LINE"
);
},
{
closed = 1;
nodes = (
"264 61 OFFCURVE",
"237 63 OFFCURVE",
"218 70 CURVE",
"258 274 LINE",
"342 274 LINE",
"353 330 LINE",
"269 330 LINE",
"311 547 LINE",
"322 550 OFFCURVE",
"337 553 OFFCURVE",
"362 553 CURVE SMOOTH",
"444 553 OFFCURVE",
"484 511 OFFCURVE",
"484 405 CURVE SMOOTH",
"484 246 OFFCURVE",
"422 61 OFFCURVE",
"289 61 CURVE SMOOTH"
);
}
);
};
components = (
{
name = Eth;
}
);
layerId = "91FB354D-039B-406A-8F87-4ABC8510003D";
width = 645;
},
{
background = {
paths = (
{
closed = 1;
nodes = (
"254 0 LINE SMOOTH",
"467 0 OFFCURVE",
"584 207 OFFCURVE",
"584 402 CURVE SMOOTH",
"584 531 OFFCURVE",
"516 610 OFFCURVE",
"362 610 CURVE SMOOTH",
"116 610 LINE",
"110 580 LINE",
"192 561 LINE",
"144 321 LINE",
"58 321 LINE",
"50 278 LINE",
"136 278 LINE",
"92 49 LINE",
"3 30 LINE",
"-2 0 LINE"
);
},
{
closed = 1;
nodes = (
"217 36 OFFCURVE",
"179 45 OFFCURVE",
"156 55 CURVE",
"198 278 LINE",
"317 278 LINE",
"325 321 LINE",
"207 321 LINE",
"254 561 LINE",
"272 564 OFFCURVE",
"305 567 OFFCURVE",
"348 567 CURVE SMOOTH",
"462 567 OFFCURVE",
"512 505 OFFCURVE",
"512 400 CURVE SMOOTH",
"512 257 OFFCURVE",
"449 36 OFFCURVE",
"252 36 CURVE SMOOTH"
);
}
);
};
components = (
{
alignment = -1;
name = Eth;
}
);
layerId = "44981724-2b4e-42be-8f7f-300520b6a406";
width = 617;
},
{
background = {
paths = (
{
closed = 1;
nodes = (
"277 0 LINE SMOOTH",
"523 0 OFFCURVE",
"645 189 OFFCURVE",
"645 403 CURVE SMOOTH",
"645 531 OFFCURVE",
"565 615 OFFCURVE",
"384 615 CURVE SMOOTH",
"106 615 LINE",
"96 566 LINE",
"170 542 LINE",
"130 332 LINE",
"76 332 LINE",
"64 273 LINE",
"118 273 LINE",
"79 75 LINE",
"-3 49 LINE",
"-12 0 LINE"
);
},
{
closed = 1;
nodes = (
"277 68 OFFCURVE",
"253 68 OFFCURVE",
"235 74 CURVE",
"275 273 LINE",
"349 273 LINE",
"361 332 LINE",
"286 332 LINE",
"327 543 LINE",
"336 546 OFFCURVE",
"346 549 OFFCURVE",
"366 549 CURVE SMOOTH",
"439 549 OFFCURVE",
"476 513 OFFCURVE",
"476 406 CURVE SMOOTH",
"476 243 OFFCURVE",
"415 68 OFFCURVE",
"299 68 CURVE SMOOTH"
);
}
);
};
components = (
{
name = Eth;
}
);
layerId = "8454c77d-11ac-4429-aa94-301a0d22d44f";
width = 660;
}
);
leftKerningGroup = H;
rightKerningGroup = O;
unicode = 0110;
},
{
glyphname = E;
layers = (
{
anchors = (
{
name = bottom;
position = "{251, 0}";
},
{
name = ogonek;
position = "{458, 10}";
},
{
name = top;
position = "{342, 611}";
}
);
background = {
paths = (
{
closed = 1;
nodes = (
"358 323 LINE",
"222 323 LINE",
"267 559 LINE",
"456 559 LINE",
"456 479 LINE",
"494 479 LINE",
"519 611 LINE",
"110 611 LINE",
"104 578 LINE",
"189 558 LINE",
"91 53 LINE",
"-2 33 LINE",
"-8 0 LINE",
"424 0 LINE",
"452 147 LINE",
"415 147 LINE",
"373 56 LINE",
"170 56 LINE",
"213 277 LINE",
"346 277 LINE",
"356 208 LINE",
"390 208 LINE",
"425 389 LINE",
"391 389 LINE"
);
}
);
};
layerId = "27799D80-F866-457E-9382-0097DC0AFC53";
paths = (
{
closed = 1;
nodes = (
"424 0 LINE",
"452 147 LINE",
"415 147 LINE",
"373 56 LINE",
"170 56 LINE",
"213 277 LINE",
"346 277 LINE",
"356 208 LINE",
"390 208 LINE",
"425 389 LINE",
"391 389 LINE",
"358 323 LINE",
"222 323 LINE",
"267 559 LINE",
"456 559 LINE",
"456 479 LINE",
"494 479 LINE",
"519 611 LINE",
"110 611 LINE",
"104 578 LINE",
"189 558 LINE",
"91 53 LINE",
"-2 33 LINE",
"-8 0 LINE"
);
}
);
width = 517;
},
{
anchors = (
{
name = bottom;
position = "{255, 0}";
},
{
name = ogonek;
position = "{502, 10}";
},
{
name = top;
position = "{355, 614}";
}
);
background = {
paths = (
{
closed = 1;
nodes = (
"367 337 LINE",
"264 337 LINE",
"305 546 LINE",
"463 546 LINE",
"468 468 LINE",
"521 468 LINE",
"549 614 LINE",
"102 614 LINE",
"93 569 LINE",
"169 546 LINE",
"76 69 LINE",
"-8 45 LINE",
"-16 0 LINE",
"449 0 LINE",
"480 162 LINE",
"427 162 LINE",
"385 69 LINE",
"212 69 LINE",
"253 281 LINE",
"354 281 LINE",
"359 212 LINE",
"409 212 LINE",
"446 403 LINE",
"396 403 LINE"
);
}
);
};
layerId = "91FB354D-039B-406A-8F87-4ABC8510003D";
paths = (
{
closed = 1;
nodes = (
"449 0 LINE",
"480 162 LINE",
"427 162 LINE",
"385 69 LINE",
"212 69 LINE",
"253 281 LINE",
"354 281 LINE",
"359 212 LINE",
"409 212 LINE",
"446 403 LINE",
"396 403 LINE",
"367 337 LINE",
"264 337 LINE",
"305 546 LINE",
"463 546 LINE",
"468 468 LINE",
"521 468 LINE",
"549 614 LINE",
"102 614 LINE",
"93 569 LINE",
"169 546 LINE",
"76 69 LINE",
"-8 45 LINE",
"-16 0 LINE"
);
}
);
width = 524;
},
{
anchors = (
{
name = bottom;
position = "{245, 0}";
},
{
name = ogonek;
position = "{447, 10}";
},
{
name = top;
position = "{340, 610}";
}
);
layerId = "44981724-2b4e-42be-8f7f-300520b6a406";
paths = (
{
closed = 1;
nodes = (
"417 0 LINE",
"444 143 LINE",
"411 143 LINE",
"369 52 LINE",
"158 52 LINE",
"202 276 LINE",
"343 276 LINE",
"355 207 LINE",
"384 207 LINE",
"419 385 LINE",
"389 385 LINE",
"355 319 LINE",
"210 319 LINE",
"256 563 LINE",
"453 563 LINE",
"452 482 LINE",
"486 482 LINE",
"510 610 LINE",
"112 610 LINE",
"106 580 LINE",
"194 561 LINE",
"94 49 LINE",
"-1 30 LINE",
"-6 0 LINE"
);
}
);
width = 515;
},
{
anchors = (
{
name = bottom;
position = "{256, 0}";
},
{
name = ogonek;
position = "{517, 10}";
},
{
name = top;
position = "{362, 615}";
}
);
layerId = "8454c77d-11ac-4429-aa94-301a0d22d44f";
paths = (
{
closed = 1;
nodes = (
"458 0 LINE",
"490 167 LINE",
"431 167 LINE",
"389 74 LINE",
"227 74 LINE",
"267 282 LINE",
"357 282 LINE",
"360 213 LINE",
"416 213 LINE",
"454 408 LINE",
"398 408 LINE",
"370 342 LINE",
"279 342 LINE",
"319 541 LINE",
"466 541 LINE",
"472 464 LINE",
"531 464 LINE",
"560 615 LINE",
"99 615 LINE",
"89 566 LINE",
"162 542 LINE",
"71 75 LINE",
"-10 49 LINE",
"-19 0 LINE"
);
}
);
width = 526;
}
);
leftKerningGroup = H;
leftMetricsKey = H;
rightKerningGroup = E;
unicode = 0045;
},
{
glyphname = Eacute;
layers = (
{
background = {
paths = (
{
closed = 1;
nodes = (
"421 0 LINE",
"449 147 LINE",
"412 147 LINE",
"370 56 LINE",
"167 56 LINE",
"210 277 LINE",
"343 277 LINE",
"353 208 LINE",
"387 208 LINE",
"422 389 LINE",
"388 389 LINE",
"355 323 LINE",
"219 323 LINE",
"264 559 LINE",
"453 559 LINE",
"453 479 LINE",
"491 479 LINE",
"516 611 LINE",
"107 611 LINE",
"101 578 LINE",
"186 558 LINE",
"88 53 LINE",
"-5 33 LINE",
"-11 0 LINE"
);
},
{
closed = 1;
nodes = (
"479 754 LINE",
"479 772 LINE",
"403 800 LINE",
"249 670 LINE",
"265 651 LINE"
);
}
);
};
components = (
{
name = E;
},
{
name = acutecomb.case;
transform = "{1, 0, 0, 1, 182, 0}";
}
);
layerId = "27799D80-F866-457E-9382-0097DC0AFC53";
width = 517;
},
{
background = {
paths = (
{
closed = 1;
nodes = (
"452 0 LINE",
"483 162 LINE",
"430 162 LINE",
"388 69 LINE",
"215 69 LINE",
"256 281 LINE",
"357 281 LINE",
"362 212 LINE",
"412 212 LINE",
"449 403 LINE",
"399 403 LINE",
"370 337 LINE",
"267 337 LINE",
"308 546 LINE",
"466 546 LINE",
"471 468 LINE",
"524 468 LINE",
"552 614 LINE",
"105 614 LINE",
"96 569 LINE",
"172 546 LINE",
"79 69 LINE",
"-5 45 LINE",
"-13 0 LINE"
);
},
{
closed = 1;
nodes = (
"506 743 LINE",
"506 766 LINE",
"407 800 LINE",
"251 669 LINE",
"278 634 LINE"
);
}
);
};
components = (
{
name = E;
},
{
name = acutecomb.case;
transform = "{1, 0, 0, 1, 183, 0}";
}
);
layerId = "91FB354D-039B-406A-8F87-4ABC8510003D";
width = 524;
},
{
background = {
paths = (
{
closed = 1;
nodes = (
"413 0 LINE",
"440 143 LINE",
"407 143 LINE",
"365 52 LINE",
"154 52 LINE",
"197 276 LINE",
"339 276 LINE",
"350 207 LINE",
"380 207 LINE",
"415 385 LINE",
"385 385 LINE",
"351 319 LINE",
"206 319 LINE",
"252 563 LINE",
"449 563 LINE",
"448 482 LINE",
"482 482 LINE",
"506 610 LINE",
"107 610 LINE",
"102 580 LINE",
"190 561 LINE",
"90 49 LINE",
"-5 30 LINE",
"-11 0 LINE"
);
},
{
closed = 1;
nodes = (
"472 757 LINE",
"472 774 LINE",
"402 800 LINE",
"248 670 LINE",
"261 656 LINE"
);
}
);
};
components = (
{
name = E;
},
{
name = acutecomb.case;
transform = "{1, 0, 0, 1, 189, 0}";
}
);
layerId = "44981724-2b4e-42be-8f7f-300520b6a406";
width = 515;
},
{
background = {
paths = (
{
closed = 1;
nodes = (
"463 0 LINE",
"495 167 LINE",
"436 167 LINE",
"394 74 LINE",
"232 74 LINE",
"272 282 LINE",
"361 282 LINE",
"365 213 LINE",
"420 213 LINE",
"458 408 LINE",
"402 408 LINE",
"375 342 LINE",
"284 342 LINE",
"323 541 LINE",
"470 541 LINE",
"477 464 LINE",
"535 464 LINE",
"564 615 LINE",
"104 615 LINE",
"94 566 LINE",
"167 542 LINE",
"75 75 LINE",
"-5 49 LINE",
"-14 0 LINE"
);
},
{
closed = 1;
nodes = (
"515 739 LINE",
"515 764 LINE",
"408 800 LINE",
"251 669 LINE",
"282 628 LINE"
);
}
);
};
components = (
{
name = E;
},
{
name = acutecomb.case;
transform = "{1, 0, 0, 1, 179, 0}";
}
);
layerId = "8454c77d-11ac-4429-aa94-301a0d22d44f";
width = 526;
}
);
leftKerningGroup = H;
rightKerningGroup = E;
unicode = 00C9;
},
{
glyphname = Ecaron;
layers = (
{
background = {
paths = (
{
closed = 1;
nodes = (
"420 0 LINE",
"448 147 LINE",
"411 147 LINE",
"369 56 LINE",
"166 56 LINE",
"209 277 LINE",
"342 277 LINE",
"352 208 LINE",
"386 208 LINE",
"421 389 LINE",
"387 389 LINE",
"354 323 LINE",
"218 323 LINE",
"263 559 LINE",
"452 559 LINE",
"452 479 LINE",
"490 479 LINE",
"515 611 LINE",
"106 611 LINE",
"100 578 LINE",
"185 558 LINE",
"87 53 LINE",
"-6 33 LINE",
"-12 0 LINE"
);
},
{
closed = 1;
nodes = (
"366 651 LINE",
"496 786 LINE",
"476 805 LINE",
"346 722 LINE",
"244 804 LINE",
"217 786 LINE",
"306 651 LINE"
);
}
);
};
components = (
{
name = E;
},
{
name = caroncomb.case;
transform = "{1, 0, 0, 1, 119, 0}";
}
);
layerId = "27799D80-F866-457E-9382-0097DC0AFC53";
width = 517;
},
{
background = {
paths = (
{
closed = 1;
nodes = (
"450 0 LINE",
"481 162 LINE",
"428 162 LINE",
"386 69 LINE",
"213 69 LINE",
"254 281 LINE",
"355 281 LINE",
"360 212 LINE",
"410 212 LINE",
"447 403 LINE",
"397 403 LINE",
"368 337 LINE",
"265 337 LINE",
"306 546 LINE",
"464 546 LINE",
"469 468 LINE",
"522 468 LINE",
"550 614 LINE",
"103 614 LINE",
"94 569 LINE",
"170 546 LINE",
"77 69 LINE",
"-7 45 LINE",
"-15 0 LINE"
);
},
{
closed = 1;
nodes = (
"391 639 LINE",
"519 765 LINE",
"496 795 LINE",
"362 727 LINE",
"254 795 LINE",
"224 769 LINE",
"306 639 LINE"
);
}
);
};
components = (
{
name = E;
},
{
name = caroncomb.case;
transform = "{1, 0, 0, 1, 134, 0}";
}
);
layerId = "91FB354D-039B-406A-8F87-4ABC8510003D";
width = 524;
},
{
background = {
paths = (
{
closed = 1;
nodes = (
"412 0 LINE",
"439 143 LINE",
"406 143 LINE",
"364 52 LINE",
"153 52 LINE",
"196 276 LINE",
"338 276 LINE",
"349 207 LINE",
"379 207 LINE",
"414 385 LINE",
"384 385 LINE",
"350 319 LINE",
"205 319 LINE",
"251 563 LINE",
"448 563 LINE",
"447 482 LINE",
"481 482 LINE",
"505 610 LINE",
"106 610 LINE",
"101 580 LINE",
"189 561 LINE",
"89 49 LINE",
"-6 30 LINE",
"-12 0 LINE"
);
},
{
closed = 1;
nodes = (
"359 654 LINE",
"489 792 LINE",
"470 808 LINE",
"341 721 LINE",
"241 806 LINE",
"215 791 LINE",
"306 654 LINE"
);
}
);
};
components = (
{
name = E;
},
{
name = caroncomb.case;
transform = "{1, 0, 0, 1, 123, 0}";
}
);
layerId = "44981724-2b4e-42be-8f7f-300520b6a406";
width = 515;
},
{
background = {
paths = (
{
closed = 1;
nodes = (
"462 0 LINE",
"494 167 LINE",
"435 167 LINE",
"393 74 LINE",
"231 74 LINE",
"271 282 LINE",
"360 282 LINE",
"364 213 LINE",
"419 213 LINE",
"457 408 LINE",
"401 408 LINE",
"374 342 LINE",
"283 342 LINE",
"322 541 LINE",
"469 541 LINE",
"476 464 LINE",
"534 464 LINE",
"563 615 LINE",
"103 615 LINE",
"93 566 LINE",
"166 542 LINE",
"74 75 LINE",
"-6 49 LINE",
"-15 0 LINE"
);
},
{
closed = 1;
nodes = (
"401 635 LINE",
"528 758 LINE",
"504 791 LINE",
"369 729 LINE",
"258 792 LINE",
"227 763 LINE",
"307 635 LINE"
);
}
);
};
components = (
{
name = E;
},
{
name = caroncomb.case;
transform = "{1, 0, 0, 1, 131, 0}";
}
);
layerId = "8454c77d-11ac-4429-aa94-301a0d22d44f";
width = 526;
}
);
leftKerningGroup = H;
rightKerningGroup = E;
unicode = 011A;
},
{
glyphname = Ecircumflex;
layers = (
{
background = {
paths = (
{
closed = 1;
nodes = (
"420 0 LINE",
"448 147 LINE",
"411 147 LINE",
"369 56 LINE",
"166 56 LINE",
"209 277 LINE",
"342 277 LINE",
"352 208 LINE",
"386 208 LINE",
"421 389 LINE",
"387 389 LINE",
"354 323 LINE",
"218 323 LINE",
"263 559 LINE",
"452 559 LINE",
"452 479 LINE",
"490 479 LINE",
"515 611 LINE",
"106 611 LINE",
"100 578 LINE",
"185 558 LINE",
"87 53 LINE",
"-6 33 LINE",
"-12 0 LINE"
);
},
{
closed = 1;
nodes = (
"344 735 LINE",
"438 650 LINE",
"464 669 LINE",
"385 804 LINE",
"325 804 LINE",
"186 669 LINE",
"206 650 LINE"
);
}
);
};
components = (
{
name = E;
},
{
name = circumflexcomb.case;
transform = "{1, 0, 0, 1, 133, 0}";
}
);
layerId = "27799D80-F866-457E-9382-0097DC0AFC53";
width = 517;
},
{
background = {
paths = (
{
closed = 1;
nodes = (
"452 0 LINE",
"483 162 LINE",
"430 162 LINE",
"388 69 LINE",
"215 69 LINE",
"256 281 LINE",
"357 281 LINE",
"362 212 LINE",
"412 212 LINE",
"449 403 LINE",
"399 403 LINE",
"370 337 LINE",
"267 337 LINE",
"308 546 LINE",
"466 546 LINE",
"471 468 LINE",
"524 468 LINE",
"552 614 LINE",
"105 614 LINE",
"96 569 LINE",
"172 546 LINE",
"79 69 LINE",
"-5 45 LINE",
"-13 0 LINE"
);
},
{
closed = 1;
nodes = (
"358 707 LINE",
"466 639 LINE",
"496 665 LINE",
"414 795 LINE",
"329 795 LINE",
"201 669 LINE",
"224 639 LINE"
);
}
);
};
components = (
{
name = E;
},
{
name = circumflexcomb.case;
transform = "{1, 0, 0, 1, 154, 0}";
}
);
layerId = "91FB354D-039B-406A-8F87-4ABC8510003D";
width = 524;
},
{
background = {
paths = (
{
closed = 1;
nodes = (
"412 0 LINE",
"439 143 LINE",
"406 143 LINE",
"364 52 LINE",
"153 52 LINE",
"196 276 LINE",
"338 276 LINE",
"349 207 LINE",
"379 207 LINE",
"414 385 LINE",
"384 385 LINE",
"350 319 LINE",
"205 319 LINE",
"251 563 LINE",
"448 563 LINE",
"447 482 LINE",
"481 482 LINE",
"505 610 LINE",
"106 610 LINE",
"101 580 LINE",
"189 561 LINE",
"89 49 LINE",
"-6 30 LINE",
"-12 0 LINE"
);
},
{
closed = 1;
nodes = (
"340 743 LINE",
"431 653 LINE",
"455 670 LINE",
"377 806 LINE",
"324 806 LINE",
"182 669 LINE",
"201 653 LINE"
);
}
);
};
components = (
{
name = E;
},
{
name = circumflexcomb.case;
transform = "{1, 0, 0, 1, 132, 0}";
}
);
layerId = "44981724-2b4e-42be-8f7f-300520b6a406";
width = 515;
},
{
background = {
paths = (
{
closed = 1;
nodes = (
"461 0 LINE",
"493 167 LINE",
"434 167 LINE",
"392 74 LINE",
"230 74 LINE",
"270 282 LINE",
"359 282 LINE",
"363 213 LINE",
"418 213 LINE",
"456 408 LINE",
"400 408 LINE",
"373 342 LINE",
"282 342 LINE",
"321 541 LINE",
"468 541 LINE",
"475 464 LINE",
"533 464 LINE",
"562 615 LINE",
"102 615 LINE",
"92 566 LINE",
"165 542 LINE",
"73 75 LINE",
"-7 49 LINE",
"-16 0 LINE"
);
},
{
closed = 1;
nodes = (
"360 697 LINE",
"473 635 LINE",
"505 664 LINE",
"421 792 LINE",
"328 792 LINE",
"203 669 LINE",
"228 635 LINE"
);
}
);
};
components = (
{
name = E;
},
{
name = circumflexcomb.case;
transform = "{1, 0, 0, 1, 160, 0}";
}
);
layerId = "8454c77d-11ac-4429-aa94-301a0d22d44f";
width = 526;
}
);
leftKerningGroup = H;
rightKerningGroup = E;
unicode = 00CA;
},
{
glyphname = Edieresis;
layers = (
{
background = {
paths = (
{
closed = 1;
nodes = (
"428 0 LINE",
"456 147 LINE",
"419 147 LINE",
"377 56 LINE",
"174 56 LINE",
"217 277 LINE",
"350 277 LINE",
"360 208 LINE",
"394 208 LINE",
"429 389 LINE",
"395 389 LINE",
"362 323 LINE",
"226 323 LINE",
"271 559 LINE",
"460 559 LINE",
"460 479 LINE",
"498 479 LINE",
"523 611 LINE",
"114 611 LINE",
"108 578 LINE",
"193 558 LINE",
"95 53 LINE",
"2 33 LINE",
"-4 0 LINE"
);
},
{
closed = 1;
nodes = (
"271 671 OFFCURVE",
"298 696 OFFCURVE",
"298 726 CURVE SMOOTH",
"298 758 OFFCURVE",
"271 784 OFFCURVE",
"241 784 CURVE SMOOTH",
"211 784 OFFCURVE",
"184 758 OFFCURVE",
"184 726 CURVE SMOOTH",
"184 696 OFFCURVE",
"211 671 OFFCURVE",
"241 671 CURVE SMOOTH"
);
},
{
closed = 1;
nodes = (
"465 671 OFFCURVE",
"493 696 OFFCURVE",
"493 726 CURVE SMOOTH",
"493 758 OFFCURVE",
"465 784 OFFCURVE",
"435 784 CURVE SMOOTH",
"405 784 OFFCURVE",
"378 758 OFFCURVE",
"378 726 CURVE SMOOTH",
"378 696 OFFCURVE",
"405 671 OFFCURVE",
"435 671 CURVE SMOOTH"
);
}
);
};
components = (
{
name = E;
},
{
name = dieresiscomb.case;
transform = "{1, 0, 0, 1, 109, 0}";
}
);
layerId = "27799D80-F866-457E-9382-0097DC0AFC53";
width = 517;
},
{
background = {
paths = (
{
closed = 1;
nodes = (
"452 0 LINE",
"483 162 LINE",
"430 162 LINE",
"388 69 LINE",
"215 69 LINE",
"256 281 LINE",
"357 281 LINE",
"362 212 LINE",
"412 212 LINE",
"449 403 LINE",
"399 403 LINE",
"370 337 LINE",
"267 337 LINE",
"308 546 LINE",
"466 546 LINE",
"471 468 LINE",
"524 468 LINE",
"552 614 LINE",
"105 614 LINE",
"96 569 LINE",
"172 546 LINE",
"79 69 LINE",
"-5 45 LINE",
"-13 0 LINE"
);
},
{
closed = 1;
nodes = (
"282 647 OFFCURVE",
"316 677 OFFCURVE",
"316 719 CURVE SMOOTH",
"316 760 OFFCURVE",
"282 792 OFFCURVE",
"242 792 CURVE SMOOTH",
"201 792 OFFCURVE",
"164 760 OFFCURVE",
"164 719 CURVE SMOOTH",
"164 677 OFFCURVE",
"201 647 OFFCURVE",
"242 647 CURVE SMOOTH"
);
},
{
closed = 1;
nodes = (
"512 647 OFFCURVE",
"547 677 OFFCURVE",
"547 719 CURVE SMOOTH",
"547 760 OFFCURVE",
"512 792 OFFCURVE",
"474 792 CURVE SMOOTH",
"432 792 OFFCURVE",
"397 760 OFFCURVE",
"397 719 CURVE SMOOTH",
"397 677 OFFCURVE",
"432 647 OFFCURVE",
"474 647 CURVE SMOOTH"
);
}
);
};
components = (
{
name = E;
},
{
name = dieresiscomb.case;
transform = "{1, 0, 0, 1, 83, 0}";
}
);
layerId = "91FB354D-039B-406A-8F87-4ABC8510003D";
width = 524;
},
{
background = {
paths = (
{
closed = 1;
nodes = (
"422 0 LINE",
"449 143 LINE",
"416 143 LINE",
"374 52 LINE",
"163 52 LINE",
"206 276 LINE",
"348 276 LINE",
"359 207 LINE",
"389 207 LINE",
"424 385 LINE",
"394 385 LINE",
"360 319 LINE",
"215 319 LINE",
"261 563 LINE",
"458 563 LINE",
"457 482 LINE",
"491 482 LINE",
"515 610 LINE",
"116 610 LINE",
"111 580 LINE",
"199 561 LINE",
"99 49 LINE",
"4 30 LINE",
"-2 0 LINE"
);
},
{
closed = 1;
nodes = (
"268 678 OFFCURVE",
"293 701 OFFCURVE",
"293 728 CURVE SMOOTH",
"293 757 OFFCURVE",
"268 782 OFFCURVE",
"241 782 CURVE SMOOTH",
"214 782 OFFCURVE",
"189 757 OFFCURVE",
"189 728 CURVE SMOOTH",
"189 701 OFFCURVE",
"214 678 OFFCURVE",
"241 678 CURVE SMOOTH"
);
},
{
closed = 1;
nodes = (
"452 678 OFFCURVE",
"478 701 OFFCURVE",
"478 728 CURVE SMOOTH",
"478 757 OFFCURVE",
"452 782 OFFCURVE",
"424 782 CURVE SMOOTH",
"398 782 OFFCURVE",
"373 757 OFFCURVE",
"373 728 CURVE SMOOTH",
"373 701 OFFCURVE",
"398 678 OFFCURVE",
"424 678 CURVE SMOOTH"
);
}
);
};
components = (
{
name = E;
},
{
name = dieresiscomb.case;
transform = "{1, 0, 0, 1, 116, 0}";
}
);
layerId = "44981724-2b4e-42be-8f7f-300520b6a406";
width = 515;
},
{
background = {
paths = (
{
closed = 1;
nodes = (
"461 0 LINE",
"493 167 LINE",
"434 167 LINE",
"392 74 LINE",
"230 74 LINE",
"270 282 LINE",
"359 282 LINE",
"363 213 LINE",
"418 213 LINE",
"456 408 LINE",
"400 408 LINE",
"373 342 LINE",
"282 342 LINE",
"321 541 LINE",
"468 541 LINE",
"475 464 LINE",
"533 464 LINE",
"562 615 LINE",
"102 615 LINE",
"92 566 LINE",
"165 542 LINE",
"73 75 LINE",
"-7 49 LINE",
"-16 0 LINE"
);
},
{
closed = 1;
nodes = (
"286 639 OFFCURVE",
"322 670 OFFCURVE",
"322 717 CURVE SMOOTH",
"322 761 OFFCURVE",
"286 795 OFFCURVE",
"242 795 CURVE SMOOTH",
"197 795 OFFCURVE",
"157 761 OFFCURVE",
"157 717 CURVE SMOOTH",
"157 670 OFFCURVE",
"197 639 OFFCURVE",
"242 639 CURVE SMOOTH"
);
},
{
closed = 1;
nodes = (
"529 639 OFFCURVE",
"566 670 OFFCURVE",
"566 717 CURVE SMOOTH",
"566 761 OFFCURVE",
"529 795 OFFCURVE",
"488 795 CURVE SMOOTH",
"442 795 OFFCURVE",
"404 761 OFFCURVE",
"404 717 CURVE SMOOTH",
"404 670 OFFCURVE",
"442 639 OFFCURVE",
"488 639 CURVE SMOOTH"
);
}
);
};
components = (
{
name = E;
},
{
name = dieresiscomb.case;
transform = "{1, 0, 0, 1, 76, 0}";
}
);
layerId = "8454c77d-11ac-4429-aa94-301a0d22d44f";
width = 526;
}
);
leftKerningGroup = H;
rightKerningGroup = E;
unicode = 00CB;
},
{
glyphname = Edotaccent;
layers = (
{
background = {
paths = (
{
closed = 1;
nodes = (
"428 0 LINE",
"456 147 LINE",
"419 147 LINE",
"377 56 LINE",
"174 56 LINE",
"217 277 LINE",
"350 277 LINE",
"360 208 LINE",
"394 208 LINE",
"429 389 LINE",
"395 389 LINE",
"362 323 LINE",
"226 323 LINE",
"271 559 LINE",
"460 559 LINE",
"460 479 LINE",
"498 479 LINE",
"523 611 LINE",
"114 611 LINE",
"108 578 LINE",
"193 558 LINE",
"95 53 LINE",
"2 33 LINE",
"-4 0 LINE"
);
},
{
closed = 1;
nodes = (
"378 668 OFFCURVE",
"407 692 OFFCURVE",
"407 725 CURVE SMOOTH",
"407 758 OFFCURVE",
"378 785 OFFCURVE",
"347 785 CURVE SMOOTH",
"315 785 OFFCURVE",
"287 758 OFFCURVE",
"287 725 CURVE SMOOTH",
"287 692 OFFCURVE",
"315 668 OFFCURVE",
"347 668 CURVE SMOOTH"
);
}
);
};
components = (
{
name = E;
},
{
name = dotaccentcomb.case;
transform = "{1, 0, 0, 1, 210, 0}";
}
);
layerId = "27799D80-F866-457E-9382-0097DC0AFC53";
width = 517;
},
{
background = {
paths = (
{
closed = 1;
nodes = (
"452 0 LINE",
"483 162 LINE",
"430 162 LINE",
"388 69 LINE",
"215 69 LINE",
"256 281 LINE",
"357 281 LINE",
"362 212 LINE",
"412 212 LINE",
"449 403 LINE",
"399 403 LINE",
"370 337 LINE",
"267 337 LINE",
"308 546 LINE",
"466 546 LINE",
"471 468 LINE",
"524 468 LINE",
"552 614 LINE",
"105 614 LINE",
"96 569 LINE",
"172 546 LINE",
"79 69 LINE",
"-5 45 LINE",
"-13 0 LINE"
);
},
{
closed = 1;
nodes = (
"406 635 OFFCURVE",
"443 670 OFFCURVE",
"443 715 CURVE SMOOTH",
"443 760 OFFCURVE",
"406 799 OFFCURVE",
"361 799 CURVE SMOOTH",
"316 799 OFFCURVE",
"275 760 OFFCURVE",
"275 715 CURVE SMOOTH",
"275 670 OFFCURVE",
"316 635 OFFCURVE",
"361 635 CURVE SMOOTH"
);
}
);
};
components = (
{
name = E;
},
{
name = dotaccentcomb.case;
transform = "{1, 0, 0, 1, 198, 0}";
}
);
layerId = "91FB354D-039B-406A-8F87-4ABC8510003D";
width = 524;
},
{
background = {
paths = (
{
closed = 1;
nodes = (
"422 0 LINE",
"449 143 LINE",
"416 143 LINE",
"374 52 LINE",
"163 52 LINE",
"206 276 LINE",
"348 276 LINE",
"359 207 LINE",
"389 207 LINE",
"424 385 LINE",
"394 385 LINE",
"360 319 LINE",
"215 319 LINE",
"261 563 LINE",
"458 563 LINE",
"457 482 LINE",
"491 482 LINE",
"515 610 LINE",
"116 610 LINE",
"111 580 LINE",
"199 561 LINE",
"99 49 LINE",
"4 30 LINE",
"-2 0 LINE"
);
},
{
closed = 1;
nodes = (
"370 677 OFFCURVE",
"397 698 OFFCURVE",
"397 728 CURVE SMOOTH",
"397 757 OFFCURVE",
"370 781 OFFCURVE",
"343 781 CURVE SMOOTH",
"315 781 OFFCURVE",
"290 757 OFFCURVE",
"290 728 CURVE SMOOTH",
"290 698 OFFCURVE",
"315 677 OFFCURVE",
"343 677 CURVE SMOOTH"
);
}
);
};
components = (
{
name = E;
},
{
name = dotaccentcomb.case;
transform = "{1, 0, 0, 1, 214, 0}";
}
);
layerId = "44981724-2b4e-42be-8f7f-300520b6a406";
width = 515;
},
{
background = {
paths = (
{
closed = 1;
nodes = (
"461 0 LINE",
"493 167 LINE",
"434 167 LINE",
"392 74 LINE",
"230 74 LINE",
"270 282 LINE",
"359 282 LINE",
"363 213 LINE",
"418 213 LINE",
"456 408 LINE",
"400 408 LINE",
"373 342 LINE",
"282 342 LINE",
"321 541 LINE",
"468 541 LINE",
"475 464 LINE",
"533 464 LINE",
"562 615 LINE",
"102 615 LINE",
"92 566 LINE",
"165 542 LINE",
"73 75 LINE",
"-7 49 LINE",
"-16 0 LINE"
);
},
{
closed = 1;
nodes = (
"416 623 OFFCURVE",
"456 662 OFFCURVE",
"456 711 CURVE SMOOTH",
"456 761 OFFCURVE",
"416 804 OFFCURVE",
"366 804 CURVE SMOOTH",
"316 804 OFFCURVE",
"271 761 OFFCURVE",
"271 711 CURVE SMOOTH",
"271 662 OFFCURVE",
"316 623 OFFCURVE",
"366 623 CURVE SMOOTH"
);
}
);
};
components = (
{
name = E;
},
{
name = dotaccentcomb.case;
transform = "{1, 0, 0, 1, 197, 0}";
}
);
layerId = "8454c77d-11ac-4429-aa94-301a0d22d44f";
width = 526;
}
);
leftKerningGroup = H;
rightKerningGroup = E;
unicode = 0116;
},
{
glyphname = Egrave;
layers = (
{
background = {
paths = (
{
closed = 1;
nodes = (
"421 0 LINE",
"449 147 LINE",
"412 147 LINE",
"370 56 LINE",
"167 56 LINE",
"210 277 LINE",
"343 277 LINE",
"353 208 LINE",
"387 208 LINE",
"422 389 LINE",
"388 389 LINE",
"355 323 LINE",
"219 323 LINE",
"264 559 LINE",
"453 559 LINE",
"453 479 LINE",
"491 479 LINE",
"516 611 LINE",
"107 611 LINE",
"101 578 LINE",
"186 558 LINE",
"88 53 LINE",
"-5 33 LINE",
"-11 0 LINE"
);
},
{
closed = 1;
nodes = (
"447 670 LINE",
"293 800 LINE",
"217 772 LINE",
"217 754 LINE",
"431 651 LINE"
);
}
);
};
components = (
{
name = E;
},
{
name = gravecomb.case;
transform = "{1, 0, 0, 1, 121, 0}";
}
);
layerId = "27799D80-F866-457E-9382-0097DC0AFC53";
width = 517;
},
{
background = {
paths = (
{
closed = 1;
nodes = (
"451 0 LINE",
"482 162 LINE",
"429 162 LINE",
"387 69 LINE",
"214 69 LINE",
"255 281 LINE",
"356 281 LINE",
"361 212 LINE",
"411 212 LINE",
"448 403 LINE",
"398 403 LINE",
"369 337 LINE",
"266 337 LINE",
"307 546 LINE",
"465 546 LINE",
"470 468 LINE",
"523 468 LINE",
"551 614 LINE",
"104 614 LINE",
"95 569 LINE",
"171 546 LINE",
"78 69 LINE",
"-6 45 LINE",
"-14 0 LINE"
);
},
{
closed = 1;
nodes = (
"433 669 LINE",
"279 800 LINE",
"182 766 LINE",
"178 743 LINE",
"410 634 LINE"
);
}
);
};
components = (
{
name = E;
},
{
name = gravecomb.case;
transform = "{1, 0, 0, 1, 108, 0}";
}
);
layerId = "91FB354D-039B-406A-8F87-4ABC8510003D";
width = 524;
},
{
background = {
paths = (
{
closed = 1;
nodes = (
"412 0 LINE",
"439 143 LINE",
"406 143 LINE",
"364 52 LINE",
"153 52 LINE",
"196 276 LINE",
"338 276 LINE",
"349 207 LINE",
"379 207 LINE",
"414 385 LINE",
"384 385 LINE",
"350 319 LINE",
"205 319 LINE",
"251 563 LINE",
"448 563 LINE",
"447 482 LINE",
"481 482 LINE",
"505 610 LINE",
"106 610 LINE",
"101 580 LINE",
"189 561 LINE",
"89 49 LINE",
"-6 30 LINE",
"-12 0 LINE"
);
},
{
closed = 1;
nodes = (
"449 670 LINE",
"295 800 LINE",
"225 774 LINE",
"226 757 LINE",
"435 656 LINE"
);
}
);
};
components = (
{
name = E;
},
{
name = gravecomb.case;
transform = "{1, 0, 0, 1, 122, 0}";
}
);
layerId = "44981724-2b4e-42be-8f7f-300520b6a406";
width = 515;
},
{
background = {
paths = (
{
closed = 1;
nodes = (
"461 0 LINE",
"493 167 LINE",
"434 167 LINE",
"392 74 LINE",
"230 74 LINE",
"270 282 LINE",
"359 282 LINE",
"363 213 LINE",
"418 213 LINE",
"456 408 LINE",
"400 408 LINE",
"373 342 LINE",
"282 342 LINE",
"321 541 LINE",
"468 541 LINE",
"475 464 LINE",
"533 464 LINE",
"562 615 LINE",
"102 615 LINE",
"92 566 LINE",
"165 542 LINE",
"73 75 LINE",
"-7 49 LINE",
"-16 0 LINE"
);
},
{
closed = 1;
nodes = (
"427 669 LINE",
"273 800 LINE",
"168 764 LINE",
"163 739 LINE",
"401 628 LINE"
);
}
);
};
components = (
{
name = E;
},
{
name = gravecomb.case;
transform = "{1, 0, 0, 1, 118, 0}";
}
);
layerId = "8454c77d-11ac-4429-aa94-301a0d22d44f";
width = 526;
}
);
leftKerningGroup = H;
rightKerningGroup = E;
unicode = 00C8;
},
{
glyphname = Emacron;
layers = (
{
background = {
paths = (
{
closed = 1;
nodes = (
"428 0 LINE",
"456 147 LINE",
"419 147 LINE",
"377 56 LINE",
"174 56 LINE",
"217 277 LINE",
"350 277 LINE",
"360 208 LINE",
"394 208 LINE",
"429 389 LINE",
"395 389 LINE",
"362 323 LINE",
"226 323 LINE",
"271 559 LINE",
"460 559 LINE",
"460 479 LINE",
"498 479 LINE",
"523 611 LINE",
"114 611 LINE",
"108 578 LINE",
"193 558 LINE",
"95 53 LINE",
"2 33 LINE",
"-4 0 LINE"
);
},
{
closed = 1;
nodes = (
"471 689 LINE",
"479 743 LINE",
"242 743 LINE",
"234 689 LINE"
);
}
);
};
components = (
{
name = E;
},
{
name = macroncomb.case;
transform = "{1, 0, 0, 1, 149, 0}";
}
);
layerId = "27799D80-F866-457E-9382-0097DC0AFC53";
width = 517;
},
{
background = {
paths = (
{
closed = 1;
nodes = (
"452 0 LINE",
"483 162 LINE",
"430 162 LINE",
"388 69 LINE",
"215 69 LINE",
"256 281 LINE",
"357 281 LINE",
"362 212 LINE",
"412 212 LINE",
"449 403 LINE",
"399 403 LINE",
"370 337 LINE",
"267 337 LINE",
"308 546 LINE",
"466 546 LINE",
"471 468 LINE",
"524 468 LINE",
"552 614 LINE",
"105 614 LINE",
"96 569 LINE",
"172 546 LINE",
"79 69 LINE",
"-5 45 LINE",
"-13 0 LINE"
);
},
{
closed = 1;
nodes = (
"485 679 LINE",
"496 758 LINE",
"235 758 LINE",
"224 679 LINE"
);
}
);
};
components = (
{
name = E;
},
{
name = macroncomb.case;
transform = "{1, 0, 0, 1, 148, 0}";
}
);
layerId = "91FB354D-039B-406A-8F87-4ABC8510003D";
width = 524;
},
{
background = {
paths = (
{
closed = 1;
nodes = (
"422 0 LINE",
"449 143 LINE",
"416 143 LINE",
"374 52 LINE",
"163 52 LINE",
"206 276 LINE",
"348 276 LINE",
"359 207 LINE",
"389 207 LINE",
"424 385 LINE",
"394 385 LINE",
"360 319 LINE",
"215 319 LINE",
"261 563 LINE",
"458 563 LINE",
"457 482 LINE",
"491 482 LINE",
"515 610 LINE",
"116 610 LINE",
"111 580 LINE",
"199 561 LINE",
"99 49 LINE",
"4 30 LINE",
"-2 0 LINE"
);
},
{
closed = 1;
nodes = (
"467 692 LINE",
"474 739 LINE",
"244 739 LINE",
"237 692 LINE"
);
}
);
};
components = (
{
name = E;
},
{
name = macroncomb.case;
transform = "{1, 0, 0, 1, 152, 0}";
}
);
layerId = "44981724-2b4e-42be-8f7f-300520b6a406";
width = 515;
},
{
background = {
paths = (
{
closed = 1;
nodes = (
"461 0 LINE",
"493 167 LINE",
"434 167 LINE",
"392 74 LINE",
"230 74 LINE",
"270 282 LINE",
"359 282 LINE",
"363 213 LINE",
"418 213 LINE",
"456 408 LINE",
"400 408 LINE",
"373 342 LINE",
"282 342 LINE",
"321 541 LINE",
"468 541 LINE",
"475 464 LINE",
"533 464 LINE",
"562 615 LINE",
"102 615 LINE",
"92 566 LINE",
"165 542 LINE",
"73 75 LINE",
"-7 49 LINE",
"-16 0 LINE"
);
},
{
closed = 1;
nodes = (
"490 675 LINE",
"502 763 LINE",
"233 763 LINE",
"220 675 LINE"
);
}
);
};
components = (
{
name = E;
},
{
name = macroncomb.case;
transform = "{1, 0, 0, 1, 149, 0}";
}
);
layerId = "8454c77d-11ac-4429-aa94-301a0d22d44f";
width = 526;
}
);
leftKerningGroup = H;
rightKerningGroup = E;
unicode = 0112;
},
{
glyphname = Eogonek;
layers = (
{
background = {
paths = (
{
closed = 1;
nodes = (
"418 -236 OFFCURVE",
"455 -186 OFFCURVE",
"455 -186 CURVE",
"441 -170 LINE",
"423 -186 OFFCURVE",
"404 -192 OFFCURVE",
"388 -192 CURVE SMOOTH",
"358 -192 OFFCURVE",
"340 -176 OFFCURVE",
"340 -145 CURVE SMOOTH",
"340 -91 OFFCURVE",
"383 -33 OFFCURVE",
"420 0 CURVE",
"448 147 LINE",
"411 147 LINE",
"369 56 LINE",
"166 56 LINE",
"209 277 LINE",
"342 277 LINE",
"352 208 LINE",
"386 208 LINE",
"421 389 LINE",
"387 389 LINE",
"354 323 LINE",
"218 323 LINE",
"263 559 LINE",
"452 559 LINE",
"452 479 LINE",
"490 479 LINE",
"515 611 LINE",
"106 611 LINE",
"100 578 LINE",
"185 558 LINE",
"87 53 LINE",
"-6 33 LINE",
"-12 0 LINE",
"386 0 LINE",
"303 -60 OFFCURVE",
"271 -121 OFFCURVE",
"271 -165 CURVE SMOOTH",
"271 -203 OFFCURVE",
"294 -236 OFFCURVE",
"354 -236 CURVE SMOOTH"
);
}
);
};
components = (
{
name = E;
},
{
name = ogonekcomb.case;
transform = "{1, 0, 0, 1, 352, 0}";
}
);
layerId = "27799D80-F866-457E-9382-0097DC0AFC53";
width = 517;
},
{
background = {
paths = (
{
closed = 1;
nodes = (
"457 -236 OFFCURVE",
"499 -174 OFFCURVE",
"499 -174 CURVE",
"479 -152 LINE",
"457 -166 OFFCURVE",
"437 -174 OFFCURVE",
"415 -174 CURVE SMOOTH",
"388 -174 OFFCURVE",
"377 -159 OFFCURVE",
"377 -133 CURVE SMOOTH",
"377 -100 OFFCURVE",
"416 -31 OFFCURVE",
"450 0 CURVE",
"481 162 LINE",
"428 162 LINE",
"386 69 LINE",
"213 69 LINE",
"254 281 LINE",
"355 281 LINE",
"360 212 LINE",
"410 212 LINE",
"447 403 LINE",
"397 403 LINE",
"368 337 LINE",
"265 337 LINE",
"306 546 LINE",
"464 546 LINE",
"469 468 LINE",
"522 468 LINE",
"550 614 LINE",
"103 614 LINE",
"94 569 LINE",
"170 546 LINE",
"77 69 LINE",
"-7 45 LINE",
"-15 0 LINE",
"401 0 LINE",
"322 -58 OFFCURVE",
"289 -120 OFFCURVE",
"289 -160 CURVE SMOOTH",
"289 -198 OFFCURVE",
"310 -236 OFFCURVE",
"381 -236 CURVE SMOOTH"
);
}
);
};
components = (
{
name = E;
},
{
name = ogonekcomb.case;
transform = "{1, 0, 0, 1, 369, 0}";
}
);
layerId = "91FB354D-039B-406A-8F87-4ABC8510003D";
width = 524;
},
{
background = {
paths = (
{
closed = 1;
nodes = (
"405 -236 OFFCURVE",
"439 -194 OFFCURVE",
"443 -189 CURVE",
"430 -175 LINE",
"412 -191 OFFCURVE",
"393 -197 OFFCURVE",
"378 -197 CURVE SMOOTH",
"346 -197 OFFCURVE",
"325 -181 OFFCURVE",
"325 -148 CURVE SMOOTH",
"325 -89 OFFCURVE",
"371 -34 OFFCURVE",
"411 0 CURVE",
"439 143 LINE",
"406 143 LINE",
"364 52 LINE",
"153 52 LINE",
"196 276 LINE",
"338 276 LINE",
"349 207 LINE",
"379 207 LINE",
"414 385 LINE",
"384 385 LINE",
"350 319 LINE",
"205 319 LINE",
"251 563 LINE",
"448 563 LINE",
"447 482 LINE",
"481 482 LINE",
"505 610 LINE",
"106 610 LINE",
"101 580 LINE",
"189 561 LINE",
"89 49 LINE",
"-6 30 LINE",
"-12 0 LINE",
"382 0 LINE",
"297 -61 OFFCURVE",
"266 -121 OFFCURVE",
"266 -166 CURVE SMOOTH",
"266 -204 OFFCURVE",
"289 -236 OFFCURVE",
"346 -236 CURVE SMOOTH"
);
}
);
};
components = (
{
name = E;
},
{
name = ogonekcomb.case;
transform = "{1, 0, 0, 1, 348, 0}";
}
);
layerId = "44981724-2b4e-42be-8f7f-300520b6a406";
width = 515;
},
{
background = {
paths = (
{
closed = 1;
nodes = (
"471 -236 OFFCURVE",
"514 -170 OFFCURVE",
"514 -170 CURVE",
"492 -146 LINE",
"469 -159 OFFCURVE",
"449 -168 OFFCURVE",
"424 -168 CURVE SMOOTH",
"399 -168 OFFCURVE",
"390 -153 OFFCURVE",
"390 -129 CURVE SMOOTH",
"390 -103 OFFCURVE",
"428 -30 OFFCURVE",
"461 0 CURVE",
"493 167 LINE",
"434 167 LINE",
"392 74 LINE",
"230 74 LINE",
"270 282 LINE",
"359 282 LINE",
"363 213 LINE",
"418 213 LINE",
"456 408 LINE",
"400 408 LINE",
"373 342 LINE",
"282 342 LINE",
"321 541 LINE",
"468 541 LINE",
"475 464 LINE",
"533 464 LINE",
"562 615 LINE",
"102 615 LINE",
"92 566 LINE",
"165 542 LINE",
"73 75 LINE",
"-7 49 LINE",
"-16 0 LINE",
"406 0 LINE",
"329 -57 OFFCURVE",
"295 -120 OFFCURVE",
"295 -158 CURVE SMOOTH",
"295 -196 OFFCURVE",
"316 -236 OFFCURVE",
"390 -236 CURVE SMOOTH"
);
}
);
};
components = (
{
name = E;
},
{
name = ogonekcomb.case;
transform = "{1, 0, 0, 1, 375, 0}";
}
);
layerId = "8454c77d-11ac-4429-aa94-301a0d22d44f";
width = 526;
}
);
leftKerningGroup = H;
rightKerningGroup = E;
unicode = 0118;
},
{
glyphname = Etilde;
layers = (
{
background = {
paths = (
{
closed = 1;
nodes = (
"428 0 LINE",
"456 147 LINE",
"419 147 LINE",
"377 56 LINE",
"174 56 LINE",
"217 277 LINE",
"350 277 LINE",
"360 208 LINE",
"394 208 LINE",
"429 389 LINE",
"395 389 LINE",
"362 323 LINE",
"226 323 LINE",
"271 559 LINE",
"460 559 LINE",
"460 479 LINE",
"498 479 LINE",
"523 611 LINE",
"114 611 LINE",
"108 578 LINE",
"193 558 LINE",
"95 53 LINE",
"2 33 LINE",
"-4 0 LINE"
);
},
{
closed = 1;
nodes = (
"465 670 OFFCURVE",
"487 714 OFFCURVE",
"508 765 CURVE",
"477 777 LINE",
"477 777 OFFCURVE",
"457 742 OFFCURVE",
"434 742 CURVE SMOOTH",
"399 742 OFFCURVE",
"316 782 OFFCURVE",
"282 782 CURVE SMOOTH",
"249 782 OFFCURVE",
"227 738 OFFCURVE",
"206 686 CURVE",
"236 674 LINE",
"236 674 OFFCURVE",
"259 710 OFFCURVE",
"281 710 CURVE SMOOTH",
"314 710 OFFCURVE",
"399 670 OFFCURVE",
"433 670 CURVE SMOOTH"
);
}
);
};
components = (
{
name = E;
},
{
name = tildecomb.case;
transform = "{1, 0, 0, 1, 126, 0}";
}
);
layerId = "27799D80-F866-457E-9382-0097DC0AFC53";
width = 517;
},
{
background = {
paths = (
{
closed = 1;
nodes = (
"451 0 LINE",
"482 162 LINE",
"429 162 LINE",
"387 69 LINE",
"214 69 LINE",
"255 281 LINE",
"356 281 LINE",
"361 212 LINE",
"411 212 LINE",
"448 403 LINE",
"398 403 LINE",
"369 337 LINE",
"266 337 LINE",
"307 546 LINE",
"465 546 LINE",
"470 468 LINE",
"523 468 LINE",
"551 614 LINE",
"104 614 LINE",
"95 569 LINE",
"171 546 LINE",
"78 69 LINE",
"-6 45 LINE",
"-14 0 LINE"
);
},
{
closed = 1;
nodes = (
"491 655 OFFCURVE",
"519 701 OFFCURVE",
"543 759 CURVE",
"499 778 LINE",
"492 765 OFFCURVE",
"475 747 OFFCURVE",
"457 747 CURVE SMOOTH",
"418 747 OFFCURVE",
"330 784 OFFCURVE",
"281 784 CURVE SMOOTH",
"248 784 OFFCURVE",
"214 738 OFFCURVE",
"194 680 CURVE",
"241 661 LINE",
"248 674 OFFCURVE",
"263 692 OFFCURVE",
"281 692 CURVE SMOOTH",
"319 692 OFFCURVE",
"408 655 OFFCURVE",
"457 655 CURVE SMOOTH"
);
}
);
};
components = (
{
name = E;
},
{
name = tildecomb.case;
transform = "{1, 0, 0, 1, 114, 0}";
}
);
layerId = "91FB354D-039B-406A-8F87-4ABC8510003D";
width = 524;
},
{
background = {
paths = (
{
closed = 1;
nodes = (
"422 0 LINE",
"449 143 LINE",
"416 143 LINE",
"374 52 LINE",
"163 52 LINE",
"207 276 LINE",
"348 276 LINE",
"360 207 LINE",
"389 207 LINE",
"424 385 LINE",
"394 385 LINE",
"360 319 LINE",
"215 319 LINE",
"261 563 LINE",
"459 563 LINE",
"457 482 LINE",
"491 482 LINE",
"515 610 LINE",
"117 610 LINE",
"112 580 LINE",
"199 561 LINE",
"100 49 LINE",
"4 30 LINE",
"-1 0 LINE"
);
},
{
closed = 1;
nodes = (
"458 674 OFFCURVE",
"478 718 OFFCURVE",
"499 767 CURVE",
"471 777 LINE",
"469 773 OFFCURVE",
"450 741 OFFCURVE",
"428 741 CURVE SMOOTH",
"394 741 OFFCURVE",
"312 781 OFFCURVE",
"282 781 CURVE SMOOTH",
"249 781 OFFCURVE",
"229 738 OFFCURVE",
"209 688 CURVE",
"235 678 LINE",
"238 684 OFFCURVE",
"260 715 OFFCURVE",
"281 715 CURVE SMOOTH",
"313 715 OFFCURVE",
"397 674 OFFCURVE",
"426 674 CURVE SMOOTH"
);
}
);
};
components = (
{
name = E;
},
{
name = tildecomb.case;
transform = "{1, 0, 0, 1, 130, 0}";
}
);
layerId = "44981724-2b4e-42be-8f7f-300520b6a406";
width = 515;
},
{
background = {
paths = (
{
closed = 1;
nodes = (
"459 0 LINE",
"491 167 LINE",
"433 167 LINE",
"391 74 LINE",
"228 74 LINE",
"268 282 LINE",
"358 282 LINE",
"361 213 LINE",
"417 213 LINE",
"455 408 LINE",
"399 408 LINE",
"371 342 LINE",
"280 342 LINE",
"320 541 LINE",
"467 541 LINE",
"474 464 LINE",
"532 464 LINE",
"561 615 LINE",
"100 615 LINE",
"90 566 LINE",
"163 542 LINE",
"72 75 LINE",
"-9 49 LINE",
"-18 0 LINE"
);
},
{
closed = 1;
nodes = (
"500 650 OFFCURVE",
"530 696 OFFCURVE",
"555 757 CURVE",
"507 778 LINE",
"500 766 OFFCURVE",
"484 749 OFFCURVE",
"465 749 CURVE SMOOTH",
"425 749 OFFCURVE",
"335 785 OFFCURVE",
"281 785 CURVE SMOOTH",
"248 785 OFFCURVE",
"209 738 OFFCURVE",
"190 678 CURVE",
"243 656 LINE",
"249 669 OFFCURVE",
"263 686 OFFCURVE",
"281 686 CURVE SMOOTH",
"321 686 OFFCURVE",
"411 650 OFFCURVE",
"466 650 CURVE SMOOTH"
);
}
);
};
components = (
{
name = E;
},
{
name = tildecomb.case;
transform = "{1, 0, 0, 1, 112, 0}";
}
);
layerId = "8454c77d-11ac-4429-aa94-301a0d22d44f";
width = 526;
}
);
leftKerningGroup = H;
rightKerningGroup = E;
unicode = 1EBC;
},
{
glyphname = F;
layers = (
{
anchors = (
{
name = bottom;
position = "{201, 0}";
},
{
name = top;
position = "{320, 611}";
}
);
background = {
paths = (
{
closed = 1;
nodes = (
"110 611 LINE",
"104 578 LINE",
"189 558 LINE",
"91 53 LINE",
"-2 33 LINE",
"-8 0 LINE",
"276 0 LINE",
"282 34 LINE",
"169 54 LINE",
"211 267 LINE",
"347 267 LINE",
"352 198 LINE",
"386 198 LINE",
"421 379 LINE",
"387 379 LINE",
"354 313 LINE",
"220 313 LINE",
"267 559 LINE",
"455 559 LINE",
"455 479 LINE",
"494 479 LINE",
"519 611 LINE"
);
}
);
};
layerId = "27799D80-F866-457E-9382-0097DC0AFC53";
paths = (
{
closed = 1;
nodes = (
"276 0 LINE",
"282 34 LINE",
"169 54 LINE",
"211 267 LINE",
"347 267 LINE",
"352 198 LINE",
"386 198 LINE",
"421 379 LINE",
"387 379 LINE",
"354 313 LINE",
"220 313 LINE",
"267 559 LINE",
"455 559 LINE",
"455 479 LINE",
"494 479 LINE",
"519 611 LINE",
"110 611 LINE",
"104 578 LINE",
"189 558 LINE",
"91 53 LINE",
"-2 33 LINE",
"-8 0 LINE"
);
}
);
width = 474;
},
{
anchors = (
{
name = bottom;
position = "{203, 0}";
},
{
name = top;
position = "{323, 614}";
}
);
background = {
paths = (
{
closed = 1;
nodes = (
"102 614 LINE",
"93 569 LINE",
"169 546 LINE",
"76 69 LINE",
"-8 45 LINE",
"-16 0 LINE",
"289 0 LINE",
"298 47 LINE",
"212 69 LINE",
"250 264 LINE",
"355 264 LINE",
"360 195 LINE",
"410 195 LINE",
"447 386 LINE",
"397 386 LINE",
"368 320 LINE",
"261 320 LINE",
"305 546 LINE",
"468 546 LINE",
"473 468 LINE",
"526 468 LINE",
"554 614 LINE"
);
}
);
};
layerId = "91FB354D-039B-406A-8F87-4ABC8510003D";
paths = (
{
closed = 1;
nodes = (
"289 0 LINE",
"298 47 LINE",
"212 69 LINE",
"250 264 LINE",
"355 264 LINE",
"360 195 LINE",
"410 195 LINE",
"447 386 LINE",
"397 386 LINE",
"368 320 LINE",
"261 320 LINE",
"305 546 LINE",
"468 546 LINE",
"473 468 LINE",
"526 468 LINE",
"554 614 LINE",
"102 614 LINE",
"93 569 LINE",
"169 546 LINE",
"76 69 LINE",
"-8 45 LINE",
"-16 0 LINE"
);
}
);
width = 498;
},
{
anchors = (
{
name = bottom;
position = "{200, 0}";
},
{
name = top;
position = "{319, 610}";
}
);
layerId = "44981724-2b4e-42be-8f7f-300520b6a406";
paths = (
{
closed = 1;
nodes = (
"272 0 LINE",
"277 30 LINE",
"157 50 LINE",
"200 268 LINE",
"344 268 LINE",
"349 199 LINE",
"379 199 LINE",
"413 377 LINE",
"384 377 LINE",
"350 311 LINE",
"208 311 LINE",
"256 563 LINE",
"451 563 LINE",
"450 482 LINE",
"485 482 LINE",
"509 610 LINE",
"112 610 LINE",
"106 580 LINE",
"194 561 LINE",
"94 49 LINE",
"-1 30 LINE",
"-6 0 LINE"
);
}
);
width = 466;
},
{
anchors = (
{
name = bottom;
position = "{204, 0}";
},
{
name = top;
position = "{324, 615}";
}
);
layerId = "8454c77d-11ac-4429-aa94-301a0d22d44f";
paths = (
{
closed = 1;
nodes = (
"294 0 LINE",
"304 52 LINE",
"227 74 LINE",
"264 263 LINE",
"358 263 LINE",
"363 194 LINE",
"419 194 LINE",
"456 388 LINE",
"401 388 LINE",
"373 322 LINE",
"276 322 LINE",
"319 541 LINE",
"473 541 LINE",
"480 464 LINE",
"537 464 LINE",
"567 615 LINE",
"99 615 LINE",
"89 566 LINE",
"162 542 LINE",
"71 75 LINE",
"-10 49 LINE",
"-19 0 LINE"
);
}
);
width = 506;
}
);
leftKerningGroup = H;
leftMetricsKey = H;
rightKerningGroup = F;
unicode = 0046;
},
{
glyphname = G;
layers = (
{
anchors = (
{
name = bottom;
position = "{272, 0}";
},
{
name = top;
position = "{372, 611}";
}
);
background = {
paths = (
{
closed = 1;
nodes = (
"494 470 LINE",
"529 470 LINE",
"568 597 LINE",
"529 618 OFFCURVE",
"456 627 OFFCURVE",
"405 627 CURVE SMOOTH",
"158 627 OFFCURVE",
"42 423 OFFCURVE",
"42 209 CURVE SMOOTH",
"42 83 OFFCURVE",
"104 -11 OFFCURVE",
"275 -11 CURVE SMOOTH",
"343 -11 OFFCURVE",
"405 4 OFFCURVE",
"453 31 CURVE",
"492 234 LINE",
"563 254 LINE",
"569 288 LINE",
"340 288 LINE",
"334 254 LINE",
"414 234 LINE",
"379 56 LINE",
"351 42 OFFCURVE",
"321 37 OFFCURVE",
"288 37 CURVE SMOOTH",
"166 37 OFFCURVE",
"132 126 OFFCURVE",
"132 219 CURVE SMOOTH",
"132 314 OFFCURVE",
"176 578 OFFCURVE",
"396 578 CURVE SMOOTH",
"434 578 OFFCURVE",
"468 573 OFFCURVE",
"490 567 CURVE"
);
}
);
};
layerId = "27799D80-F866-457E-9382-0097DC0AFC53";
paths = (
{
closed = 1;
nodes = (
"343 -11 OFFCURVE",
"405 4 OFFCURVE",
"453 31 CURVE",
"492 234 LINE",
"563 254 LINE",
"569 288 LINE",
"340 288 LINE",
"334 254 LINE",
"414 234 LINE",
"379 56 LINE",
"351 42 OFFCURVE",
"321 37 OFFCURVE",
"288 37 CURVE SMOOTH",
"166 37 OFFCURVE",
"132 126 OFFCURVE",
"132 219 CURVE SMOOTH",
"132 314 OFFCURVE",
"176 578 OFFCURVE",
"396 578 CURVE SMOOTH",
"434 578 OFFCURVE",
"468 573 OFFCURVE",
"490 567 CURVE",
"494 470 LINE",
"529 470 LINE",
"568 597 LINE",
"529 618 OFFCURVE",
"456 627 OFFCURVE",
"405 627 CURVE SMOOTH",
"158 627 OFFCURVE",
"42 423 OFFCURVE",
"42 209 CURVE SMOOTH",
"42 83 OFFCURVE",
"104 -11 OFFCURVE",
"275 -11 CURVE SMOOTH"
);
}
);
width = 572;
},
{
anchors = (
{
name = bottom;
position = "{281, 0}";
},
{
name = top;
position = "{371, 614}";
}
);
background = {
paths = (
{
closed = 1;
nodes = (
"489 444 LINE",
"544 444 LINE",
"583 598 LINE",
"543 614 OFFCURVE",
"476 628 OFFCURVE",
"395 628 CURVE SMOOTH",
"158 628 OFFCURVE",
"39 437 OFFCURVE",
"39 218 CURVE SMOOTH",
"39 65 OFFCURVE",
"103 -10 OFFCURVE",
"273 -10 CURVE SMOOTH",
"363 -10 OFFCURVE",
"443 11 OFFCURVE",
"488 34 CURVE",
"525 223 LINE",
"586 242 LINE",
"595 289 LINE",
"334 289 LINE",
"325 244 LINE",
"399 221 LINE",
"369 66 LINE",
"342 59 OFFCURVE",
"315 59 OFFCURVE",
"298 59 CURVE SMOOTH",
"202 59 OFFCURVE",
"187 128 OFFCURVE",
"187 211 CURVE SMOOTH",
"187 351 OFFCURVE",
"219 560 OFFCURVE",
"383 560 CURVE SMOOTH",
"431 560 OFFCURVE",
"461 551 OFFCURVE",
"482 545 CURVE"
);
}
);
};
layerId = "91FB354D-039B-406A-8F87-4ABC8510003D";
paths = (
{
closed = 1;
nodes = (
"363 -10 OFFCURVE",
"443 11 OFFCURVE",
"488 34 CURVE",
"525 223 LINE",
"586 242 LINE",
"595 289 LINE",
"334 289 LINE",
"325 244 LINE",
"399 221 LINE",
"369 66 LINE",
"342 59 OFFCURVE",
"315 59 OFFCURVE",
"298 59 CURVE SMOOTH",
"202 59 OFFCURVE",
"187 128 OFFCURVE",
"187 211 CURVE SMOOTH",
"187 351 OFFCURVE",
"219 560 OFFCURVE",
"383 560 CURVE SMOOTH",
"431 560 OFFCURVE",
"461 551 OFFCURVE",
"482 545 CURVE",
"489 444 LINE",
"544 444 LINE",
"583 598 LINE",
"543 614 OFFCURVE",
"476 628 OFFCURVE",
"395 628 CURVE SMOOTH",
"158 628 OFFCURVE",
"39 437 OFFCURVE",
"39 218 CURVE SMOOTH",
"39 65 OFFCURVE",
"103 -10 OFFCURVE",
"273 -10 CURVE SMOOTH"
);
}
);
width = 602;
},
{
anchors = (
{
name = bottom;
position = "{269, 0}";
},
{
name = top;
position = "{373, 610}";
}
);
layerId = "44981724-2b4e-42be-8f7f-300520b6a406";
paths = (
{
closed = 1;
nodes = (
"339 -11 OFFCURVE",
"396 2 OFFCURVE",
"444 30 CURVE",
"484 237 LINE",
"558 257 LINE",
"563 288 LINE",
"343 288 LINE",
"337 257 LINE",
"419 238 LINE",
"383 53 LINE",
"354 37 OFFCURVE",
"324 31 OFFCURVE",
"286 31 CURVE SMOOTH",
"157 31 OFFCURVE",
"118 125 OFFCURVE",
"118 221 CURVE SMOOTH",
"118 304 OFFCURVE",
"165 583 OFFCURVE",
"400 583 CURVE SMOOTH",
"436 583 OFFCURVE",
"471 579 OFFCURVE",
"493 573 CURVE",
"496 477 LINE",
"526 477 LINE",
"565 597 LINE",
"526 619 OFFCURVE",
"452 627 OFFCURVE",
"409 627 CURVE SMOOTH",
"159 627 OFFCURVE",
"44 419 OFFCURVE",
"44 207 CURVE SMOOTH",
"44 88 OFFCURVE",
"105 -11 OFFCURVE",
"276 -11 CURVE SMOOTH"
);
}
);
width = 569;
},
{
anchors = (
{
name = bottom;
position = "{285, 0}";
},
{
name = top;
position = "{371, 615}";
}
);
layerId = "8454c77d-11ac-4429-aa94-301a0d22d44f";
paths = (
{
closed = 1;
nodes = (
"371 -10 OFFCURVE",
"457 13 OFFCURVE",
"501 35 CURVE",
"537 219 LINE",
"595 238 LINE",
"605 289 LINE",
"332 289 LINE",
"322 240 LINE",
"394 216 LINE",
"365 71 LINE",
"338 65 OFFCURVE",
"313 64 OFFCURVE",
"302 64 CURVE SMOOTH",
"219 64 OFFCURVE",
"207 129 OFFCURVE",
"207 208 CURVE SMOOTH",
"207 364 OFFCURVE",
"242 554 OFFCURVE",
"388 554 CURVE SMOOTH",
"439 554 OFFCURVE",
"459 546 OFFCURVE",
"480 537 CURVE",
"488 435 LINE",
"550 435 LINE",
"589 598 LINE",
"548 613 OFFCURVE",
"484 628 OFFCURVE",
"392 628 CURVE SMOOTH",
"160 628 OFFCURVE",
"38 442 OFFCURVE",
"38 221 CURVE SMOOTH",
"38 59 OFFCURVE",
"103 -10 OFFCURVE",
"273 -10 CURVE SMOOTH"
);
}
);
width = 614;
}
);
leftKerningGroup = O;
leftMetricsKey = O;
rightKerningGroup = G;
unicode = 0047;
},
{
glyphname = Gbreve;
layers = (
{
background = {
paths = (
{
closed = 1;
nodes = (
"327 -11 OFFCURVE",
"389 4 OFFCURVE",
"437 31 CURVE",
"476 234 LINE",
"547 254 LINE",
"553 288 LINE",
"324 288 LINE",
"318 254 LINE",
"398 234 LINE",
"363 56 LINE",
"335 42 OFFCURVE",
"305 37 OFFCURVE",
"272 37 CURVE SMOOTH",
"150 37 OFFCURVE",
"116 126 OFFCURVE",
"116 219 CURVE SMOOTH",
"116 314 OFFCURVE",
"160 578 OFFCURVE",
"380 578 CURVE SMOOTH",
"418 578 OFFCURVE",
"452 573 OFFCURVE",
"474 567 CURVE",
"478 470 LINE",
"513 470 LINE",
"552 597 LINE",
"513 618 OFFCURVE",
"440 627 OFFCURVE",
"389 627 CURVE SMOOTH",
"142 627 OFFCURVE",
"26 423 OFFCURVE",
"26 209 CURVE SMOOTH",
"26 83 OFFCURVE",
"88 -11 OFFCURVE",
"259 -11 CURVE SMOOTH"
);
},
{
closed = 1;
nodes = (
"471 669 OFFCURVE",
"505 726 OFFCURVE",
"517 785 CURVE",
"484 785 LINE",
"478 753 OFFCURVE",
"456 723 OFFCURVE",
"386 723 CURVE SMOOTH",
"328 723 OFFCURVE",
"316 744 OFFCURVE",
"314 769 CURVE",
"314 774 OFFCURVE",
"315 780 OFFCURVE",
"317 785 CURVE",
"283 785 LINE",
"281 776 OFFCURVE",
"278 765 OFFCURVE",
"278 756 CURVE SMOOTH",
"278 708 OFFCURVE",
"300 669 OFFCURVE",
"379 669 CURVE SMOOTH"
);
}
);
};
components = (
{
name = G;
},
{
name = brevecomb.case;
transform = "{1, 0, 0, 1, 184, 0}";
}
);
layerId = "27799D80-F866-457E-9382-0097DC0AFC53";
width = 572;
},
{
background = {
paths = (
{
closed = 1;
nodes = (
"360 -10 OFFCURVE",
"440 11 OFFCURVE",
"485 34 CURVE",
"522 223 LINE",
"583 242 LINE",
"592 289 LINE",
"331 289 LINE",
"322 244 LINE",
"396 221 LINE",
"366 66 LINE",
"339 59 OFFCURVE",
"312 59 OFFCURVE",
"295 59 CURVE SMOOTH",
"199 59 OFFCURVE",
"184 128 OFFCURVE",
"184 211 CURVE SMOOTH",
"184 351 OFFCURVE",
"216 560 OFFCURVE",
"380 560 CURVE SMOOTH",
"428 560 OFFCURVE",
"458 551 OFFCURVE",
"479 545 CURVE",
"486 444 LINE",
"541 444 LINE",
"580 598 LINE",
"540 614 OFFCURVE",
"473 628 OFFCURVE",
"392 628 CURVE SMOOTH",
"155 628 OFFCURVE",
"36 437 OFFCURVE",
"36 218 CURVE SMOOTH",
"36 65 OFFCURVE",
"100 -10 OFFCURVE",
"270 -10 CURVE SMOOTH"
);
},
{
closed = 1;
nodes = (
"484 651 OFFCURVE",
"515 718 OFFCURVE",
"529 788 CURVE",
"475 788 LINE",
"467 758 OFFCURVE",
"457 727 OFFCURVE",
"393 727 CURVE SMOOTH",
"346 727 OFFCURVE",
"341 747 OFFCURVE",
"341 770 CURVE SMOOTH",
"341 775 OFFCURVE",
"342 783 OFFCURVE",
"343 788 CURVE",
"287 788 LINE",
"282 774 OFFCURVE",
"278 755 OFFCURVE",
"278 740 CURVE SMOOTH",
"278 691 OFFCURVE",
"303 651 OFFCURVE",
"381 651 CURVE SMOOTH"
);
}
);
};
components = (
{
name = G;
},
{
name = brevecomb.case;
transform = "{1, 0, 0, 1, 170, 0}";
}
);
layerId = "91FB354D-039B-406A-8F87-4ABC8510003D";
width = 602;
},
{
background = {
paths = (
{
closed = 1;
nodes = (
"318 -11 OFFCURVE",
"375 2 OFFCURVE",
"424 30 CURVE",
"464 237 LINE",
"537 257 LINE",
"542 288 LINE",
"322 288 LINE",
"317 257 LINE",
"399 238 LINE",
"362 53 LINE",
"334 37 OFFCURVE",
"303 31 OFFCURVE",
"266 31 CURVE SMOOTH",
"137 31 OFFCURVE",
"98 125 OFFCURVE",
"98 221 CURVE SMOOTH",
"98 304 OFFCURVE",
"145 583 OFFCURVE",
"380 583 CURVE SMOOTH",
"415 583 OFFCURVE",
"450 579 OFFCURVE",
"473 573 CURVE",
"476 477 LINE",
"505 477 LINE",
"544 597 LINE",
"506 619 OFFCURVE",
"431 627 OFFCURVE",
"388 627 CURVE SMOOTH",
"138 627 OFFCURVE",
"23 419 OFFCURVE",
"23 207 CURVE SMOOTH",
"23 88 OFFCURVE",
"85 -11 OFFCURVE",
"256 -11 CURVE SMOOTH"
);
},
{
closed = 1;
nodes = (
"467 674 OFFCURVE",
"502 728 OFFCURVE",
"514 784 CURVE",
"486 784 LINE",
"481 752 OFFCURVE",
"456 722 OFFCURVE",
"384 722 CURVE SMOOTH",
"323 722 OFFCURVE",
"309 743 OFFCURVE",
"307 769 CURVE",
"307 774 OFFCURVE",
"308 779 OFFCURVE",
"310 784 CURVE",
"282 784 LINE",
"281 777 OFFCURVE",
"278 768 OFFCURVE",
"278 760 CURVE SMOOTH",
"278 713 OFFCURVE",
"299 674 OFFCURVE",
"378 674 CURVE SMOOTH"
);
}
);
};
components = (
{
name = G;
},
{
name = brevecomb.case;
transform = "{1, 0, 0, 1, 189, 0}";
}
);
layerId = "44981724-2b4e-42be-8f7f-300520b6a406";
width = 569;
},
{
background = {
paths = (
{
closed = 1;
nodes = (
"372 -10 OFFCURVE",
"458 13 OFFCURVE",
"502 35 CURVE",
"538 219 LINE",
"596 238 LINE",
"606 289 LINE",
"333 289 LINE",
"323 240 LINE",
"395 216 LINE",
"366 71 LINE",
"339 65 OFFCURVE",
"314 64 OFFCURVE",
"303 64 CURVE SMOOTH",
"220 64 OFFCURVE",
"208 129 OFFCURVE",
"208 208 CURVE SMOOTH",
"208 364 OFFCURVE",
"243 554 OFFCURVE",
"389 554 CURVE SMOOTH",
"440 554 OFFCURVE",
"460 546 OFFCURVE",
"481 537 CURVE",
"489 435 LINE",
"551 435 LINE",
"590 598 LINE",
"549 613 OFFCURVE",
"485 628 OFFCURVE",
"393 628 CURVE SMOOTH",
"161 628 OFFCURVE",
"39 442 OFFCURVE",
"39 221 CURVE SMOOTH",
"39 59 OFFCURVE",
"104 -10 OFFCURVE",
"274 -10 CURVE SMOOTH"
);
},
{
closed = 1;
nodes = (
"489 645 OFFCURVE",
"519 715 OFFCURVE",
"533 789 CURVE",
"472 789 LINE",
"463 760 OFFCURVE",
"457 728 OFFCURVE",
"395 728 CURVE SMOOTH",
"352 728 OFFCURVE",
"350 748 OFFCURVE",
"351 770 CURVE",
"351 775 OFFCURVE",
"352 784 OFFCURVE",
"352 789 CURVE",
"288 789 LINE",
"282 773 OFFCURVE",
"278 751 OFFCURVE",
"278 734 CURVE SMOOTH",
"278 685 OFFCURVE",
"304 645 OFFCURVE",
"382 645 CURVE SMOOTH"
);
}
);
};
components = (
{
name = G;
},
{
name = brevecomb.case;
transform = "{1, 0, 0, 1, 167, 0}";
}
);
layerId = "8454c77d-11ac-4429-aa94-301a0d22d44f";
width = 614;
}
);
leftKerningGroup = G;
rightKerningGroup = G;
unicode = 011E;
},
{
glyphname = Gcommaaccent;
layers = (
{
background = {
paths = (
{
closed = 1;
nodes = (
"342 -11 OFFCURVE",
"404 4 OFFCURVE",
"452 31 CURVE",
"491 234 LINE",
"562 254 LINE",
"568 288 LINE",
"339 288 LINE",
"333 254 LINE",
"413 234 LINE",
"378 56 LINE",
"350 42 OFFCURVE",
"320 37 OFFCURVE",
"287 37 CURVE SMOOTH",
"165 37 OFFCURVE",
"131 126 OFFCURVE",
"131 219 CURVE SMOOTH",
"131 314 OFFCURVE",
"175 578 OFFCURVE",
"395 578 CURVE SMOOTH",
"433 578 OFFCURVE",
"467 573 OFFCURVE",
"489 567 CURVE",
"493 470 LINE",
"528 470 LINE",
"567 597 LINE",
"528 618 OFFCURVE",
"455 627 OFFCURVE",
"404 627 CURVE SMOOTH",
"157 627 OFFCURVE",
"41 423 OFFCURVE",
"41 209 CURVE SMOOTH",
"41 83 OFFCURVE",
"103 -11 OFFCURVE",
"274 -11 CURVE SMOOTH"
);
},
{
closed = 1;
nodes = (
"318 -48 LINE",
"303 -31 LINE",
"228 -47 LINE",
"193 -214 LINE",
"218 -221 LINE"
);
}
);
};
components = (
{
name = G;
},
{
name = commaaccentcomb.case;
transform = "{1, 0, 0, 1, 194, 0}";
}
);
layerId = "27799D80-F866-457E-9382-0097DC0AFC53";
width = 572;
},
{
background = {
paths = (
{
closed = 1;
nodes = (
"362 -10 OFFCURVE",
"442 11 OFFCURVE",
"487 34 CURVE",
"524 223 LINE",
"585 242 LINE",
"594 289 LINE",
"333 289 LINE",
"324 244 LINE",
"398 221 LINE",
"368 66 LINE",
"341 59 OFFCURVE",
"314 59 OFFCURVE",
"297 59 CURVE SMOOTH",
"201 59 OFFCURVE",
"186 128 OFFCURVE",
"186 211 CURVE SMOOTH",
"186 351 OFFCURVE",
"218 560 OFFCURVE",
"382 560 CURVE SMOOTH",
"430 560 OFFCURVE",
"460 551 OFFCURVE",
"481 545 CURVE",
"488 444 LINE",
"543 444 LINE",
"582 598 LINE",
"542 614 OFFCURVE",
"475 628 OFFCURVE",
"394 628 CURVE SMOOTH",
"157 628 OFFCURVE",
"38 437 OFFCURVE",
"38 218 CURVE SMOOTH",
"38 65 OFFCURVE",
"102 -10 OFFCURVE",
"272 -10 CURVE SMOOTH"
);
},
{
closed = 1;
nodes = (
"338 -48 LINE",
"316 -24 LINE",
"224 -44 LINE",
"188 -225 LINE",
"228 -236 LINE"
);
}
);
};
components = (
{
name = G;
},
{
name = commaaccentcomb.case;
transform = "{1, 0, 0, 1, 203, 0}";
}
);
layerId = "91FB354D-039B-406A-8F87-4ABC8510003D";
width = 602;
},
{
background = {
paths = (
{
closed = 1;
nodes = (
"337 -11 OFFCURVE",
"394 2 OFFCURVE",
"443 30 CURVE",
"483 237 LINE",
"556 257 LINE",
"561 288 LINE",
"341 288 LINE",
"336 257 LINE",
"418 238 LINE",
"381 53 LINE",
"353 37 OFFCURVE",
"322 31 OFFCURVE",
"285 31 CURVE SMOOTH",
"156 31 OFFCURVE",
"117 125 OFFCURVE",
"117 221 CURVE SMOOTH",
"117 304 OFFCURVE",
"164 583 OFFCURVE",
"399 583 CURVE SMOOTH",
"434 583 OFFCURVE",
"469 579 OFFCURVE",
"492 573 CURVE",
"495 477 LINE",
"524 477 LINE",
"563 597 LINE",
"525 619 OFFCURVE",
"450 627 OFFCURVE",
"407 627 CURVE SMOOTH",
"157 627 OFFCURVE",
"42 419 OFFCURVE",
"42 207 CURVE SMOOTH",
"42 88 OFFCURVE",
"104 -11 OFFCURVE",
"275 -11 CURVE SMOOTH"
);
},
{
closed = 1;
nodes = (
"313 -48 LINE",
"300 -33 LINE",
"230 -48 LINE",
"195 -211 LINE",
"216 -217 LINE"
);
}
);
};
components = (
{
name = G;
},
{
name = commaaccentcomb.case;
transform = "{1, 0, 0, 1, 191, 0}";
}
);
layerId = "44981724-2b4e-42be-8f7f-300520b6a406";
width = 569;
},
{
background = {
paths = (
{
closed = 1;
nodes = (
"370 -10 OFFCURVE",
"456 13 OFFCURVE",
"500 35 CURVE",
"536 219 LINE",
"594 238 LINE",
"604 289 LINE",
"331 289 LINE",
"321 240 LINE",
"393 216 LINE",
"364 71 LINE",
"337 65 OFFCURVE",
"312 64 OFFCURVE",
"301 64 CURVE SMOOTH",
"218 64 OFFCURVE",
"206 129 OFFCURVE",
"206 208 CURVE SMOOTH",
"206 364 OFFCURVE",
"241 554 OFFCURVE",
"387 554 CURVE SMOOTH",
"438 554 OFFCURVE",
"458 546 OFFCURVE",
"479 537 CURVE",
"487 435 LINE",
"549 435 LINE",
"588 598 LINE",
"547 613 OFFCURVE",
"483 628 OFFCURVE",
"391 628 CURVE SMOOTH",
"159 628 OFFCURVE",
"37 442 OFFCURVE",
"37 221 CURVE SMOOTH",
"37 59 OFFCURVE",
"102 -10 OFFCURVE",
"272 -10 CURVE SMOOTH"
);
},
{
closed = 1;
nodes = (
"346 -48 LINE",
"321 -22 LINE",
"223 -43 LINE",
"187 -229 LINE",
"232 -241 LINE"
);
}
);
};
components = (
{
name = G;
},
{
name = commaaccentcomb.case;
transform = "{1, 0, 0, 1, 207, 0}";
}
);
layerId = "8454c77d-11ac-4429-aa94-301a0d22d44f";
width = 614;
}
);
leftKerningGroup = G;
rightKerningGroup = G;
unicode = 0122;
},
{
glyphname = H;
layers = (
{
anchors = (
{
name = bottom;
position = "{286, 0}";
},
{
name = center;
position = "{370, 306}";
},
{
name = top;
position = "{405, 611}";
}
);
background = {
paths = (
{
closed = 1;
nodes = (
"253 559 LINE",
"336 578 LINE",
"341 611 LINE",
"106 611 LINE",
"101 578 LINE",
"175 559 LINE",
"77 53 LINE",
"-5 33 LINE",
"-11 0 LINE",
"224 0 LINE",
"230 33 LINE",
"155 53 LINE",
"199 280 LINE",
"466 280 LINE",
"422 53 LINE",
"340 33 LINE",
"334 0 LINE",
"570 0 LINE",
"576 33 LINE",
"500 53 LINE",
"598 559 LINE",
"680 578 LINE",
"686 611 LINE",
"451 611 LINE",
"445 578 LINE",
"520 559 LINE",
"475 329 LINE",
"208 329 LINE"
);
}
);
};
layerId = "27799D80-F866-457E-9382-0097DC0AFC53";
paths = (
{
closed = 1;
nodes = (
"228 0 LINE",
"234 33 LINE",
"159 53 LINE",
"203 280 LINE",
"470 280 LINE",
"426 53 LINE",
"344 33 LINE",
"338 0 LINE",
"574 0 LINE",
"580 33 LINE",
"504 53 LINE",
"602 559 LINE",
"684 578 LINE",
"690 611 LINE",
"455 611 LINE",
"449 578 LINE",
"524 559 LINE",
"479 329 LINE",
"212 329 LINE",
"257 559 LINE",
"340 578 LINE",
"345 611 LINE",
"110 611 LINE",
"105 578 LINE",
"179 559 LINE",
"81 53 LINE",
"-1 33 LINE",
"-7 0 LINE"
);
}
);
width = 660;
},
{
anchors = (
{
name = bottom;
position = "{304, 0}";
},
{
name = center;
position = "{388, 307}";
},
{
name = top;
position = "{424, 614}";
}
);
background = {
paths = (
{
closed = 1;
nodes = (
"628 0 LINE",
"636 45 LINE",
"561 69 LINE",
"654 546 LINE",
"738 569 LINE",
"747 614 LINE",
"451 614 LINE",
"442 569 LINE",
"518 546 LINE",
"478 338 LINE",
"266 338 LINE",
"306 546 LINE",
"390 569 LINE",
"399 614 LINE",
"103 614 LINE",
"94 569 LINE",
"170 546 LINE",
"77 69 LINE",
"-7 45 LINE",
"-15 0 LINE",
"280 0 LINE",
"288 45 LINE",
"213 69 LINE",
"253 272 LINE",
"465 272 LINE",
"425 69 LINE",
"341 45 LINE",
"333 0 LINE"
);
}
);
};
layerId = "91FB354D-039B-406A-8F87-4ABC8510003D";
paths = (
{
closed = 1;
nodes = (
"279 0 LINE",
"287 45 LINE",
"212 69 LINE",
"252 272 LINE",
"464 272 LINE",
"424 69 LINE",
"340 45 LINE",
"332 0 LINE",
"627 0 LINE",
"635 45 LINE",
"560 69 LINE",
"653 546 LINE",
"737 569 LINE",
"746 614 LINE",
"450 614 LINE",
"441 569 LINE",
"517 546 LINE",
"477 338 LINE",
"265 338 LINE",
"305 546 LINE",
"389 569 LINE",
"398 614 LINE",
"102 614 LINE",
"93 569 LINE",
"169 546 LINE",
"76 69 LINE",
"-8 45 LINE",
"-16 0 LINE"
);
}
);
width = 705;
},
{
anchors = (
{
name = bottom;
position = "{286, 0}";
},
{
name = center;
position = "{370, 306}";
},
{
name = top;
position = "{405, 610}";
}
);
layerId = "44981724-2b4e-42be-8f7f-300520b6a406";
paths = (
{
closed = 1;
nodes = (
"214 0 LINE",
"219 30 LINE",
"144 49 LINE",
"189 282 LINE",
"471 282 LINE",
"426 49 LINE",
"345 30 LINE",
"339 0 LINE",
"559 0 LINE",
"565 30 LINE",
"488 49 LINE",
"588 563 LINE",
"669 580 LINE",
"674 610 LINE",
"456 610 LINE",
"451 580 LINE",
"526 563 LINE",
"479 327 LINE",
"197 327 LINE",
"244 563 LINE",
"326 580 LINE",
"330 610 LINE",
"112 610 LINE",
"108 580 LINE",
"181 563 LINE",
"82 49 LINE",
"1 30 LINE",
"-5 0 LINE"
);
}
);
width = 648;
},
{
anchors = (
{
name = bottom;
position = "{310, 0}";
},
{
name = center;
position = "{394, 307}";
},
{
name = top;
position = "{431, 615}";
}
);
layerId = "8454c77d-11ac-4429-aa94-301a0d22d44f";
paths = (
{
closed = 1;
nodes = (
"297 0 LINE",
"306 49 LINE",
"231 75 LINE",
"269 269 LINE",
"462 269 LINE",
"423 75 LINE",
"338 49 LINE",
"330 0 LINE",
"647 0 LINE",
"655 49 LINE",
"581 75 LINE",
"672 541 LINE",
"757 566 LINE",
"767 615 LINE",
"448 615 LINE",
"438 566 LINE",
"514 541 LINE",
"476 341 LINE",
"284 341 LINE",
"322 541 LINE",
"406 566 LINE",
"417 615 LINE",
"99 615 LINE",
"89 566 LINE",
"165 541 LINE",
"74 75 LINE",
"-11 49 LINE",
"-19 0 LINE"
);
}
);
width = 722;
}
);
leftKerningGroup = H;
rightKerningGroup = H;
unicode = 0048;
},
{
glyphname = Hbar;
layers = (
{
background = {
paths = (
{
closed = 1;
nodes = (
"570 0 LINE",
"576 33 LINE",
"500 53 LINE",
"598 559 LINE",
"680 578 LINE",
"686 611 LINE",
"451 611 LINE",
"445 578 LINE",
"520 559 LINE",
"422 53 LINE",
"340 33 LINE",
"334 0 LINE"
);
},
{
closed = 1;
nodes = (
"224 0 LINE",
"230 33 LINE",
"155 53 LINE",
"253 559 LINE",
"336 578 LINE",
"341 611 LINE",
"106 611 LINE",
"101 578 LINE",
"175 559 LINE",
"77 53 LINE",
"-5 33 LINE",
"-11 0 LINE"
);
},
{
closed = 1;
nodes = (
"478 250 LINE",
"487 299 LINE",
"196 299 LINE",
"187 250 LINE"
);
},
{
closed = 1;
nodes = (
"641 393 LINE",
"650 439 LINE",
"76 439 LINE",
"67 393 LINE"
);
}
);
};
components = (
{
name = H;
}
);
guideLines = (
{
angle = 79;
position = "{66, 379}";
},
{
angle = 79;
position = "{644, 379}";
},
{
angle = 79;
position = "{355, 379}";
}
);
layerId = "27799D80-F866-457E-9382-0097DC0AFC53";
paths = (
{
closed = 1;
nodes = (
"651 423 LINE",
"660 469 LINE",
"86 469 LINE",
"77 423 LINE"
);
}
);
width = 660;
},
{
background = {
paths = (
{
closed = 1;
nodes = (
"628 0 LINE",
"636 45 LINE",
"561 69 LINE",
"654 546 LINE",
"738 569 LINE",
"747 614 LINE",
"451 614 LINE",
"442 569 LINE",
"518 546 LINE",
"425 69 LINE",
"341 45 LINE",
"333 0 LINE"
);
},
{
closed = 1;
nodes = (
"280 0 LINE",
"288 45 LINE",
"213 69 LINE",
"306 546 LINE",
"390 569 LINE",
"399 614 LINE",
"103 614 LINE",
"94 569 LINE",
"170 546 LINE",
"77 69 LINE",
"-7 45 LINE",
"-15 0 LINE"
);
},
{
closed = 1;
nodes = (
"479 241 LINE",
"492 307 LINE",
"248 307 LINE",
"235 241 LINE"
);
}
);
};
components = (
{
name = H;
}
);
guideLines = (
{
angle = 79;
position = "{61, 379}";
},
{
angle = 79;
position = "{697, 379}";
},
{
angle = 79;
position = "{379, 379}";
}
);
layerId = "91FB354D-039B-406A-8F87-4ABC8510003D";
paths = (
{
closed = 1;
nodes = (
"706 421 LINE",
"717 476 LINE",
"81 476 LINE",
"70 421 LINE"
);
}
);
width = 705;
},
{
background = {
paths = (
{
closed = 1;
nodes = (
"554 0 LINE",
"560 30 LINE",
"483 49 LINE",
"583 563 LINE",
"664 580 LINE",
"669 610 LINE",
"451 610 LINE",
"446 580 LINE",
"521 563 LINE",
"421 49 LINE",
"340 30 LINE",
"334 0 LINE"
);
},
{
closed = 1;
nodes = (
"209 0 LINE",
"214 30 LINE",
"139 49 LINE",
"239 563 LINE",
"321 580 LINE",
"325 610 LINE",
"107 610 LINE",
"103 580 LINE",
"176 563 LINE",
"77 49 LINE",
"-4 30 LINE",
"-10 0 LINE"
);
},
{
closed = 1;
nodes = (
"478 252 LINE",
"486 297 LINE",
"182 297 LINE",
"174 252 LINE"
);
},
{
closed = 1;
nodes = (
"625 394 LINE",
"634 437 LINE",
"77 437 LINE",
"68 394 LINE"
);
}
);
};
components = (
{
name = H;
}
);
layerId = "44981724-2b4e-42be-8f7f-300520b6a406";
paths = (
{
closed = 1;
nodes = (
"634 424 LINE",
"643 468 LINE",
"86 468 LINE",
"77 424 LINE"
);
}
);
width = 648;
},
{
background = {
paths = (
{
closed = 1;
nodes = (
"649 0 LINE",
"657 49 LINE",
"583 75 LINE",
"674 541 LINE",
"759 566 LINE",
"769 615 LINE",
"451 615 LINE",
"441 566 LINE",
"517 541 LINE",
"426 75 LINE",
"341 49 LINE",
"333 0 LINE"
);
},
{
closed = 1;
nodes = (
"300 0 LINE",
"309 49 LINE",
"234 75 LINE",
"325 541 LINE",
"409 566 LINE",
"420 615 LINE",
"102 615 LINE",
"92 566 LINE",
"168 541 LINE",
"77 75 LINE",
"-8 49 LINE",
"-16 0 LINE"
);
},
{
closed = 1;
nodes = (
"479 238 LINE",
"494 310 LINE",
"266 310 LINE",
"252 238 LINE"
);
},
{
closed = 1;
nodes = (
"720 389 LINE",
"731 447 LINE",
"73 447 LINE",
"62 389 LINE"
);
}
);
};
components = (
{
name = H;
}
);
layerId = "8454c77d-11ac-4429-aa94-301a0d22d44f";
paths = (
{
closed = 1;
nodes = (
"724 417 LINE",
"735 475 LINE",
"77 475 LINE",
"66 417 LINE"
);
}
);
width = 722;
}
);
leftKerningGroup = H;
leftMetricsKey = H;
rightKerningGroup = H;
rightMetricsKey = H;
unicode = 0126;
},
{
glyphname = I;
layers = (
{
anchors = (
{
name = bottom;
position = "{119, 0}";
},
{
name = ogonek;
position = "{250, 10}";
},
{
name = top;
position = "{234, 611}";
}
);
background = {
paths = (
{
closed = 1;
nodes = (
"104 578 LINE",
"184 558 LINE",
"86 53 LINE",
"-2 33 LINE",
"-8 0 LINE",
"239 0 LINE",
"245 33 LINE",
"164 53 LINE",
"262 558 LINE",
"351 578 LINE",
"357 611 LINE",
"110 611 LINE"
);
}
);
};
layerId = "27799D80-F866-457E-9382-0097DC0AFC53";
paths = (
{
closed = 1;
nodes = (
"239 0 LINE",
"245 33 LINE",
"164 53 LINE",
"262 558 LINE",
"351 578 LINE",
"357 611 LINE",
"110 611 LINE",
"104 578 LINE",
"184 558 LINE",
"86 53 LINE",
"-2 33 LINE",
"-8 0 LINE"
);
}
);
width = 325;
},
{
anchors = (
{
name = bottom;
position = "{128, 0}";
},
{
name = ogonek;
position = "{270, 10}";
},
{
name = top;
position = "{248, 614}";
}
);
background = {
paths = (
{
closed = 1;
nodes = (
"305 546 LINE",
"389 569 LINE",
"398 614 LINE",
"102 614 LINE",
"93 569 LINE",
"169 546 LINE",
"76 69 LINE",
"-8 45 LINE",
"-16 0 LINE",
"279 0 LINE",
"287 45 LINE",
"212 69 LINE"
);
}
);
};
layerId = "91FB354D-039B-406A-8F87-4ABC8510003D";
paths = (
{
closed = 1;
nodes = (
"279 0 LINE",
"287 45 LINE",
"212 69 LINE",
"305 546 LINE",
"389 569 LINE",
"398 614 LINE",
"102 614 LINE",
"93 569 LINE",
"169 546 LINE",
"76 69 LINE",
"-8 45 LINE",
"-16 0 LINE"
);
}
);
width = 357;
},
{
anchors = (
{
name = bottom;
position = "{116, 0}";
},
{
name = ogonek;
position = "{244, 10}";
},
{
name = top;
position = "{228, 610}";
}
);
layerId = "44981724-2b4e-42be-8f7f-300520b6a406";
paths = (
{
closed = 1;
nodes = (
"228 0 LINE",
"233 30 LINE",
"150 49 LINE",
"250 561 LINE",
"340 580 LINE",
"345 610 LINE",
"112 610 LINE",
"106 580 LINE",
"187 561 LINE",
"88 49 LINE",
"-1 30 LINE",
"-6 0 LINE"
);
}
);
width = 317;
},
{
anchors = (
{
name = bottom;
position = "{134, 0}";
},
{
name = ogonek;
position = "{277, 10}";
},
{
name = top;
position = "{256, 615}";
}
);
layerId = "8454c77d-11ac-4429-aa94-301a0d22d44f";
paths = (
{
closed = 1;
nodes = (
"293 0 LINE",
"302 49 LINE",
"229 75 LINE",
"320 542 LINE",
"403 566 LINE",
"413 615 LINE",
"99 615 LINE",
"89 566 LINE",
"164 542 LINE",
"73 75 LINE",
"-10 49 LINE",
"-19 0 LINE"
);
}
);
width = 368;
}
);
leftKerningGroup = H;
leftMetricsKey = H;
rightKerningGroup = H;
rightMetricsKey = H;
unicode = 0049;
},
{
glyphname = Iacute;
layers = (
{
background = {
paths = (
{
closed = 1;
nodes = (
"242 0 LINE",
"248 33 LINE",
"167 53 LINE",
"265 558 LINE",
"354 578 LINE",
"360 611 LINE",
"113 611 LINE",
"107 578 LINE",
"187 558 LINE",
"89 53 LINE",
"1 33 LINE",
"-5 0 LINE"
);
},
{
closed = 1;
nodes = (
"369 754 LINE",
"369 772 LINE",
"293 800 LINE",
"139 670 LINE",
"155 651 LINE"
);
}
);
};
components = (
{
name = I;
},
{
name = acutecomb.case;
transform = "{1, 0, 0, 1, 74, 0}";
}
);
layerId = "27799D80-F866-457E-9382-0097DC0AFC53";
width = 325;
},
{
background = {
paths = (
{
closed = 1;
nodes = (
"282 0 LINE",
"290 45 LINE",
"215 69 LINE",
"308 546 LINE",
"392 569 LINE",
"401 614 LINE",
"105 614 LINE",
"96 569 LINE",
"172 546 LINE",
"79 69 LINE",
"-5 45 LINE",
"-13 0 LINE"
);
},
{
closed = 1;
nodes = (
"411 743 LINE",
"411 766 LINE",
"312 800 LINE",
"156 669 LINE",
"183 634 LINE"
);
}
);
};
components = (
{
name = I;
},
{
name = acutecomb.case;
transform = "{1, 0, 0, 1, 76, 0}";
}
);
layerId = "91FB354D-039B-406A-8F87-4ABC8510003D";
width = 357;
},
{
background = {
paths = (
{
closed = 1;
nodes = (
"231 0 LINE",
"237 30 LINE",
"154 49 LINE",
"253 561 LINE",
"344 580 LINE",
"349 610 LINE",
"115 610 LINE",
"110 580 LINE",
"191 561 LINE",
"92 49 LINE",
"3 30 LINE",
"-3 0 LINE"
);
},
{
closed = 1;
nodes = (
"358 757 LINE",
"358 774 LINE",
"288 800 LINE",
"134 670 LINE",
"147 656 LINE"
);
}
);
};
components = (
{
name = I;
},
{
name = acutecomb.case;
transform = "{1, 0, 0, 1, 77, 0}";
}
);
layerId = "44981724-2b4e-42be-8f7f-300520b6a406";
width = 317;
},
{
background = {
paths = (
{
closed = 1;
nodes = (
"296 0 LINE",
"305 49 LINE",
"232 75 LINE",
"323 542 LINE",
"405 566 LINE",
"416 615 LINE",
"102 615 LINE",
"92 566 LINE",
"167 542 LINE",
"75 75 LINE",
"-7 49 LINE",
"-16 0 LINE"
);
},
{
closed = 1;
nodes = (
"426 739 LINE",
"426 764 LINE",
"319 800 LINE",
"162 669 LINE",
"193 628 LINE"
);
}
);
};
components = (
{
name = I;
},
{
name = acutecomb.case;
transform = "{1, 0, 0, 1, 73, 0}";
}
);
layerId = "8454c77d-11ac-4429-aa94-301a0d22d44f";
width = 368;
}
);
leftKerningGroup = H;
rightKerningGroup = H;
unicode = 00CD;
},
{
glyphname = Icircumflex;
layers = (
{
background = {
paths = (
{
closed = 1;
nodes = (
"242 0 LINE",
"248 33 LINE",
"167 53 LINE",
"265 558 LINE",
"354 578 LINE",
"360 611 LINE",
"113 611 LINE",
"107 578 LINE",
"187 558 LINE",
"89 53 LINE",
"1 33 LINE",
"-5 0 LINE"
);
},
{
closed = 1;
nodes = (
"266 735 LINE",
"360 650 LINE",
"386 669 LINE",
"307 804 LINE",
"247 804 LINE",
"108 669 LINE",
"128 650 LINE"
);
}
);
};
components = (
{
name = I;
},
{
name = circumflexcomb.case;
transform = "{1, 0, 0, 1, 25, 0}";
}
);
layerId = "27799D80-F866-457E-9382-0097DC0AFC53";
width = 325;
},
{
background = {
paths = (
{
closed = 1;
nodes = (
"282 0 LINE",
"290 45 LINE",
"215 69 LINE",
"308 546 LINE",
"392 569 LINE",
"401 614 LINE",
"105 614 LINE",
"96 569 LINE",
"172 546 LINE",
"79 69 LINE",
"-5 45 LINE",
"-13 0 LINE"
);
},
{
closed = 1;
nodes = (
"272 707 LINE",
"380 639 LINE",
"410 665 LINE",
"328 795 LINE",
"243 795 LINE",
"115 669 LINE",
"138 639 LINE"
);
}
);
};
components = (
{
name = I;
},
{
name = circumflexcomb.case;
transform = "{1, 0, 0, 1, 47, 0}";
}
);
layerId = "91FB354D-039B-406A-8F87-4ABC8510003D";
width = 357;
},
{
background = {
paths = (
{
closed = 1;
nodes = (
"231 0 LINE",
"237 30 LINE",
"154 49 LINE",
"253 561 LINE",
"344 580 LINE",
"349 610 LINE",
"115 610 LINE",
"110 580 LINE",
"191 561 LINE",
"92 49 LINE",
"3 30 LINE",
"-3 0 LINE"
);
},
{
closed = 1;
nodes = (
"264 743 LINE",
"355 653 LINE",
"380 670 LINE",
"301 806 LINE",
"248 806 LINE",
"106 669 LINE",
"125 653 LINE"
);
}
);
};
components = (
{
name = I;
},
{
name = circumflexcomb.case;
transform = "{1, 0, 0, 1, 20, 0}";
}
);
layerId = "44981724-2b4e-42be-8f7f-300520b6a406";
width = 317;
},
{
background = {
paths = (
{
closed = 1;
nodes = (
"296 0 LINE",
"305 49 LINE",
"232 75 LINE",
"323 542 LINE",
"405 566 LINE",
"416 615 LINE",
"102 615 LINE",
"92 566 LINE",
"167 542 LINE",
"75 75 LINE",
"-7 49 LINE",
"-16 0 LINE"
);
},
{
closed = 1;
nodes = (
"274 697 LINE",
"387 635 LINE",
"419 664 LINE",
"335 792 LINE",
"242 792 LINE",
"117 669 LINE",
"142 635 LINE"
);
}
);
};
components = (
{
name = I;
},
{
name = circumflexcomb.case;
transform = "{1, 0, 0, 1, 54, 0}";
}
);
layerId = "8454c77d-11ac-4429-aa94-301a0d22d44f";
width = 368;
}
);
leftKerningGroup = H;
rightKerningGroup = H;
unicode = 00CE;
},
{
glyphname = Idieresis;
layers = (
{
background = {
paths = (
{
closed = 1;
nodes = (
"242 0 LINE",
"248 33 LINE",
"167 53 LINE",
"265 558 LINE",
"354 578 LINE",
"360 611 LINE",
"113 611 LINE",
"107 578 LINE",
"187 558 LINE",
"89 53 LINE",
"1 33 LINE",
"-5 0 LINE"
);
},
{
closed = 1;
nodes = (
"186 671 OFFCURVE",
"213 696 OFFCURVE",
"213 726 CURVE SMOOTH",
"213 758 OFFCURVE",
"186 784 OFFCURVE",
"156 784 CURVE SMOOTH",
"126 784 OFFCURVE",
"99 758 OFFCURVE",
"99 726 CURVE SMOOTH",
"99 696 OFFCURVE",
"126 671 OFFCURVE",
"156 671 CURVE SMOOTH"
);
},
{
closed = 1;
nodes = (
"380 671 OFFCURVE",
"408 696 OFFCURVE",
"408 726 CURVE SMOOTH",
"408 758 OFFCURVE",
"380 784 OFFCURVE",
"350 784 CURVE SMOOTH",
"320 784 OFFCURVE",
"293 758 OFFCURVE",
"293 726 CURVE SMOOTH",
"293 696 OFFCURVE",
"320 671 OFFCURVE",
"350 671 CURVE SMOOTH"
);
}
);
};
components = (
{
name = I;
},
{
name = dieresiscomb.case;
transform = "{1, 0, 0, 1, 1, 0}";
}
);
layerId = "27799D80-F866-457E-9382-0097DC0AFC53";
width = 325;
},
{
background = {
paths = (
{
closed = 1;
nodes = (
"282 0 LINE",
"290 45 LINE",
"215 69 LINE",
"308 546 LINE",
"392 569 LINE",
"401 614 LINE",
"105 614 LINE",
"96 569 LINE",
"172 546 LINE",
"79 69 LINE",
"-5 45 LINE",
"-13 0 LINE"
);
},
{
closed = 1;
nodes = (
"198 647 OFFCURVE",
"232 677 OFFCURVE",
"232 719 CURVE SMOOTH",
"232 760 OFFCURVE",
"198 792 OFFCURVE",
"158 792 CURVE SMOOTH",
"117 792 OFFCURVE",
"80 760 OFFCURVE",
"80 719 CURVE SMOOTH",
"80 677 OFFCURVE",
"117 647 OFFCURVE",
"158 647 CURVE SMOOTH"
);
},
{
closed = 1;
nodes = (
"428 647 OFFCURVE",
"463 677 OFFCURVE",
"463 719 CURVE SMOOTH",
"463 760 OFFCURVE",
"428 792 OFFCURVE",
"390 792 CURVE SMOOTH",
"348 792 OFFCURVE",
"313 760 OFFCURVE",
"313 719 CURVE SMOOTH",
"313 677 OFFCURVE",
"348 647 OFFCURVE",
"390 647 CURVE SMOOTH"
);
}
);
};
components = (
{
name = I;
},
{
name = dieresiscomb.case;
transform = "{1, 0, 0, 1, -24, 0}";
}
);
layerId = "91FB354D-039B-406A-8F87-4ABC8510003D";
width = 357;
},
{
background = {
paths = (
{
closed = 1;
nodes = (
"231 0 LINE",
"237 30 LINE",
"154 49 LINE",
"253 561 LINE",
"344 580 LINE",
"349 610 LINE",
"115 610 LINE",
"110 580 LINE",
"191 561 LINE",
"92 49 LINE",
"3 30 LINE",
"-3 0 LINE"
);
},
{
closed = 1;
nodes = (
"183 678 OFFCURVE",
"208 701 OFFCURVE",
"208 728 CURVE SMOOTH",
"208 757 OFFCURVE",
"183 782 OFFCURVE",
"155 782 CURVE SMOOTH",
"128 782 OFFCURVE",
"104 757 OFFCURVE",
"104 728 CURVE SMOOTH",
"104 701 OFFCURVE",
"128 678 OFFCURVE",
"155 678 CURVE SMOOTH"
);
},
{
closed = 1;
nodes = (
"367 678 OFFCURVE",
"393 701 OFFCURVE",
"393 728 CURVE SMOOTH",
"393 757 OFFCURVE",
"367 782 OFFCURVE",
"339 782 CURVE SMOOTH",
"312 782 OFFCURVE",
"288 757 OFFCURVE",
"288 728 CURVE SMOOTH",
"288 701 OFFCURVE",
"312 678 OFFCURVE",
"339 678 CURVE SMOOTH"
);
}
);
};
components = (
{
name = I;
},
{
name = dieresiscomb.case;
transform = "{1, 0, 0, 1, 4, 0}";
}
);
layerId = "44981724-2b4e-42be-8f7f-300520b6a406";
width = 317;
},
{
background = {
paths = (
{
closed = 1;
nodes = (
"296 0 LINE",
"305 49 LINE",
"232 75 LINE",
"323 542 LINE",
"405 566 LINE",
"416 615 LINE",
"102 615 LINE",
"92 566 LINE",
"167 542 LINE",
"75 75 LINE",
"-7 49 LINE",
"-16 0 LINE"
);
},
{
closed = 1;
nodes = (
"202 639 OFFCURVE",
"239 670 OFFCURVE",
"239 717 CURVE SMOOTH",
"239 761 OFFCURVE",
"202 795 OFFCURVE",
"159 795 CURVE SMOOTH",
"114 795 OFFCURVE",
"73 761 OFFCURVE",
"73 717 CURVE SMOOTH",
"73 670 OFFCURVE",
"114 639 OFFCURVE",
"159 639 CURVE SMOOTH"
);
},
{
closed = 1;
nodes = (
"445 639 OFFCURVE",
"482 670 OFFCURVE",
"482 717 CURVE SMOOTH",
"482 761 OFFCURVE",
"445 795 OFFCURVE",
"404 795 CURVE SMOOTH",
"358 795 OFFCURVE",
"320 761 OFFCURVE",
"320 717 CURVE SMOOTH",
"320 670 OFFCURVE",
"358 639 OFFCURVE",
"404 639 CURVE SMOOTH"
);
}
);
};
components = (
{
name = I;
},
{
name = dieresiscomb.case;
transform = "{1, 0, 0, 1, -30, 0}";
}
);
layerId = "8454c77d-11ac-4429-aa94-301a0d22d44f";
width = 368;
}
);
leftKerningGroup = H;
rightKerningGroup = H;
unicode = 00CF;
},
{
glyphname = Idotaccent;
layers = (
{
background = {
paths = (
{
closed = 1;
nodes = (
"242 0 LINE",
"248 33 LINE",
"167 53 LINE",
"265 558 LINE",
"354 578 LINE",
"360 611 LINE",
"113 611 LINE",
"107 578 LINE",
"187 558 LINE",
"89 53 LINE",
"1 33 LINE",
"-5 0 LINE"
);
},
{
closed = 1;
nodes = (
"285 668 OFFCURVE",
"314 692 OFFCURVE",
"314 725 CURVE SMOOTH",
"314 758 OFFCURVE",
"285 785 OFFCURVE",
"254 785 CURVE SMOOTH",
"222 785 OFFCURVE",
"194 758 OFFCURVE",
"194 725 CURVE SMOOTH",
"194 692 OFFCURVE",
"222 668 OFFCURVE",
"254 668 CURVE SMOOTH"
);
}
);
};
components = (
{
name = I;
},
{
name = dotaccentcomb.case;
transform = "{1, 0, 0, 1, 102, 0}";
}
);
layerId = "27799D80-F866-457E-9382-0097DC0AFC53";
width = 325;
},
{
background = {
paths = (
{
closed = 1;
nodes = (
"282 0 LINE",
"290 45 LINE",
"215 69 LINE",
"308 546 LINE",
"392 569 LINE",
"401 614 LINE",
"105 614 LINE",
"96 569 LINE",
"172 546 LINE",
"79 69 LINE",
"-5 45 LINE",
"-13 0 LINE"
);
},
{
closed = 1;
nodes = (
"318 635 OFFCURVE",
"355 670 OFFCURVE",
"355 715 CURVE SMOOTH",
"355 760 OFFCURVE",
"318 799 OFFCURVE",
"273 799 CURVE SMOOTH",
"228 799 OFFCURVE",
"187 760 OFFCURVE",
"187 715 CURVE SMOOTH",
"187 670 OFFCURVE",
"228 635 OFFCURVE",
"273 635 CURVE SMOOTH"
);
}
);
};
components = (
{
name = I;
},
{
name = dotaccentcomb.case;
transform = "{1, 0, 0, 1, 91, 0}";
}
);
layerId = "91FB354D-039B-406A-8F87-4ABC8510003D";
width = 357;
},
{
background = {
paths = (
{
closed = 1;
nodes = (
"231 0 LINE",
"237 30 LINE",
"154 49 LINE",
"253 561 LINE",
"344 580 LINE",
"349 610 LINE",
"115 610 LINE",
"110 580 LINE",
"191 561 LINE",
"92 49 LINE",
"3 30 LINE",
"-3 0 LINE"
);
},
{
closed = 1;
nodes = (
"276 677 OFFCURVE",
"303 698 OFFCURVE",
"303 728 CURVE SMOOTH",
"303 757 OFFCURVE",
"276 781 OFFCURVE",
"249 781 CURVE SMOOTH",
"220 781 OFFCURVE",
"196 757 OFFCURVE",
"196 728 CURVE SMOOTH",
"196 698 OFFCURVE",
"220 677 OFFCURVE",
"249 677 CURVE SMOOTH"
);
}
);
};
components = (
{
name = I;
},
{
name = dotaccentcomb.case;
transform = "{1, 0, 0, 1, 102, 0}";
}
);
layerId = "44981724-2b4e-42be-8f7f-300520b6a406";
width = 317;
},
{
background = {
paths = (
{
closed = 1;
nodes = (
"296 0 LINE",
"305 49 LINE",
"232 75 LINE",
"323 542 LINE",
"405 566 LINE",
"416 615 LINE",
"102 615 LINE",
"92 566 LINE",
"167 542 LINE",
"75 75 LINE",
"-7 49 LINE",
"-16 0 LINE"
);
},
{
closed = 1;
nodes = (
"330 623 OFFCURVE",
"370 662 OFFCURVE",
"370 711 CURVE SMOOTH",
"370 761 OFFCURVE",
"330 804 OFFCURVE",
"280 804 CURVE SMOOTH",
"230 804 OFFCURVE",
"185 761 OFFCURVE",
"185 711 CURVE SMOOTH",
"185 662 OFFCURVE",
"230 623 OFFCURVE",
"280 623 CURVE SMOOTH"
);
}
);
};
components = (
{
name = I;
},
{
name = dotaccentcomb.case;
transform = "{1, 0, 0, 1, 91, 0}";
}
);
layerId = "8454c77d-11ac-4429-aa94-301a0d22d44f";
width = 368;
}
);
leftKerningGroup = H;
rightKerningGroup = H;
unicode = 0130;
},
{
glyphname = Igrave;
layers = (
{
background = {
paths = (
{
closed = 1;
nodes = (
"242 0 LINE",
"248 33 LINE",
"167 53 LINE",
"265 558 LINE",
"354 578 LINE",
"360 611 LINE",
"113 611 LINE",
"107 578 LINE",
"187 558 LINE",
"89 53 LINE",
"1 33 LINE",
"-5 0 LINE"
);
},
{
closed = 1;
nodes = (
"369 670 LINE",
"215 800 LINE",
"139 772 LINE",
"139 754 LINE",
"353 651 LINE"
);
}
);
};
components = (
{
name = I;
},
{
name = gravecomb.case;
transform = "{1, 0, 0, 1, 13, 0}";
}
);
layerId = "27799D80-F866-457E-9382-0097DC0AFC53";
width = 325;
},
{
background = {
paths = (
{
closed = 1;
nodes = (
"282 0 LINE",
"290 45 LINE",
"215 69 LINE",
"308 546 LINE",
"392 569 LINE",
"401 614 LINE",
"105 614 LINE",
"96 569 LINE",
"172 546 LINE",
"79 69 LINE",
"-5 45 LINE",
"-13 0 LINE"
);
},
{
closed = 1;
nodes = (
"370 669 LINE",
"216 800 LINE",
"119 766 LINE",
"115 743 LINE",
"347 634 LINE"
);
}
);
};
components = (
{
name = I;
},
{
name = gravecomb.case;
transform = "{1, 0, 0, 1, 1, 0}";
}
);
layerId = "91FB354D-039B-406A-8F87-4ABC8510003D";
width = 357;
},
{
background = {
paths = (
{
closed = 1;
nodes = (
"231 0 LINE",
"237 30 LINE",
"154 49 LINE",
"253 561 LINE",
"344 580 LINE",
"349 610 LINE",
"115 610 LINE",
"110 580 LINE",
"191 561 LINE",
"92 49 LINE",
"3 30 LINE",
"-3 0 LINE"
);
},
{
closed = 1;
nodes = (
"369 670 LINE",
"215 800 LINE",
"144 774 LINE",
"145 757 LINE",
"355 656 LINE"
);
}
);
};
components = (
{
name = I;
},
{
name = gravecomb.case;
transform = "{1, 0, 0, 1, 10, 0}";
}
);
layerId = "44981724-2b4e-42be-8f7f-300520b6a406";
width = 317;
},
{
background = {
paths = (
{
closed = 1;
nodes = (
"296 0 LINE",
"305 49 LINE",
"232 75 LINE",
"323 542 LINE",
"405 566 LINE",
"416 615 LINE",
"102 615 LINE",
"92 566 LINE",
"167 542 LINE",
"75 75 LINE",
"-7 49 LINE",
"-16 0 LINE"
);
},
{
closed = 1;
nodes = (
"370 669 LINE",
"216 800 LINE",
"112 764 LINE",
"107 739 LINE",
"345 628 LINE"
);
}
);
};
components = (
{
name = I;
},
{
name = gravecomb.case;
transform = "{1, 0, 0, 1, 12, 0}";
}
);
layerId = "8454c77d-11ac-4429-aa94-301a0d22d44f";
width = 368;
}
);
leftKerningGroup = H;
rightKerningGroup = H;
unicode = 00CC;
},
{
glyphname = Imacron;
layers = (
{
background = {
paths = (
{
closed = 1;
nodes = (
"242 0 LINE",
"248 33 LINE",
"167 53 LINE",
"265 558 LINE",
"354 578 LINE",
"360 611 LINE",
"113 611 LINE",
"107 578 LINE",
"187 558 LINE",
"89 53 LINE",
"1 33 LINE",
"-5 0 LINE"
);
},
{
closed = 1;
nodes = (
"361 697 LINE",
"369 749 LINE",
"152 749 LINE",
"144 697 LINE"
);
}
);
};
components = (
{
name = I;
},
{
name = macroncomb.case;
transform = "{1, 0, 0, 1, 41, 0}";
}
);
layerId = "27799D80-F866-457E-9382-0097DC0AFC53";
width = 325;
},
{
background = {
paths = (
{
closed = 1;
nodes = (
"282 0 LINE",
"290 45 LINE",
"215 69 LINE",
"308 546 LINE",
"392 569 LINE",
"401 614 LINE",
"105 614 LINE",
"96 569 LINE",
"172 546 LINE",
"79 69 LINE",
"-5 45 LINE",
"-13 0 LINE"
);
},
{
closed = 1;
nodes = (
"407 679 LINE",
"418 758 LINE",
"157 758 LINE",
"146 679 LINE"
);
}
);
};
components = (
{
name = I;
},
{
name = macroncomb.case;
transform = "{1, 0, 0, 1, 41, 0}";
}
);
layerId = "91FB354D-039B-406A-8F87-4ABC8510003D";
width = 357;
},
{
background = {
paths = (
{
closed = 1;
nodes = (
"231 0 LINE",
"237 30 LINE",
"154 49 LINE",
"253 561 LINE",
"344 580 LINE",
"349 610 LINE",
"115 610 LINE",
"110 580 LINE",
"191 561 LINE",
"92 49 LINE",
"3 30 LINE",
"-3 0 LINE"
);
},
{
closed = 1;
nodes = (
"349 702 LINE",
"356 747 LINE",
"151 747 LINE",
"143 702 LINE"
);
}
);
};
components = (
{
name = I;
},
{
name = macroncomb.case;
transform = "{1, 0, 0, 1, 40, 0}";
}
);
layerId = "44981724-2b4e-42be-8f7f-300520b6a406";
width = 317;
},
{
background = {
paths = (
{
closed = 1;
nodes = (
"296 0 LINE",
"305 49 LINE",
"232 75 LINE",
"323 542 LINE",
"405 566 LINE",
"416 615 LINE",
"102 615 LINE",
"92 566 LINE",
"167 542 LINE",
"75 75 LINE",
"-7 49 LINE",
"-16 0 LINE"
);
},
{
closed = 1;
nodes = (
"423 673 LINE",
"435 761 LINE",
"159 761 LINE",
"147 673 LINE"
);
}
);
};
components = (
{
name = I;
},
{
name = macroncomb.case;
transform = "{1, 0, 0, 1, 43, 0}";
}
);
layerId = "8454c77d-11ac-4429-aa94-301a0d22d44f";
width = 368;
}
);
leftKerningGroup = H;
unicode = 012A;
},
{
glyphname = Iogonek;
layers = (
{
background = {
paths = (
{
closed = 1;
nodes = (
"104 578 LINE",
"184 558 LINE",
"86 53 LINE",
"-2 33 LINE",
"-8 0 LINE",
"182 0 LINE",
"97 -46 OFFCURVE",
"58 -111 OFFCURVE",
"58 -165 CURVE SMOOTH",
"58 -203 OFFCURVE",
"81 -236 OFFCURVE",
"141 -236 CURVE SMOOTH",
"205 -236 OFFCURVE",
"242 -186 OFFCURVE",
"242 -186 CURVE",
"228 -170 LINE",
"210 -186 OFFCURVE",
"191 -192 OFFCURVE",
"175 -192 CURVE SMOOTH",
"145 -192 OFFCURVE",
"127 -176 OFFCURVE",
"127 -145 CURVE SMOOTH",
"127 -91 OFFCURVE",
"173 -32 OFFCURVE",
"239 0 CURVE",
"245 33 LINE",
"164 53 LINE",
"262 558 LINE",
"351 578 LINE",
"357 611 LINE",
"110 611 LINE"
);
}
);
};
layerId = "27799D80-F866-457E-9382-0097DC0AFC53";
paths = (
{
closed = 1;
nodes = (
"205 -236 OFFCURVE",
"242 -186 OFFCURVE",
"242 -186 CURVE",
"228 -170 LINE",
"210 -186 OFFCURVE",
"191 -192 OFFCURVE",
"175 -192 CURVE SMOOTH",
"145 -192 OFFCURVE",
"127 -176 OFFCURVE",
"127 -145 CURVE SMOOTH",
"127 -91 OFFCURVE",
"173 -32 OFFCURVE",
"239 0 CURVE",
"245 33 LINE",
"164 53 LINE",
"262 558 LINE",
"351 578 LINE",
"357 611 LINE",
"110 611 LINE",
"104 578 LINE",
"184 558 LINE",
"86 53 LINE",
"-2 33 LINE",
"-8 0 LINE",
"182 0 LINE",
"97 -46 OFFCURVE",
"58 -111 OFFCURVE",
"58 -165 CURVE SMOOTH",
"58 -203 OFFCURVE",
"81 -236 OFFCURVE",
"141 -236 CURVE SMOOTH"
);
}
);
width = 324;
},
{
background = {
paths = (
{
closed = 1;
nodes = (
"305 546 LINE",
"389 569 LINE",
"398 614 LINE",
"102 614 LINE",
"93 569 LINE",
"169 546 LINE",
"76 69 LINE",
"-8 45 LINE",
"-16 0 LINE",
"168 0 LINE",
"98 -43 OFFCURVE",
"52 -108 OFFCURVE",
"52 -157 CURVE SMOOTH",
"52 -195 OFFCURVE",
"73 -236 OFFCURVE",
"144 -236 CURVE SMOOTH",
"220 -236 OFFCURVE",
"262 -174 OFFCURVE",
"262 -174 CURVE",
"242 -152 LINE",
"220 -166 OFFCURVE",
"200 -174 OFFCURVE",
"178 -174 CURVE SMOOTH",
"151 -174 OFFCURVE",
"140 -156 OFFCURVE",
"140 -130 CURVE SMOOTH",
"140 -70 OFFCURVE",
"212 -3 OFFCURVE",
"275 0 CURVE",
"279 0 LINE",
"280 0 LINE",
"288 44 LINE",
"287 44 LINE",
"287 45 LINE",
"212 69 LINE"
);
}
);
};
layerId = "91FB354D-039B-406A-8F87-4ABC8510003D";
paths = (
{
closed = 1;
nodes = (
"220 -236 OFFCURVE",
"262 -174 OFFCURVE",
"262 -174 CURVE",
"242 -152 LINE",
"220 -166 OFFCURVE",
"200 -174 OFFCURVE",
"178 -174 CURVE SMOOTH",
"151 -174 OFFCURVE",
"140 -156 OFFCURVE",
"140 -130 CURVE SMOOTH",
"140 -70 OFFCURVE",
"217 -3 OFFCURVE",
"280 0 CURVE",
"288 45 LINE",
"212 69 LINE",
"305 546 LINE",
"389 569 LINE",
"398 614 LINE",
"102 614 LINE",
"93 569 LINE",
"169 546 LINE",
"76 69 LINE",
"-8 45 LINE",
"-16 0 LINE",
"168 0 LINE",
"98 -43 OFFCURVE",
"52 -108 OFFCURVE",
"52 -157 CURVE SMOOTH",
"52 -195 OFFCURVE",
"73 -236 OFFCURVE",
"144 -236 CURVE SMOOTH"
);
}
);
width = 358;
},
{
layerId = "44981724-2b4e-42be-8f7f-300520b6a406";
paths = (
{
closed = 1;
nodes = (
"201 -236 OFFCURVE",
"233 -196 OFFCURVE",
"237 -189 CURVE",
"224 -175 LINE",
"206 -191 OFFCURVE",
"187 -197 OFFCURVE",
"172 -197 CURVE SMOOTH",
"139 -197 OFFCURVE",
"118 -181 OFFCURVE",
"118 -149 CURVE SMOOTH",
"118 -97 OFFCURVE",
"158 -40 OFFCURVE",
"228 0 CURVE",
"233 30 LINE",
"151 49 LINE",
"250 561 LINE",
"341 580 LINE",
"346 610 LINE",
"112 610 LINE",
"107 580 LINE",
"188 561 LINE",
"89 49 LINE",
"0 30 LINE",
"-6 0 LINE",
"186 0 LINE",
"97 -47 OFFCURVE",
"60 -112 OFFCURVE",
"60 -167 CURVE SMOOTH",
"60 -205 OFFCURVE",
"83 -236 OFFCURVE",
"140 -236 CURVE SMOOTH"
);
}
);
width = 316;
},
{
layerId = "8454c77d-11ac-4429-aa94-301a0d22d44f";
paths = (
{
closed = 1;
nodes = (
"225 -236 OFFCURVE",
"269 -170 OFFCURVE",
"269 -170 CURVE",
"247 -146 LINE",
"224 -159 OFFCURVE",
"203 -168 OFFCURVE",
"179 -168 CURVE SMOOTH",
"153 -168 OFFCURVE",
"145 -149 OFFCURVE",
"145 -125 CURVE SMOOTH",
"145 -63 OFFCURVE",
"233 7 OFFCURVE",
"295 0 CURVE",
"303 49 LINE",
"229 75 LINE",
"320 542 LINE",
"402 566 LINE",
"413 615 LINE",
"99 615 LINE",
"89 566 LINE",
"164 542 LINE",
"72 75 LINE",
"-10 49 LINE",
"-19 0 LINE",
"163 0 LINE",
"98 -42 OFFCURVE",
"50 -107 OFFCURVE",
"50 -154 CURVE SMOOTH",
"50 -192 OFFCURVE",
"70 -236 OFFCURVE",
"145 -236 CURVE SMOOTH"
);
}
);
width = 368;
}
);
leftKerningGroup = H;
leftMetricsKey = H;
rightKerningGroup = H;
unicode = 012E;
},
{
glyphname = Itilde;
layers = (
{
background = {
paths = (
{
closed = 1;
nodes = (
"107 578 LINE",
"187 558 LINE",
"89 53 LINE",
"1 33 LINE",
"-5 0 LINE",
"242 0 LINE",
"248 33 LINE",
"167 53 LINE",
"265 558 LINE",
"354 578 LINE",
"360 611 LINE",
"113 611 LINE"
);
},
{
closed = 1;
nodes = (
"374 777 LINE",
"374 777 OFFCURVE",
"354 742 OFFCURVE",
"331 742 CURVE SMOOTH",
"296 742 OFFCURVE",
"213 782 OFFCURVE",
"179 782 CURVE SMOOTH",
"146 782 OFFCURVE",
"124 738 OFFCURVE",
"103 686 CURVE",
"133 674 LINE",
"133 674 OFFCURVE",
"156 710 OFFCURVE",
"178 710 CURVE SMOOTH",
"211 710 OFFCURVE",
"296 670 OFFCURVE",
"330 670 CURVE SMOOTH",
"362 670 OFFCURVE",
"384 714 OFFCURVE",
"405 765 CURVE"
);
}
);
};
components = (
{
name = I;
},
{
name = tildecomb.case;
transform = "{1, 0, 0, 1, 18, 0}";
}
);
layerId = "27799D80-F866-457E-9382-0097DC0AFC53";
width = 325;
},
{
background = {
paths = (
{
closed = 1;
nodes = (
"308 546 LINE",
"392 569 LINE",
"401 614 LINE",
"105 614 LINE",
"96 569 LINE",
"172 546 LINE",
"79 69 LINE",
"-5 45 LINE",
"-13 0 LINE",
"282 0 LINE",
"290 45 LINE",
"215 69 LINE"
);
},
{
closed = 1;
nodes = (
"394 778 LINE",
"394 778 OFFCURVE",
"377 747 OFFCURVE",
"352 747 CURVE SMOOTH",
"313 747 OFFCURVE",
"225 784 OFFCURVE",
"176 784 CURVE SMOOTH",
"143 784 OFFCURVE",
"109 738 OFFCURVE",
"89 680 CURVE",
"136 661 LINE",
"136 661 OFFCURVE",
"152 692 OFFCURVE",
"176 692 CURVE SMOOTH",
"214 692 OFFCURVE",
"303 655 OFFCURVE",
"352 655 CURVE SMOOTH",
"386 655 OFFCURVE",
"414 701 OFFCURVE",
"438 759 CURVE"
);
}
);
};
components = (
{
name = I;
},
{
name = tildecomb.case;
transform = "{1, 0, 0, 1, 7, 0}";
}
);
layerId = "91FB354D-039B-406A-8F87-4ABC8510003D";
width = 357;
},
{
background = {
paths = (
{
closed = 1;
nodes = (
"231 0 LINE",
"237 30 LINE",
"154 49 LINE",
"253 561 LINE",
"344 580 LINE",
"349 610 LINE",
"115 610 LINE",
"110 580 LINE",
"191 561 LINE",
"92 49 LINE",
"3 30 LINE",
"-3 0 LINE"
);
},
{
closed = 1;
nodes = (
"356 674 OFFCURVE",
"376 718 OFFCURVE",
"396 767 CURVE",
"369 777 LINE",
"367 773 OFFCURVE",
"348 741 OFFCURVE",
"325 741 CURVE SMOOTH",
"291 741 OFFCURVE",
"210 781 OFFCURVE",
"180 781 CURVE SMOOTH",
"147 781 OFFCURVE",
"128 738 OFFCURVE",
"107 688 CURVE",
"132 678 LINE",
"135 682 OFFCURVE",
"157 715 OFFCURVE",
"179 715 CURVE SMOOTH",
"210 715 OFFCURVE",
"294 674 OFFCURVE",
"324 674 CURVE SMOOTH"
);
}
);
};
components = (
{
name = I;
},
{
name = tildecomb.case;
transform = "{1, 0, 0, 1, 18, 0}";
}
);
layerId = "44981724-2b4e-42be-8f7f-300520b6a406";
width = 317;
},
{
components = (
{
name = I;
},
{
name = tildecomb.case;
transform = "{1, 0, 0, 1, 6, 0}";
}
);
layerId = "8454c77d-11ac-4429-aa94-301a0d22d44f";
width = 368;
}
);
leftKerningGroup = H;
rightKerningGroup = H;
unicode = 0128;
},
{
glyphname = J;
layers = (
{
anchors = (
{
name = bottom;
position = "{95, 0}";
},
{
name = top;
position = "{214, 611}";
}
);
background = {
paths = (
{
closed = 1;
nodes = (
"73 -149 OFFCURVE",
"129 -102 OFFCURVE",
"159 63 CURVE SMOOTH",
"249 558 LINE",
"336 578 LINE",
"342 611 LINE",
"96 611 LINE",
"90 578 LINE",
"170 558 LINE",
"74 30 LINE SMOOTH",
"61 -42 OFFCURVE",
"40 -94 OFFCURVE",
"-21 -94 CURVE SMOOTH",
"-89 -94 LINE",
"-98 -122 LINE",
"-79 -137 OFFCURVE",
"-53 -149 OFFCURVE",
"-10 -149 CURVE SMOOTH"
);
}
);
};
layerId = "27799D80-F866-457E-9382-0097DC0AFC53";
paths = (
{
closed = 1;
nodes = (
"73 -149 OFFCURVE",
"129 -102 OFFCURVE",
"159 63 CURVE SMOOTH",
"249 558 LINE",
"336 578 LINE",
"342 611 LINE",
"96 611 LINE",
"90 578 LINE",
"170 558 LINE",
"74 30 LINE SMOOTH",
"61 -42 OFFCURVE",
"40 -94 OFFCURVE",
"-21 -94 CURVE SMOOTH",
"-89 -94 LINE",
"-98 -122 LINE",
"-79 -137 OFFCURVE",
"-53 -149 OFFCURVE",
"-10 -149 CURVE SMOOTH"
);
}
);
width = 295;
},
{
anchors = (
{
name = bottom;
position = "{117, 0}";
},
{
name = top;
position = "{237, 614}";
}
);
background = {
paths = (
{
closed = 1;
nodes = (
"102 -150 OFFCURVE",
"176 -103 OFFCURVE",
"208 63 CURVE SMOOTH",
"302 546 LINE",
"387 569 LINE",
"395 614 LINE",
"103 614 LINE",
"95 569 LINE",
"170 546 LINE",
"72 41 LINE SMOOTH",
"58 -29 OFFCURVE",
"37 -81 OFFCURVE",
"-20 -81 CURVE SMOOTH",
"-82 -81 LINE",
"-93 -118 LINE",
"-74 -134 OFFCURVE",
"-45 -150 OFFCURVE",
"4 -150 CURVE SMOOTH"
);
}
);
};
layerId = "91FB354D-039B-406A-8F87-4ABC8510003D";
paths = (
{
closed = 1;
nodes = (
"102 -150 OFFCURVE",
"176 -103 OFFCURVE",
"208 63 CURVE SMOOTH",
"302 546 LINE",
"387 569 LINE",
"395 614 LINE",
"103 614 LINE",
"95 569 LINE",
"170 546 LINE",
"72 41 LINE SMOOTH",
"58 -29 OFFCURVE",
"37 -81 OFFCURVE",
"-20 -81 CURVE SMOOTH",
"-82 -81 LINE",
"-93 -118 LINE",
"-74 -134 OFFCURVE",
"-45 -150 OFFCURVE",
"4 -150 CURVE SMOOTH"
);
}
);
width = 340;
},
{
anchors = (
{
name = bottom;
position = "{94, 0}";
},
{
name = top;
position = "{213, 610}";
}
);
layerId = "44981724-2b4e-42be-8f7f-300520b6a406";
paths = (
{
closed = 1;
nodes = (
"70 -149 OFFCURVE",
"121 -102 OFFCURVE",
"151 63 CURVE SMOOTH",
"240 561 LINE",
"327 580 LINE",
"333 610 LINE",
"99 610 LINE",
"94 580 LINE",
"175 561 LINE",
"80 27 LINE SMOOTH",
"67 -46 OFFCURVE",
"46 -98 OFFCURVE",
"-16 -98 CURVE SMOOTH",
"-86 -98 LINE",
"-94 -123 LINE",
"-75 -138 OFFCURVE",
"-50 -149 OFFCURVE",
"-9 -149 CURVE SMOOTH"
);
}
);
width = 288;
},
{
anchors = (
{
name = bottom;
position = "{125, 0}";
},
{
name = top;
position = "{245, 615}";
}
);
layerId = "8454c77d-11ac-4429-aa94-301a0d22d44f";
paths = (
{
closed = 1;
nodes = (
"112 -150 OFFCURVE",
"192 -103 OFFCURVE",
"225 63 CURVE SMOOTH",
"321 542 LINE",
"405 566 LINE",
"414 615 LINE",
"105 615 LINE",
"97 566 LINE",
"170 542 LINE",
"71 45 LINE SMOOTH",
"57 -24 OFFCURVE",
"36 -76 OFFCURVE",
"-20 -76 CURVE SMOOTH",
"-80 -76 LINE",
"-91 -117 LINE",
"-72 -133 OFFCURVE",
"-42 -150 OFFCURVE",
"9 -150 CURVE SMOOTH"
);
}
);
width = 356;
}
);
leftKerningGroup = J;
rightKerningGroup = J;
unicode = 004A;
},
{
glyphname = K;
layers = (
{
anchors = (
{
name = bottom;
position = "{262, 0}";
},
{
name = top;
position = "{352, 611}";
}
);
background = {
paths = (
{
closed = 1;
nodes = (
"514 33 LINE",
"432 52 LINE",
"292 333 LINE",
"526 558 LINE",
"597 578 LINE",
"603 611 LINE",
"411 611 LINE",
"405 578 LINE",
"463 558 LINE",
"216 324 LINE",
"262 558 LINE",
"351 578 LINE",
"357 611 LINE",
"110 611 LINE",
"104 578 LINE",
"184 558 LINE",
"86 53 LINE",
"-2 33 LINE",
"-8 0 LINE",
"239 0 LINE",
"245 33 LINE",
"164 53 LINE",
"214 312 LINE",
"364 0 LINE",
"508 0 LINE"
);
}
);
};
layerId = "27799D80-F866-457E-9382-0097DC0AFC53";
paths = (
{
closed = 1;
nodes = (
"239 0 LINE",
"245 33 LINE",
"164 53 LINE",
"214 312 LINE",
"364 0 LINE",
"508 0 LINE",
"514 33 LINE",
"432 52 LINE",
"292 333 LINE",
"526 558 LINE",
"597 578 LINE",
"603 611 LINE",
"411 611 LINE",
"405 578 LINE",
"463 558 LINE",
"216 324 LINE",
"262 558 LINE",
"351 578 LINE",
"357 611 LINE",
"110 611 LINE",
"104 578 LINE",
"184 558 LINE",
"86 53 LINE",
"-2 33 LINE",
"-8 0 LINE"
);
}
);
width = 559;
},
{
anchors = (
{
name = bottom;
position = "{282, 0}";
},
{
name = top;
position = "{357, 614}";
}
);
background = {
paths = (
{
closed = 1;
nodes = (
"561 45 LINE",
"486 73 LINE",
"358 339 LINE",
"579 549 LINE",
"648 571 LINE",
"656 614 LINE",
"443 614 LINE",
"434 569 LINE",
"483 554 LINE",
"266 347 LINE",
"305 546 LINE",
"379 567 LINE",
"388 614 LINE",
"102 614 LINE",
"93 569 LINE",
"169 546 LINE",
"76 69 LINE",
"-8 45 LINE",
"-16 0 LINE",
"263 0 LINE",
"272 46 LINE",
"212 69 LINE",
"251 271 LINE",
"369 0 LINE",
"553 0 LINE"
);
}
);
};
layerId = "91FB354D-039B-406A-8F87-4ABC8510003D";
paths = (
{
closed = 1;
nodes = (
"263 0 LINE",
"272 46 LINE",
"212 69 LINE",
"251 271 LINE",
"369 0 LINE",
"553 0 LINE",
"561 45 LINE",
"486 73 LINE",
"358 339 LINE",
"579 549 LINE",
"648 571 LINE",
"656 614 LINE",
"443 614 LINE",
"434 569 LINE",
"483 554 LINE",
"266 347 LINE",
"305 546 LINE",
"379 567 LINE",
"388 614 LINE",
"102 614 LINE",
"93 569 LINE",
"169 546 LINE",
"76 69 LINE",
"-8 45 LINE",
"-16 0 LINE"
);
}
);
width = 573;
},
{
anchors = (
{
name = bottom;
position = "{255, 0}";
},
{
name = top;
position = "{350, 610}";
}
);
layerId = "44981724-2b4e-42be-8f7f-300520b6a406";
paths = (
{
closed = 1;
nodes = (
"232 0 LINE",
"237 29 LINE",
"150 49 LINE",
"202 319 LINE",
"360 0 LINE",
"495 0 LINE",
"501 30 LINE",
"417 46 LINE",
"271 329 LINE",
"515 560 LINE",
"583 580 LINE",
"588 610 LINE",
"402 610 LINE",
"397 580 LINE",
"456 559 LINE",
"203 323 LINE",
"250 561 LINE",
"343 581 LINE",
"348 610 LINE",
"112 610 LINE",
"106 580 LINE",
"187 561 LINE",
"88 49 LINE",
"-1 30 LINE",
"-6 0 LINE"
);
}
);
width = 555;
},
{
anchors = (
{
name = bottom;
position = "{289, 0}";
},
{
name = top;
position = "{359, 615}";
}
);
layerId = "8454c77d-11ac-4429-aa94-301a0d22d44f";
paths = (
{
closed = 1;
nodes = (
"272 0 LINE",
"282 51 LINE",
"229 75 LINE",
"267 272 LINE",
"374 0 LINE",
"569 0 LINE",
"578 49 LINE",
"505 80 LINE",
"386 350 LINE",
"592 546 LINE",
"666 569 LINE",
"675 615 LINE",
"454 615 LINE",
"444 566 LINE",
"492 553 LINE",
"284 355 LINE",
"320 542 LINE",
"389 563 LINE",
"399 615 LINE",
"99 615 LINE",
"89 566 LINE",
"164 542 LINE",
"73 75 LINE",
"-10 49 LINE",
"-19 0 LINE"
);
}
);
width = 578;
}
);
leftKerningGroup = H;
leftMetricsKey = H;
rightKerningGroup = K;
unicode = 004B;
},
{
glyphname = Kcommaaccent;
layers = (
{
background = {
paths = (
{
closed = 1;
nodes = (
"243 0 LINE",
"249 33 LINE",
"168 53 LINE",
"218 312 LINE",
"368 0 LINE",
"512 0 LINE",
"518 33 LINE",
"436 52 LINE",
"296 333 LINE",
"530 558 LINE",
"601 578 LINE",
"607 611 LINE",
"415 611 LINE",
"409 578 LINE",
"467 558 LINE",
"220 324 LINE",
"266 558 LINE",
"355 578 LINE",
"361 611 LINE",
"114 611 LINE",
"108 578 LINE",
"188 558 LINE",
"90 53 LINE",
"2 33 LINE",
"-4 0 LINE"
);
},
{
closed = 1;
nodes = (
"304 -48 LINE",
"289 -31 LINE",
"214 -47 LINE",
"179 -214 LINE",
"204 -221 LINE"
);
}
);
};
components = (
{
name = K;
},
{
name = commaaccentcomb.case;
transform = "{1, 0, 0, 1, 184, 0}";
}
);
layerId = "27799D80-F866-457E-9382-0097DC0AFC53";
width = 559;
},
{
background = {
paths = (
{
closed = 1;
nodes = (
"265 0 LINE",
"274 46 LINE",
"214 69 LINE",
"253 271 LINE",
"371 0 LINE",
"555 0 LINE",
"563 45 LINE",
"488 73 LINE",
"360 339 LINE",
"581 549 LINE",
"650 571 LINE",
"658 614 LINE",
"445 614 LINE",
"436 569 LINE",
"485 554 LINE",
"268 347 LINE",
"307 546 LINE",
"381 567 LINE",
"390 614 LINE",
"104 614 LINE",
"95 569 LINE",
"171 546 LINE",
"78 69 LINE",
"-6 45 LINE",
"-14 0 LINE"
);
},
{
closed = 1;
nodes = (
"333 -48 LINE",
"311 -24 LINE",
"219 -44 LINE",
"183 -225 LINE",
"223 -236 LINE"
);
}
);
};
components = (
{
name = K;
},
{
name = commaaccentcomb.case;
transform = "{1, 0, 0, 1, 204, 0}";
}
);
layerId = "91FB354D-039B-406A-8F87-4ABC8510003D";
width = 573;
},
{
background = {
paths = (
{
closed = 1;
nodes = (
"238 0 LINE",
"243 29 LINE",
"156 49 LINE",
"208 319 LINE",
"366 0 LINE",
"501 0 LINE",
"507 30 LINE",
"423 46 LINE",
"277 329 LINE",
"521 560 LINE",
"589 580 LINE",
"594 610 LINE",
"408 610 LINE",
"403 580 LINE",
"462 559 LINE",
"209 323 LINE",
"256 561 LINE",
"349 581 LINE",
"354 610 LINE",
"118 610 LINE",
"112 580 LINE",
"193 561 LINE",
"94 49 LINE",
"5 30 LINE",
"0 0 LINE"
);
},
{
closed = 1;
nodes = (
"296 -48 LINE",
"283 -33 LINE",
"213 -48 LINE",
"178 -211 LINE",
"199 -217 LINE"
);
}
);
};
components = (
{
name = K;
},
{
name = commaaccentcomb.case;
transform = "{1, 0, 0, 1, 177, 0}";
}
);
layerId = "44981724-2b4e-42be-8f7f-300520b6a406";
width = 555;
},
{
background = {
paths = (
{
closed = 1;
nodes = (
"273 0 LINE",
"283 51 LINE",
"230 75 LINE",
"265 256 LINE",
"375 0 LINE",
"570 0 LINE",
"579 49 LINE",
"506 80 LINE",
"381 344 LINE",
"593 546 LINE",
"667 569 LINE",
"676 615 LINE",
"455 615 LINE",
"445 566 LINE",
"493 553 LINE",
"285 355 LINE",
"321 542 LINE",
"390 563 LINE",
"400 615 LINE",
"100 615 LINE",
"90 566 LINE",
"165 542 LINE",
"74 75 LINE",
"-9 49 LINE",
"-18 0 LINE"
);
},
{
closed = 1;
nodes = (
"343 -48 LINE",
"319 -22 LINE",
"221 -43 LINE",
"184 -229 LINE",
"230 -241 LINE"
);
}
);
};
components = (
{
name = K;
},
{
name = commaaccentcomb.case;
transform = "{1, 0, 0, 1, 211, 0}";
}
);
layerId = "8454c77d-11ac-4429-aa94-301a0d22d44f";
width = 578;
}
);
leftKerningGroup = H;
rightKerningGroup = K;
unicode = 0136;
},
{
glyphname = L;
layers = (
{
anchors = (
{
name = bottom;
position = "{230, 0}";
},
{
name = center;
position = "{174, 306}";
},
{
name = top;
position = "{233, 611}";
},
{
name = topright;
position = "{402, 493}";
}
);
background = {
paths = (
{
closed = 1;
nodes = (
"422 147 LINE",
"386 147 LINE",
"345 56 LINE",
"164 56 LINE",
"262 558 LINE",
"351 578 LINE",
"357 611 LINE",
"110 611 LINE",
"104 578 LINE",
"184 558 LINE",
"86 53 LINE",
"-2 33 LINE",
"-8 0 LINE",
"394 0 LINE"
);
}
);
};
layerId = "27799D80-F866-457E-9382-0097DC0AFC53";
paths = (
{
closed = 1;
nodes = (
"394 0 LINE",
"422 147 LINE",
"386 147 LINE",
"345 56 LINE",
"164 56 LINE",
"262 558 LINE",
"351 578 LINE",
"357 611 LINE",
"110 611 LINE",
"104 578 LINE",
"184 558 LINE",
"86 53 LINE",
"-2 33 LINE",
"-8 0 LINE"
);
}
);
width = 454;
},
{
anchors = (
{
name = bottom;
position = "{226, 0}";
},
{
name = center;
position = "{189, 307}";
},
{
name = top;
position = "{249, 614}";
},
{
name = topright;
position = "{431, 492}";
}
);
background = {
paths = (
{
closed = 1;
nodes = (
"455 162 LINE",
"402 162 LINE",
"360 69 LINE",
"212 69 LINE",
"305 546 LINE",
"389 569 LINE",
"398 614 LINE",
"102 614 LINE",
"93 569 LINE",
"169 546 LINE",
"76 69 LINE",
"-8 45 LINE",
"-16 0 LINE",
"424 0 LINE"
);
}
);
};
layerId = "91FB354D-039B-406A-8F87-4ABC8510003D";
paths = (
{
closed = 1;
nodes = (
"424 0 LINE",
"455 162 LINE",
"402 162 LINE",
"360 69 LINE",
"212 69 LINE",
"305 546 LINE",
"389 569 LINE",
"398 614 LINE",
"102 614 LINE",
"93 569 LINE",
"169 546 LINE",
"76 69 LINE",
"-8 45 LINE",
"-16 0 LINE"
);
}
);
width = 477;
},
{
anchors = (
{
name = bottom;
position = "{229, 0}";
},
{
name = center;
position = "{169, 306}";
},
{
name = top;
position = "{228, 610}";
},
{
name = topright;
position = "{394, 493}";
}
);
layerId = "44981724-2b4e-42be-8f7f-300520b6a406";
paths = (
{
closed = 1;
nodes = (
"385 0 LINE",
"412 143 LINE",
"381 143 LINE",
"340 51 LINE",
"150 51 LINE",
"250 561 LINE",
"340 580 LINE",
"345 610 LINE",
"112 610 LINE",
"106 580 LINE",
"187 561 LINE",
"88 49 LINE",
"-1 30 LINE",
"-6 0 LINE"
);
}
);
width = 447;
},
{
anchors = (
{
name = bottom;
position = "{224, 0}";
},
{
name = center;
position = "{196, 307}";
},
{
name = top;
position = "{256, 615}";
},
{
name = topright;
position = "{441, 492}";
}
);
layerId = "8454c77d-11ac-4429-aa94-301a0d22d44f";
paths = (
{
closed = 1;
nodes = (
"435 0 LINE",
"467 167 LINE",
"408 167 LINE",
"365 74 LINE",
"229 74 LINE",
"320 542 LINE",
"403 566 LINE",
"413 615 LINE",
"99 615 LINE",
"89 566 LINE",
"164 542 LINE",
"73 75 LINE",
"-10 49 LINE",
"-19 0 LINE"
);
}
);
width = 486;
}
);
leftKerningGroup = H;
leftMetricsKey = H;
rightKerningGroup = L;
unicode = 004C;
},
{
glyphname = Lacute;
layers = (
{
background = {
paths = (
{
closed = 1;
nodes = (
"426 147 LINE",
"390 147 LINE",
"349 56 LINE",
"168 56 LINE",
"266 558 LINE",
"355 578 LINE",
"361 611 LINE",
"114 611 LINE",
"108 578 LINE",
"188 558 LINE",
"90 53 LINE",
"2 33 LINE",
"-4 0 LINE",
"398 0 LINE"
);
},
{
closed = 1;
nodes = (
"385 754 LINE",
"385 772 LINE",
"309 800 LINE",
"155 670 LINE",
"171 651 LINE"
);
}
);
};
components = (
{
name = L;
},
{
name = acutecomb.case;
transform = "{1, 0, 0, 1, 73, 0}";
}
);
layerId = "27799D80-F866-457E-9382-0097DC0AFC53";
width = 454;
},
{
background = {
paths = (
{
closed = 1;
nodes = (
"457 162 LINE",
"404 162 LINE",
"362 69 LINE",
"214 69 LINE",
"307 546 LINE",
"391 569 LINE",
"400 614 LINE",
"104 614 LINE",
"95 569 LINE",
"171 546 LINE",
"78 69 LINE",
"-6 45 LINE",
"-14 0 LINE",
"426 0 LINE"
);
},
{
closed = 1;
nodes = (
"397 743 LINE",
"397 766 LINE",
"298 800 LINE",
"142 669 LINE",
"169 634 LINE"
);
}
);
};
components = (
{
name = L;
},
{
name = acutecomb.case;
transform = "{1, 0, 0, 1, 77, 0}";
}
);
layerId = "91FB354D-039B-406A-8F87-4ABC8510003D";
width = 477;
},
{
background = {
paths = (
{
closed = 1;
nodes = (
"390 0 LINE",
"418 143 LINE",
"386 143 LINE",
"345 52 LINE",
"156 52 LINE",
"255 561 LINE",
"345 580 LINE",
"350 610 LINE",
"117 610 LINE",
"112 580 LINE",
"193 561 LINE",
"93 49 LINE",
"4 30 LINE",
"-1 0 LINE"
);
},
{
closed = 1;
nodes = (
"382 757 LINE",
"382 774 LINE",
"312 800 LINE",
"159 670 LINE",
"172 656 LINE"
);
}
);
};
components = (
{
name = L;
},
{
name = acutecomb.case;
transform = "{1, 0, 0, 1, 77, 0}";
}
);
layerId = "44981724-2b4e-42be-8f7f-300520b6a406";
width = 447;
},
{
background = {
paths = (
{
closed = 1;
nodes = (
"436 0 LINE",
"468 167 LINE",
"409 167 LINE",
"367 74 LINE",
"230 74 LINE",
"322 542 LINE",
"404 566 LINE",
"414 615 LINE",
"100 615 LINE",
"90 566 LINE",
"165 542 LINE",
"74 75 LINE",
"-9 49 LINE",
"-18 0 LINE"
);
},
{
closed = 1;
nodes = (
"401 739 LINE",
"401 764 LINE",
"294 800 LINE",
"137 669 LINE",
"168 628 LINE"
);
}
);
};
components = (
{
name = L;
},
{
name = acutecomb.case;
transform = "{1, 0, 0, 1, 73, 0}";
}
);
layerId = "8454c77d-11ac-4429-aa94-301a0d22d44f";
width = 486;
}
);
leftKerningGroup = H;
rightKerningGroup = L;
unicode = 0139;
},
{
glyphname = Lcaron;
layers = (
{
background = {
paths = (
{
closed = 1;
nodes = (
"398 0 LINE",
"426 147 LINE",
"390 147 LINE",
"349 56 LINE",
"168 56 LINE",
"266 558 LINE",
"355 578 LINE",
"361 611 LINE",
"114 611 LINE",
"108 578 LINE",
"188 558 LINE",
"90 53 LINE",
"2 33 LINE",
"-4 0 LINE"
);
},
{
closed = 1;
nodes = (
"281 651 LINE",
"411 786 LINE",
"391 805 LINE",
"261 722 LINE",
"159 804 LINE",
"132 786 LINE",
"221 651 LINE"
);
}
);
};
components = (
{
name = L;
},
{
name = caroncomb.case;
transform = "{1, 0, 0, 1, 10, 0}";
}
);
layerId = "27799D80-F866-457E-9382-0097DC0AFC53";
width = 454;
},
{
background = {
paths = (
{
closed = 1;
nodes = (
"426 0 LINE",
"457 162 LINE",
"404 162 LINE",
"362 69 LINE",
"214 69 LINE",
"307 546 LINE",
"391 569 LINE",
"400 614 LINE",
"104 614 LINE",
"95 569 LINE",
"171 546 LINE",
"78 69 LINE",
"-6 45 LINE",
"-14 0 LINE"
);
},
{
closed = 1;
nodes = (
"295 639 LINE",
"423 765 LINE",
"400 795 LINE",
"266 727 LINE",
"158 795 LINE",
"128 769 LINE",
"210 639 LINE"
);
}
);
};
components = (
{
name = L;
},
{
name = caroncomb.case;
transform = "{1, 0, 0, 1, 28, 0}";
}
);
layerId = "91FB354D-039B-406A-8F87-4ABC8510003D";
width = 477;
},
{
components = (
{
name = L;
},
{
name = caroncomb.case;
transform = "{1, 0, 0, 1, 11, 0}";
}
);
layerId = "44981724-2b4e-42be-8f7f-300520b6a406";
width = 447;
},
{
background = {
paths = (
{
closed = 1;
nodes = (
"436 0 LINE",
"468 167 LINE",
"409 167 LINE",
"367 74 LINE",
"230 74 LINE",
"322 542 LINE",
"404 566 LINE",
"414 615 LINE",
"100 615 LINE",
"90 566 LINE",
"165 542 LINE",
"74 75 LINE",
"-9 49 LINE",
"-18 0 LINE"
);
},
{
closed = 1;
nodes = (
"300 635 LINE",
"427 758 LINE",
"403 791 LINE",
"268 729 LINE",
"158 792 LINE",
"127 763 LINE",
"206 635 LINE"
);
}
);
};
components = (
{
name = L;
},
{
name = caroncomb.case;
transform = "{1, 0, 0, 1, 25, 0}";
}
);
layerId = "8454c77d-11ac-4429-aa94-301a0d22d44f";
width = 486;
}
);
leftKerningGroup = H;
rightKerningGroup = L;
unicode = 013D;
},
{
glyphname = Lcommaaccent;
layers = (
{
background = {
paths = (
{
closed = 1;
nodes = (
"398 0 LINE",
"426 147 LINE",
"390 147 LINE",
"349 56 LINE",
"168 56 LINE",
"266 558 LINE",
"355 578 LINE",
"361 611 LINE",
"114 611 LINE",
"108 578 LINE",
"188 558 LINE",
"90 53 LINE",
"2 33 LINE",
"-4 0 LINE"
);
},
{
closed = 1;
nodes = (
"272 -48 LINE",
"257 -31 LINE",
"182 -47 LINE",
"147 -214 LINE",
"172 -221 LINE"
);
}
);
};
components = (
{
name = L;
},
{
name = commaaccentcomb.case;
transform = "{1, 0, 0, 1, 152, 0}";
}
);
layerId = "27799D80-F866-457E-9382-0097DC0AFC53";
width = 454;
},
{
background = {
paths = (
{
closed = 1;
nodes = (
"426 0 LINE",
"457 162 LINE",
"404 162 LINE",
"362 69 LINE",
"214 69 LINE",
"307 546 LINE",
"391 569 LINE",
"400 614 LINE",
"104 614 LINE",
"95 569 LINE",
"171 546 LINE",
"78 69 LINE",
"-6 45 LINE",
"-14 0 LINE"
);
},
{
closed = 1;
nodes = (
"277 -48 LINE",
"255 -24 LINE",
"163 -44 LINE",
"127 -225 LINE",
"167 -236 LINE"
);
}
);
};
components = (
{
name = L;
},
{
name = commaaccentcomb.case;
transform = "{1, 0, 0, 1, 148, 0}";
}
);
layerId = "91FB354D-039B-406A-8F87-4ABC8510003D";
width = 477;
},
{
background = {
paths = (
{
closed = 1;
nodes = (
"390 0 LINE",
"418 143 LINE",
"386 143 LINE",
"345 52 LINE",
"156 52 LINE",
"255 561 LINE",
"345 580 LINE",
"350 610 LINE",
"117 610 LINE",
"112 580 LINE",
"193 561 LINE",
"93 49 LINE",
"4 30 LINE",
"-1 0 LINE"
);
},
{
closed = 1;
nodes = (
"271 -48 LINE",
"258 -33 LINE",
"187 -48 LINE",
"152 -211 LINE",
"173 -217 LINE"
);
}
);
};
components = (
{
name = L;
},
{
name = commaaccentcomb.case;
transform = "{1, 0, 0, 1, 151, 0}";
}
);
layerId = "44981724-2b4e-42be-8f7f-300520b6a406";
width = 447;
},
{
background = {
paths = (
{
closed = 1;
nodes = (
"436 0 LINE",
"468 167 LINE",
"409 167 LINE",
"367 74 LINE",
"230 74 LINE",
"322 542 LINE",
"404 566 LINE",
"414 615 LINE",
"100 615 LINE",
"90 566 LINE",
"165 542 LINE",
"74 75 LINE",
"-9 49 LINE",
"-18 0 LINE"
);
},
{
closed = 1;
nodes = (
"279 -48 LINE",
"254 -22 LINE",
"156 -43 LINE",
"120 -229 LINE",
"165 -241 LINE"
);
}
);
};
components = (
{
name = L;
},
{
name = commaaccentcomb.case;
transform = "{1, 0, 0, 1, 146, 0}";
}
);
layerId = "8454c77d-11ac-4429-aa94-301a0d22d44f";
width = 486;
}
);
rightKerningGroup = L;
unicode = 013B;
},
{
glyphname = Lslash;
layers = (
{
background = {
paths = (
{
closed = 1;
nodes = (
"422 147 LINE",
"386 147 LINE",
"345 56 LINE",
"164 56 LINE",
"212 301 LINE",
"332 363 LINE",
"310 401 LINE",
"222 356 LINE",
"262 558 LINE",
"351 578 LINE",
"357 611 LINE",
"110 611 LINE",
"104 578 LINE",
"184 558 LINE",
"136 312 LINE",
"29 257 LINE",
"49 218 LINE",
"125 257 LINE",
"86 53 LINE",
"-2 33 LINE",
"-8 0 LINE",
"394 0 LINE"
);
}
);
};
components = (
{
name = L;
}
);
layerId = "27799D80-F866-457E-9382-0097DC0AFC53";
paths = (
{
closed = 1;
nodes = (
"344 363 LINE",
"322 401 LINE",
"41 257 LINE",
"61 218 LINE"
);
}
);
width = 454;
},
{
components = (
{
name = L;
}
);
layerId = "91FB354D-039B-406A-8F87-4ABC8510003D";
paths = (
{
closed = 1;
nodes = (
"410 363 LINE",
"384 422 LINE",
"34 265 LINE",
"59 206 LINE"
);
}
);
width = 477;
},
{
components = (
{
name = L;
}
);
layerId = "44981724-2b4e-42be-8f7f-300520b6a406";
paths = (
{
closed = 1;
nodes = (
"327 363 LINE",
"306 395 LINE",
"43 255 LINE",
"62 221 LINE"
);
}
);
width = 447;
},
{
components = (
{
name = L;
}
);
layerId = "8454c77d-11ac-4429-aa94-301a0d22d44f";
paths = (
{
closed = 1;
nodes = (
"434 363 LINE",
"406 429 LINE",
"32 268 LINE",
"59 202 LINE"
);
}
);
width = 486;
}
);
leftKerningGroup = H;
leftMetricsKey = H;
rightKerningGroup = L;
rightMetricsKey = L;
unicode = 0141;
},
{
glyphname = M;
layers = (
{
anchors = (
{
name = bottom;
position = "{348, 0}";
},
{
name = top;
position = "{467, 611}";
}
);
background = {
paths = (
{
closed = 1;
nodes = (
"215 33 LINE",
"136 53 LINE",
"239 511 LINE",
"310 -10 LINE",
"359 0 LINE",
"627 508 LINE",
"554 53 LINE",
"466 33 LINE",
"460 0 LINE",
"709 0 LINE",
"715 33 LINE",
"633 53 LINE",
"713 558 LINE",
"802 578 LINE",
"808 611 LINE",
"625 611 LINE",
"370 118 LINE",
"303 611 LINE",
"133 611 LINE",
"127 578 LINE",
"198 559 LINE",
"84 53 LINE",
"4 33 LINE",
"-2 0 LINE",
"209 0 LINE"
);
}
);
};
layerId = "27799D80-F866-457E-9382-0097DC0AFC53";
paths = (
{
closed = 1;
nodes = (
"358 0 LINE",
"626 508 LINE",
"553 53 LINE",
"465 33 LINE",
"459 0 LINE",
"708 0 LINE",
"714 33 LINE",
"632 53 LINE",
"712 558 LINE",
"801 578 LINE",
"807 611 LINE",
"624 611 LINE",
"369 118 LINE",
"302 611 LINE",
"132 611 LINE",
"126 578 LINE",
"197 559 LINE",
"83 53 LINE",
"3 33 LINE",
"-3 0 LINE",
"208 0 LINE",
"214 33 LINE",
"135 53 LINE",
"238 511 LINE",
"309 -10 LINE"
);
}
);
width = 794;
},
{
anchors = (
{
name = bottom;
position = "{344, 0}";
},
{
name = top;
position = "{464, 614}";
}
);
background = {
paths = (
{
closed = 1;
nodes = (
"208 45 LINE",
"133 69 LINE",
"218 415 LINE",
"278 -10 LINE",
"366 4 LINE",
"583 421 LINE",
"533 69 LINE",
"449 45 LINE",
"440 0 LINE",
"731 0 LINE",
"740 45 LINE",
"666 69 LINE",
"735 546 LINE",
"820 569 LINE",
"828 614 LINE",
"609 614 LINE",
"381 163 LINE",
"322 614 LINE",
"112 614 LINE",
"104 569 LINE",
"178 546 LINE",
"63 69 LINE",
"-20 45 LINE",
"-29 0 LINE",
"199 0 LINE"
);
}
);
};
layerId = "91FB354D-039B-406A-8F87-4ABC8510003D";
paths = (
{
closed = 1;
nodes = (
"363 4 LINE",
"580 421 LINE",
"530 69 LINE",
"446 45 LINE",
"437 0 LINE",
"728 0 LINE",
"737 45 LINE",
"663 69 LINE",
"732 546 LINE",
"817 569 LINE",
"825 614 LINE",
"606 614 LINE",
"376 158 LINE",
"316 614 LINE",
"109 614 LINE",
"101 569 LINE",
"175 546 LINE",
"60 69 LINE",
"-23 45 LINE",
"-32 0 LINE",
"196 0 LINE",
"205 45 LINE",
"130 69 LINE",
"215 415 LINE",
"275 -10 LINE"
);
}
);
width = 790;
},
{
anchors = (
{
name = bottom;
position = "{350, 0}";
},
{
name = top;
position = "{468, 610}";
}
);
layerId = "44981724-2b4e-42be-8f7f-300520b6a406";
paths = (
{
closed = 1;
nodes = (
"358 -1 LINE",
"638 529 LINE",
"560 49 LINE",
"471 30 LINE",
"465 0 LINE",
"703 0 LINE",
"708 30 LINE",
"624 49 LINE",
"706 561 LINE",
"797 580 LINE",
"803 610 LINE",
"629 610 LINE",
"367 103 LINE",
"298 610 LINE",
"139 610 LINE",
"133 580 LINE",
"203 563 LINE",
"88 49 LINE",
"11 30 LINE",
"5 0 LINE",
"212 0 LINE",
"217 30 LINE",
"135 49 LINE",
"245 537 LINE",
"320 -10 LINE"
);
}
);
width = 795;
},
{
anchors = (
{
name = bottom;
position = "{346, 0}";
},
{
name = top;
position = "{467, 615}";
}
);
layerId = "8454c77d-11ac-4429-aa94-301a0d22d44f";
paths = (
{
closed = 1;
nodes = (
"367 5 LINE",
"576 406 LINE",
"529 75 LINE",
"443 49 LINE",
"433 0 LINE",
"739 0 LINE",
"749 49 LINE",
"683 75 LINE",
"748 542 LINE",
"826 566 LINE",
"835 615 LINE",
"603 615 LINE",
"384 183 LINE",
"327 615 LINE",
"105 615 LINE",
"96 566 LINE",
"171 541 LINE",
"60 75 LINE",
"-29 49 LINE",
"-39 0 LINE",
"196 0 LINE",
"206 49 LINE",
"134 75 LINE",
"212 388 LINE",
"267 -10 LINE"
);
}
);
width = 789;
}
);
leftKerningGroup = M;
rightKerningGroup = M;
unicode = 004D;
},
{
glyphname = N;
layers = (
{
anchors = (
{
name = bottom;
position = "{304, 0}";
},
{
name = top;
position = "{397, 611}";
}
);
background = {
paths = (
{
closed = 1;
nodes = (
"496 578 LINE",
"572 559 LINE",
"489 130 LINE",
"240 611 LINE",
"110 611 LINE",
"104 578 LINE",
"175 559 LINE",
"77 53 LINE",
"-2 33 LINE",
"-8 0 LINE",
"203 0 LINE",
"209 33 LINE",
"132 53 LINE",
"216 488 LINE",
"470 -8 LINE",
"516 0 LINE",
"624 559 LINE",
"705 578 LINE",
"711 611 LINE",
"502 611 LINE"
);
}
);
};
layerId = "27799D80-F866-457E-9382-0097DC0AFC53";
paths = (
{
closed = 1;
nodes = (
"516 0 LINE",
"624 559 LINE",
"705 578 LINE",
"711 611 LINE",
"502 611 LINE",
"496 578 LINE",
"572 559 LINE",
"489 130 LINE",
"240 611 LINE",
"110 611 LINE",
"104 578 LINE",
"175 559 LINE",
"77 53 LINE",
"-2 33 LINE",
"-8 0 LINE",
"203 0 LINE",
"209 33 LINE",
"132 53 LINE",
"216 488 LINE",
"470 -8 LINE"
);
}
);
width = 682;
},
{
anchors = (
{
name = bottom;
position = "{322, 0}";
},
{
name = top;
position = "{407, 614}";
}
);
background = {
paths = (
{
closed = 1;
nodes = (
"475 569 LINE",
"550 546 LINE",
"479 172 LINE",
"287 614 LINE",
"102 614 LINE",
"94 569 LINE",
"169 546 LINE",
"77 69 LINE",
"-7 45 LINE",
"-16 0 LINE",
"215 0 LINE",
"224 45 LINE",
"149 69 LINE",
"220 437 LINE",
"414 -12 LINE",
"517 0 LINE",
"623 546 LINE",
"708 569 LINE",
"716 614 LINE",
"483 614 LINE"
);
}
);
};
layerId = "91FB354D-039B-406A-8F87-4ABC8510003D";
paths = (
{
closed = 1;
nodes = (
"517 0 LINE",
"623 546 LINE",
"708 569 LINE",
"716 614 LINE",
"483 614 LINE",
"475 569 LINE",
"550 546 LINE",
"479 172 LINE",
"287 614 LINE",
"102 614 LINE",
"94 569 LINE",
"169 546 LINE",
"77 69 LINE",
"-7 45 LINE",
"-16 0 LINE",
"215 0 LINE",
"224 45 LINE",
"149 69 LINE",
"220 437 LINE",
"414 -12 LINE"
);
}
);
width = 666;
},
{
anchors = (
{
name = bottom;
position = "{299, 0}";
},
{
name = top;
position = "{391, 610}";
}
);
layerId = "44981724-2b4e-42be-8f7f-300520b6a406";
paths = (
{
closed = 1;
nodes = (
"513 0 LINE",
"622 563 LINE",
"704 580 LINE",
"709 610 LINE",
"507 610 LINE",
"501 580 LINE",
"574 563 LINE",
"489 119 LINE",
"229 610 LINE",
"112 610 LINE",
"106 580 LINE",
"176 563 LINE",
"77 49 LINE",
"-1 30 LINE",
"-6 0 LINE",
"199 0 LINE",
"204 30 LINE",
"127 49 LINE",
"215 500 LINE",
"479 -7 LINE"
);
}
);
width = 686;
},
{
anchors = (
{
name = bottom;
position = "{328, 0}";
},
{
name = top;
position = "{401, 615}";
}
);
layerId = "8454c77d-11ac-4429-aa94-301a0d22d44f";
paths = (
{
closed = 1;
nodes = (
"518 0 LINE",
"623 541 LINE",
"709 566 LINE",
"718 615 LINE",
"476 615 LINE",
"468 566 LINE",
"545 541 LINE",
"479 193 LINE",
"295 615 LINE",
"99 615 LINE",
"91 566 LINE",
"167 541 LINE",
"77 75 LINE",
"-9 49 LINE",
"-19 0 LINE",
"219 0 LINE",
"230 49 LINE",
"155 75 LINE",
"219 412 LINE",
"403 -12 LINE"
);
}
);
width = 661;
}
);
leftKerningGroup = H;
leftMetricsKey = H;
rightKerningGroup = N;
unicode = 004E;
},
{
glyphname = Nacute;
layers = (
{
background = {
paths = (
{
closed = 1;
nodes = (
"510 0 LINE",
"618 559 LINE",
"699 578 LINE",
"705 611 LINE",
"496 611 LINE",
"490 578 LINE",
"566 559 LINE",
"483 130 LINE",
"234 611 LINE",
"104 611 LINE",
"98 578 LINE",
"169 559 LINE",
"71 53 LINE",
"-8 33 LINE",
"-14 0 LINE",
"197 0 LINE",
"203 33 LINE",
"126 53 LINE",
"210 488 LINE",
"464 -8 LINE"
);
},
{
closed = 1;
nodes = (
"560 754 LINE",
"560 772 LINE",
"484 800 LINE",
"330 670 LINE",
"346 651 LINE"
);
}
);
};
components = (
{
name = N;
},
{
name = acutecomb.case;
transform = "{1, 0, 0, 1, 237, 0}";
}
);
layerId = "27799D80-F866-457E-9382-0097DC0AFC53";
width = 682;
},
{
background = {
paths = (
{
closed = 1;
nodes = (
"520 0 LINE",
"626 546 LINE",
"711 569 LINE",
"719 614 LINE",
"486 614 LINE",
"478 569 LINE",
"553 546 LINE",
"482 172 LINE",
"290 614 LINE",
"105 614 LINE",
"97 569 LINE",
"172 546 LINE",
"80 69 LINE",
"-4 45 LINE",
"-13 0 LINE",
"218 0 LINE",
"227 45 LINE",
"152 69 LINE",
"223 437 LINE",
"417 -12 LINE"
);
},
{
closed = 1;
nodes = (
"595 743 LINE",
"595 766 LINE",
"496 800 LINE",
"340 669 LINE",
"367 634 LINE"
);
}
);
};
components = (
{
name = N;
},
{
name = acutecomb.case;
transform = "{1, 0, 0, 1, 235, 0}";
}
);
layerId = "91FB354D-039B-406A-8F87-4ABC8510003D";
width = 666;
},
{
background = {
paths = (
{
closed = 1;
nodes = (
"505 0 LINE",
"614 563 LINE",
"696 580 LINE",
"701 610 LINE",
"499 610 LINE",
"493 580 LINE",
"566 563 LINE",
"481 119 LINE",
"221 610 LINE",
"104 610 LINE",
"98 580 LINE",
"168 563 LINE",
"69 49 LINE",
"-9 30 LINE",
"-14 0 LINE",
"191 0 LINE",
"196 30 LINE",
"119 49 LINE",
"207 500 LINE",
"471 -7 LINE"
);
},
{
closed = 1;
nodes = (
"551 757 LINE",
"551 774 LINE",
"481 800 LINE",
"328 670 LINE",
"341 656 LINE"
);
}
);
};
components = (
{
name = N;
},
{
name = acutecomb.case;
transform = "{1, 0, 0, 1, 240, 0}";
}
);
layerId = "44981724-2b4e-42be-8f7f-300520b6a406";
width = 686;
},
{
background = {
paths = (
{
closed = 1;
nodes = (
"518 0 LINE",
"623 541 LINE",
"709 566 LINE",
"718 615 LINE",
"476 615 LINE",
"468 566 LINE",
"545 541 LINE",
"479 193 LINE",
"295 615 LINE",
"99 615 LINE",
"91 566 LINE",
"167 541 LINE",
"77 75 LINE",
"-9 49 LINE",
"-19 0 LINE",
"219 0 LINE",
"230 49 LINE",
"155 75 LINE",
"219 412 LINE",
"403 -12 LINE"
);
},
{
closed = 1;
nodes = (
"600 739 LINE",
"600 764 LINE",
"493 800 LINE",
"336 669 LINE",
"367 628 LINE"
);
}
);
};
components = (
{
name = N;
},
{
name = acutecomb.case;
transform = "{1, 0, 0, 1, 218, 0}";
}
);
layerId = "8454c77d-11ac-4429-aa94-301a0d22d44f";
width = 661;
}
);
leftKerningGroup = H;
leftMetricsKey = N;
rightKerningGroup = N;
rightMetricsKey = N;
unicode = 0143;
},
{
glyphname = Ncaron;
layers = (
{
background = {
paths = (
{
closed = 1;
nodes = (
"510 0 LINE",
"618 559 LINE",
"699 578 LINE",
"705 611 LINE",
"496 611 LINE",
"490 578 LINE",
"566 559 LINE",
"483 130 LINE",
"234 611 LINE",
"104 611 LINE",
"98 578 LINE",
"169 559 LINE",
"71 53 LINE",
"-8 33 LINE",
"-14 0 LINE",
"197 0 LINE",
"203 33 LINE",
"126 53 LINE",
"210 488 LINE",
"464 -8 LINE"
);
},
{
closed = 1;
nodes = (
"429 651 LINE",
"559 786 LINE",
"539 805 LINE",
"409 722 LINE",
"307 804 LINE",
"280 786 LINE",
"369 651 LINE"
);
}
);
};
components = (
{
name = N;
},
{
name = caroncomb.case;
transform = "{1, 0, 0, 1, 174, 0}";
}
);
layerId = "27799D80-F866-457E-9382-0097DC0AFC53";
width = 682;
},
{
background = {
paths = (
{
closed = 1;
nodes = (
"520 0 LINE",
"626 546 LINE",
"711 569 LINE",
"719 614 LINE",
"486 614 LINE",
"478 569 LINE",
"553 546 LINE",
"482 172 LINE",
"290 614 LINE",
"105 614 LINE",
"97 569 LINE",
"172 546 LINE",
"80 69 LINE",
"-4 45 LINE",
"-13 0 LINE",
"218 0 LINE",
"227 45 LINE",
"152 69 LINE",
"223 437 LINE",
"417 -12 LINE"
);
},
{
closed = 1;
nodes = (
"464 639 LINE",
"592 765 LINE",
"569 795 LINE",
"435 727 LINE",
"327 795 LINE",
"297 769 LINE",
"379 639 LINE"
);
}
);
};
components = (
{
name = N;
},
{
name = caroncomb.case;
transform = "{1, 0, 0, 1, 186, 0}";
}
);
layerId = "91FB354D-039B-406A-8F87-4ABC8510003D";
width = 666;
},
{
background = {
paths = (
{
closed = 1;
nodes = (
"505 0 LINE",
"614 563 LINE",
"696 580 LINE",
"701 610 LINE",
"499 610 LINE",
"493 580 LINE",
"566 563 LINE",
"481 119 LINE",
"221 610 LINE",
"104 610 LINE",
"98 580 LINE",
"168 563 LINE",
"69 49 LINE",
"-9 30 LINE",
"-14 0 LINE",
"191 0 LINE",
"196 30 LINE",
"119 49 LINE",
"207 500 LINE",
"471 -7 LINE"
);
},
{
closed = 1;
nodes = (
"419 654 LINE",
"550 792 LINE",
"531 808 LINE",
"402 721 LINE",
"301 806 LINE",
"275 791 LINE",
"366 654 LINE"
);
}
);
};
components = (
{
name = N;
},
{
name = caroncomb.case;
transform = "{1, 0, 0, 1, 174, 0}";
}
);
layerId = "44981724-2b4e-42be-8f7f-300520b6a406";
width = 686;
},
{
background = {
paths = (
{
closed = 1;
nodes = (
"524 0 LINE",
"629 541 LINE",
"715 566 LINE",
"724 615 LINE",
"482 615 LINE",
"474 566 LINE",
"551 541 LINE",
"485 193 LINE",
"301 615 LINE",
"105 615 LINE",
"97 566 LINE",
"173 541 LINE",
"83 75 LINE",
"-3 49 LINE",
"-13 0 LINE",
"225 0 LINE",
"236 49 LINE",
"161 75 LINE",
"225 412 LINE",
"409 -12 LINE"
);
},
{
closed = 1;
nodes = (
"476 635 LINE",
"603 758 LINE",
"579 791 LINE",
"444 729 LINE",
"334 792 LINE",
"302 763 LINE",
"382 635 LINE"
);
}
);
};
components = (
{
name = N;
},
{
name = caroncomb.case;
transform = "{1, 0, 0, 1, 170, 0}";
}
);
layerId = "8454c77d-11ac-4429-aa94-301a0d22d44f";
width = 661;
}
);
leftKerningGroup = H;
leftMetricsKey = N;
rightKerningGroup = N;
rightMetricsKey = N;
unicode = 0147;
},
{
glyphname = Ncommaaccent;
layers = (
{
background = {
paths = (
{
closed = 1;
nodes = (
"516 0 LINE",
"624 559 LINE",
"705 578 LINE",
"711 611 LINE",
"502 611 LINE",
"496 578 LINE",
"572 559 LINE",
"489 130 LINE",
"240 611 LINE",
"110 611 LINE",
"104 578 LINE",
"175 559 LINE",
"77 53 LINE",
"-2 33 LINE",
"-8 0 LINE",
"203 0 LINE",
"209 33 LINE",
"132 53 LINE",
"216 488 LINE",
"470 -8 LINE"
);
},
{
closed = 1;
nodes = (
"342 -48 LINE",
"327 -31 LINE",
"252 -47 LINE",
"217 -214 LINE",
"242 -221 LINE"
);
}
);
};
components = (
{
name = N;
},
{
name = commaaccentcomb.case;
transform = "{1, 0, 0, 1, 226, 0}";
}
);
layerId = "27799D80-F866-457E-9382-0097DC0AFC53";
width = 682;
},
{
background = {
paths = (
{
closed = 1;
nodes = (
"517 0 LINE",
"623 546 LINE",
"708 569 LINE",
"716 614 LINE",
"483 614 LINE",
"475 569 LINE",
"550 546 LINE",
"479 172 LINE",
"287 614 LINE",
"102 614 LINE",
"94 569 LINE",
"169 546 LINE",
"77 69 LINE",
"-7 45 LINE",
"-16 0 LINE",
"215 0 LINE",
"224 45 LINE",
"149 69 LINE",
"220 437 LINE",
"414 -12 LINE"
);
},
{
closed = 1;
nodes = (
"371 -48 LINE",
"349 -24 LINE",
"257 -44 LINE",
"221 -225 LINE",
"261 -236 LINE"
);
}
);
};
components = (
{
name = N;
},
{
name = commaaccentcomb.case;
transform = "{1, 0, 0, 1, 244, 0}";
}
);
layerId = "91FB354D-039B-406A-8F87-4ABC8510003D";
width = 666;
},
{
background = {
paths = (
{
closed = 1;
nodes = (
"513 0 LINE",
"622 563 LINE",
"704 580 LINE",
"709 610 LINE",
"507 610 LINE",
"501 580 LINE",
"574 563 LINE",
"489 119 LINE",
"229 610 LINE",
"112 610 LINE",
"106 580 LINE",
"176 563 LINE",
"77 49 LINE",
"-1 30 LINE",
"-6 0 LINE",
"199 0 LINE",
"204 30 LINE",
"127 49 LINE",
"215 500 LINE",
"479 -7 LINE"
);
},
{
closed = 1;
nodes = (
"334 -48 LINE",
"321 -33 LINE",
"251 -48 LINE",
"216 -211 LINE",
"237 -217 LINE"
);
}
);
};
components = (
{
name = N;
},
{
name = commaaccentcomb.case;
transform = "{1, 0, 0, 1, 221, 0}";
}
);
layerId = "44981724-2b4e-42be-8f7f-300520b6a406";
width = 686;
},
{
background = {
paths = (
{
closed = 1;
nodes = (
"518 0 LINE",
"623 541 LINE",
"709 566 LINE",
"718 615 LINE",
"476 615 LINE",
"468 566 LINE",
"545 541 LINE",
"479 193 LINE",
"295 615 LINE",
"99 615 LINE",
"91 566 LINE",
"167 541 LINE",
"77 75 LINE",
"-9 49 LINE",
"-19 0 LINE",
"219 0 LINE",
"230 49 LINE",
"155 75 LINE",
"219 412 LINE",
"403 -12 LINE"
);
},
{
closed = 1;
nodes = (
"381 -48 LINE",
"356 -22 LINE",
"258 -43 LINE",
"222 -229 LINE",
"267 -241 LINE"
);
}
);
};
components = (
{
name = N;
},
{
name = commaaccentcomb.case;
transform = "{1, 0, 0, 1, 250, 0}";
}
);
layerId = "8454c77d-11ac-4429-aa94-301a0d22d44f";
width = 661;
}
);
leftKerningGroup = H;
leftMetricsKey = N;
rightKerningGroup = N;
rightMetricsKey = N;
unicode = 0145;
},
{
glyphname = Eng;
layers = (
{
background = {
paths = (
{
closed = 1;
nodes = (
"496 578 LINE",
"572 559 LINE",
"489 130 LINE",
"240 611 LINE",
"110 611 LINE",
"104 578 LINE",
"175 559 LINE",
"77 53 LINE",
"-2 33 LINE",
"-8 0 LINE",
"203 0 LINE",
"209 33 LINE",
"132 53 LINE",
"216 488 LINE",
"444 42 LINE",
"431 -67 OFFCURVE",
"400 -112 OFFCURVE",
"325 -112 CURVE SMOOTH",
"297 -112 OFFCURVE",
"271 -109 OFFCURVE",
"243 -101 CURVE",
"235 -138 LINE",
"264 -154 OFFCURVE",
"296 -167 OFFCURVE",
"339 -167 CURVE SMOOTH",
"443 -167 OFFCURVE",
"494 -116 OFFCURVE",
"528 63 CURVE SMOOTH",
"624 559 LINE",
"705 578 LINE",
"711 611 LINE",
"502 611 LINE"
);
}
);
};
layerId = "27799D80-F866-457E-9382-0097DC0AFC53";
paths = (
{
closed = 1;
nodes = (
"443 -167 OFFCURVE",
"494 -116 OFFCURVE",
"528 63 CURVE SMOOTH",
"624 559 LINE",
"705 578 LINE",
"711 611 LINE",
"502 611 LINE",
"496 578 LINE",
"572 559 LINE",
"489 130 LINE",
"240 611 LINE",
"110 611 LINE",
"104 578 LINE",
"175 559 LINE",
"77 53 LINE",
"-2 33 LINE",
"-8 0 LINE",
"203 0 LINE",
"209 33 LINE",
"132 53 LINE",
"216 488 LINE",
"444 42 LINE",
"431 -67 OFFCURVE",
"400 -112 OFFCURVE",
"325 -112 CURVE SMOOTH",
"297 -112 OFFCURVE",
"271 -109 OFFCURVE",
"243 -101 CURVE",
"235 -138 LINE",
"264 -154 OFFCURVE",
"296 -167 OFFCURVE",
"339 -167 CURVE SMOOTH"
);
}
);
width = 682;
},
{
background = {
paths = (
{
closed = 1;
nodes = (
"475 569 LINE",
"550 546 LINE",
"479 172 LINE",
"287 614 LINE",
"102 614 LINE",
"94 569 LINE",
"169 546 LINE",
"77 69 LINE",
"-7 45 LINE",
"-16 0 LINE",
"215 0 LINE",
"224 45 LINE",
"149 69 LINE",
"220 437 LINE",
"392 38 LINE",
"381 -61 OFFCURVE",
"351 -113 OFFCURVE",
"286 -113 CURVE SMOOTH",
"265 -113 OFFCURVE",
"232 -109 OFFCURVE",
"211 -98 CURVE",
"194 -150 LINE",
"224 -166 OFFCURVE",
"274 -184 OFFCURVE",
"320 -184 CURVE SMOOTH",
"420 -184 OFFCURVE",
"496 -129 OFFCURVE",
"529 63 CURVE SMOOTH",
"623 546 LINE",
"708 569 LINE",
"716 614 LINE",
"483 614 LINE"
);
}
);
};
layerId = "91FB354D-039B-406A-8F87-4ABC8510003D";
paths = (
{
closed = 1;
nodes = (
"420 -184 OFFCURVE",
"496 -129 OFFCURVE",
"529 63 CURVE SMOOTH",
"623 546 LINE",
"708 569 LINE",
"716 614 LINE",
"483 614 LINE",
"475 569 LINE",
"550 546 LINE",
"479 172 LINE",
"287 614 LINE",
"102 614 LINE",
"94 569 LINE",
"169 546 LINE",
"77 69 LINE",
"-7 45 LINE",
"-16 0 LINE",
"215 0 LINE",
"224 45 LINE",
"149 69 LINE",
"220 437 LINE",
"392 38 LINE",
"381 -61 OFFCURVE",
"351 -113 OFFCURVE",
"286 -113 CURVE SMOOTH",
"265 -113 OFFCURVE",
"232 -109 OFFCURVE",
"211 -98 CURVE",
"194 -150 LINE",
"224 -166 OFFCURVE",
"274 -184 OFFCURVE",
"320 -184 CURVE SMOOTH"
);
}
);
width = 666;
},
{
layerId = "44981724-2b4e-42be-8f7f-300520b6a406";
paths = (
{
closed = 1;
nodes = (
"449 -162 OFFCURVE",
"494 -112 OFFCURVE",
"527 63 CURVE SMOOTH",
"622 563 LINE",
"704 580 LINE",
"709 610 LINE",
"507 610 LINE",
"501 580 LINE",
"574 563 LINE",
"490 120 LINE",
"229 610 LINE",
"112 610 LINE",
"106 580 LINE",
"176 563 LINE",
"77 49 LINE",
"-1 30 LINE",
"-6 0 LINE",
"199 0 LINE",
"204 30 LINE",
"127 49 LINE",
"215 500 LINE",
"458 36 LINE",
"444 -76 OFFCURVE",
"413 -112 OFFCURVE",
"335 -112 CURVE SMOOTH",
"305 -112 OFFCURVE",
"281 -109 OFFCURVE",
"251 -102 CURVE",
"246 -135 LINE",
"274 -151 OFFCURVE",
"302 -162 OFFCURVE",
"344 -162 CURVE SMOOTH"
);
}
);
width = 686;
},
{
layerId = "8454c77d-11ac-4429-aa94-301a0d22d44f";
paths = (
{
closed = 1;
nodes = (
"412 -190 OFFCURVE",
"492 -133 OFFCURVE",
"530 63 CURVE SMOOTH",
"623 541 LINE",
"709 566 LINE",
"718 615 LINE",
"476 615 LINE",
"468 566 LINE",
"544 541 LINE",
"479 193 LINE",
"295 615 LINE",
"99 615 LINE",
"91 566 LINE",
"167 541 LINE",
"77 75 LINE",
"-9 49 LINE",
"-19 0 LINE",
"219 0 LINE",
"230 49 LINE",
"155 75 LINE",
"219 412 LINE",
"382 37 LINE",
"371 -59 OFFCURVE",
"339 -113 OFFCURVE",
"275 -113 CURVE SMOOTH",
"256 -113 OFFCURVE",
"219 -109 OFFCURVE",
"200 -97 CURVE",
"180 -154 LINE",
"210 -170 OFFCURVE",
"266 -190 OFFCURVE",
"313 -190 CURVE SMOOTH"
);
}
);
width = 661;
}
);
leftKerningGroup = H;
leftMetricsKey = H;
rightKerningGroup = N;
rightMetricsKey = N;
unicode = 014A;
},
